<svg width="998" height="616" viewBox="0 0 998 616" fill="none" xmlns="http://www.w3.org/2000/svg">
<path d="M22.7036 459.733C16.0226 467.282 5.58013 484.309 2.31756 509.621C-1.42406 538.649 28.8207 560.998 44.4107 568.543C44.4107 568.543 31.3818 547.238 28.3752 539.249C25.3686 531.259 23.3641 523.27 23.3641 523.27M22.7036 459.733C23.6845 458.624 24.5844 457.72 25.3686 457.024C35.5021 447.592 50.6721 425.896 50.0899 411.084C49.4891 395.799 40.0671 390.046 31.0478 389.113C22.0285 388.18 9.61594 392.998 4.32197 404.759C0.648365 414.689 1.98343 424.4 4.32197 429.726C6.66052 435.053 10.905 447.37 18.353 455.359C19.6981 456.802 21.1457 458.277 22.7036 459.733ZM22.7036 459.733C25.4856 462.331 28.6191 464.865 32.1475 467.032M32.1475 467.032C37.5834 470.371 43.9565 472.839 51.4262 473.335C66.4595 474.334 72.1388 467.344 72.1387 458.355C72.1387 449.367 68.1299 446.704 57.7736 447.37C47.4173 448.035 43.0745 451.697 35.7248 461.684C34.4807 463.375 33.2845 465.16 32.1475 467.032ZM32.1475 467.032C26.5674 476.217 22.4133 487.466 21.0256 499.634C19.3552 514.281 23.3641 523.27 23.3641 523.27M23.3641 523.27C23.3641 523.27 28.3588 508.289 36.0424 498.302C43.726 488.315 55.4186 482.323 64.7726 481.657C74.1267 480.991 81.4763 485.652 87.4896 491.977C93.5029 498.302 94.1711 507.623 90.8303 515.28C87.4896 522.936 77.4674 525.932 69.7837 525.267C62.1001 524.601 58.7593 520.939 58.0912 515.28C57.4231 509.621 60.7638 503.628 60.7638 503.628" stroke="white" stroke-width="4" stroke-linecap="round" stroke-linejoin="round"/>
<path d="M65.929 498.818C63.655 498.275 59.7833 500.089 59.1604 502.679C58.0906 504.819 56.6704 511.35 56.9025 512.067C57.0428 512.5 58.7759 512.239 59.4441 511.173C60.3893 509.664 60.2674 510.019 61.4485 508.842C62.6297 507.665 67.1278 506.845 68.3348 504.528C69.4839 502.322 67.929 499.296 65.929 498.818Z" fill="white"/>
<path d="M156.279 593.369C148.702 600.027 131.615 610.432 106.214 613.684C77.0829 617.412 54.6554 587.274 47.0831 571.739C47.0831 571.739 68.464 584.722 76.4816 587.718C84.4991 590.714 92.5172 592.711 92.5172 592.711M156.279 593.369C157.391 592.392 158.299 591.495 158.997 590.714C168.463 580.616 190.235 565.499 205.1 566.08C220.439 566.678 226.212 576.067 227.148 585.055C228.085 594.042 223.25 606.411 211.447 611.686C201.481 615.347 191.737 614.017 186.391 611.686C181.046 609.356 168.686 605.126 160.668 597.705C159.22 596.364 157.739 594.922 156.279 593.369ZM156.279 593.369C153.671 590.597 151.129 587.475 148.954 583.959M148.954 583.959C145.603 578.542 143.126 572.191 142.628 564.748C141.626 549.768 148.641 544.108 157.661 544.109C166.681 544.109 169.354 548.103 168.686 558.423C168.018 568.743 164.342 573.07 154.32 580.394C152.624 581.634 150.832 582.826 148.954 583.959ZM148.954 583.959C139.736 589.519 128.447 593.659 116.236 595.041C101.537 596.706 92.5172 592.711 92.5172 592.711M92.5172 592.711C92.5172 592.711 107.551 587.734 117.573 580.078C127.595 572.421 133.608 560.77 134.277 551.449C134.945 542.128 130.268 534.804 123.92 528.812C117.573 522.82 108.219 522.154 100.535 525.483C92.8517 528.812 89.845 538.799 90.513 546.455C91.181 554.112 94.8561 557.441 100.535 558.107C106.214 558.772 112.228 555.443 112.228 555.443" stroke="white" stroke-width="4" stroke-linecap="round" stroke-linejoin="round"/>
<path d="M117.055 550.296C117.6 552.562 115.78 556.421 113.181 557.041C111.033 558.107 104.479 559.522 103.76 559.291C103.325 559.151 103.587 557.424 104.657 556.759C106.171 555.817 105.814 555.938 106.995 554.761C108.177 553.584 109 549.102 111.325 547.899C113.539 546.754 116.576 548.304 117.055 550.296Z" fill="white"/>
<path d="M975.296 459.733C981.977 467.282 992.42 484.309 995.682 509.621C999.424 538.649 969.179 560.998 953.589 568.543C953.589 568.543 966.618 547.238 969.625 539.249C972.631 531.259 974.636 523.27 974.636 523.27M975.296 459.733C974.315 458.624 973.416 457.72 972.631 457.024C962.498 447.592 947.328 425.896 947.91 411.084C948.511 395.799 957.933 390.046 966.952 389.113C975.971 388.18 988.384 392.998 993.678 404.759C997.352 414.689 996.017 424.4 993.678 429.726C991.339 435.053 987.095 447.37 979.647 455.359C978.302 456.802 976.854 458.277 975.296 459.733ZM975.296 459.733C972.514 462.331 969.381 464.865 965.852 467.032M965.852 467.032C960.417 470.371 954.043 472.839 946.574 473.335C931.541 474.334 925.861 467.344 925.861 458.355C925.861 449.367 929.87 446.704 940.226 447.37C950.583 448.035 954.926 451.697 962.275 461.684C963.519 463.375 964.715 465.16 965.852 467.032ZM965.852 467.032C971.433 476.217 975.587 487.466 976.974 499.634C978.645 514.281 974.636 523.27 974.636 523.27M974.636 523.27C974.636 523.27 969.641 508.289 961.958 498.302C954.274 488.315 942.581 482.323 933.227 481.657C923.873 480.991 916.524 485.652 910.51 491.977C904.497 498.302 903.829 507.623 907.17 515.28C910.51 522.936 920.533 525.932 928.216 525.267C935.9 524.601 939.241 520.939 939.909 515.28C940.577 509.621 937.236 503.628 937.236 503.628" stroke="white" stroke-width="4" stroke-linecap="round" stroke-linejoin="round"/>
<path d="M932.071 498.818C934.345 498.275 938.217 500.089 938.84 502.679C939.909 504.819 941.33 511.35 941.098 512.067C940.957 512.5 939.224 512.239 938.556 511.173C937.611 509.664 937.733 510.019 936.551 508.842C935.37 507.665 930.872 506.845 929.665 504.528C928.516 502.322 930.071 499.296 932.071 498.818Z" fill="white"/>
<path d="M841.721 593.369C849.298 600.027 866.385 610.432 891.786 613.684C920.917 617.412 943.345 587.274 950.917 571.739C950.917 571.739 929.536 584.722 921.518 587.718C913.501 590.714 905.483 592.711 905.483 592.711M841.721 593.369C840.609 592.392 839.701 591.495 839.003 590.714C829.537 580.616 807.765 565.499 792.9 566.08C777.561 566.678 771.788 576.067 770.852 585.055C769.915 594.042 774.75 606.411 786.553 611.686C796.519 615.347 806.263 614.017 811.609 611.686C816.954 609.356 829.314 605.126 837.332 597.705C838.78 596.364 840.261 594.922 841.721 593.369ZM841.721 593.369C844.329 590.597 846.871 587.475 849.046 583.959M849.046 583.959C852.397 578.542 854.874 572.191 855.372 564.748C856.374 549.768 849.359 544.108 840.339 544.109C831.319 544.109 828.646 548.103 829.314 558.423C829.982 568.743 833.658 573.07 843.68 580.394C845.376 581.634 847.168 582.826 849.046 583.959ZM849.046 583.959C858.264 589.519 869.553 593.659 881.764 595.041C896.463 596.706 905.483 592.711 905.483 592.711M905.483 592.711C905.483 592.711 890.449 587.734 880.427 580.078C870.405 572.421 864.392 560.77 863.723 551.449C863.055 542.128 867.732 534.804 874.08 528.812C880.427 522.82 889.781 522.154 897.465 525.483C905.148 528.812 908.155 538.799 907.487 546.455C906.819 554.112 903.144 557.441 897.465 558.107C891.786 558.772 885.772 555.443 885.772 555.443" stroke="white" stroke-width="4" stroke-linecap="round" stroke-linejoin="round"/>
<path d="M880.945 550.296C880.4 552.562 882.22 556.421 884.819 557.041C886.967 558.107 893.521 559.522 894.24 559.291C894.675 559.151 894.413 557.424 893.343 556.759C891.829 555.817 892.186 555.938 891.005 554.761C889.823 553.584 889 549.102 886.675 547.899C884.461 546.754 881.424 548.304 880.945 550.296Z" fill="white"/>
<path d="M22.7036 156.267C16.0226 148.718 5.58013 131.691 2.31756 106.379C-1.42406 77.3506 28.8207 55.0022 44.4107 47.4566C44.4107 47.4566 31.3818 68.762 28.3752 76.7514C25.3686 84.7407 23.3641 92.7305 23.3641 92.7305M22.7036 156.267C23.6845 157.376 24.5844 158.28 25.3686 158.976C35.5021 168.408 50.6721 190.104 50.0899 204.916C49.4891 220.201 40.0671 225.954 31.0478 226.887C22.0285 227.82 9.61594 223.002 4.32197 211.241C0.648365 201.311 1.98343 191.6 4.32197 186.274C6.66052 180.947 10.905 168.63 18.353 160.641C19.6981 159.198 21.1457 157.723 22.7036 156.267ZM22.7036 156.267C25.4856 153.669 28.6191 151.135 32.1475 148.968M32.1475 148.968C37.5834 145.629 43.9565 143.161 51.4262 142.665C66.4595 141.666 72.1388 148.656 72.1387 157.645C72.1387 166.633 68.1299 169.296 57.7736 168.63C47.4173 167.965 43.0745 164.303 35.7248 154.316C34.4807 152.625 33.2845 150.84 32.1475 148.968ZM32.1475 148.968C26.5674 139.783 22.4133 128.534 21.0256 116.366C19.3552 101.719 23.3641 92.7305 23.3641 92.7305M23.3641 92.7305C23.3641 92.7305 28.3588 107.711 36.0424 117.698C43.726 127.685 55.4186 133.677 64.7726 134.343C74.1267 135.009 81.4763 130.348 87.4896 124.023C93.5029 117.698 94.1711 108.377 90.8303 100.72C87.4896 93.0638 77.4674 90.0677 69.7837 90.7333C62.1001 91.399 58.7593 95.0611 58.0912 100.72C57.4231 106.379 60.7638 112.372 60.7638 112.372" stroke="white" stroke-width="4" stroke-linecap="round" stroke-linejoin="round"/>
<path d="M65.929 117.182C63.655 117.724 59.7833 115.911 59.1604 113.321C58.0906 111.181 56.6704 104.65 56.9025 103.933C57.0428 103.5 58.7759 103.761 59.4441 104.827C60.3893 106.336 60.2674 105.981 61.4485 107.157C62.6297 108.334 67.1278 109.155 68.3348 111.472C69.4839 113.678 67.929 116.704 65.929 117.182Z" fill="white"/>
<path d="M156.279 22.6306C148.702 15.9731 131.615 5.56751 106.214 2.31644C77.0829 -1.41198 54.6554 28.7261 47.0831 44.2612C47.0831 44.2612 68.464 31.2783 76.4816 28.2822C84.4991 25.2862 92.5172 23.2888 92.5172 23.2888M156.279 22.6306C157.391 23.6081 158.299 24.5048 158.997 25.2862C168.463 35.384 190.235 50.5006 205.1 49.9204C220.439 49.3217 226.212 39.9329 227.148 30.9454C228.085 21.9579 223.25 9.58909 211.447 4.31379C201.481 0.653131 191.737 1.98349 186.391 4.31379C181.046 6.6441 168.686 10.8736 160.668 18.2954C159.22 19.6357 157.739 21.0783 156.279 22.6306ZM156.279 22.6306C153.671 25.4028 151.129 28.5253 148.954 32.0413M148.954 32.0413C145.603 37.4579 143.126 43.8086 142.628 51.252C141.626 66.2322 148.641 71.8915 157.661 71.8915C166.681 71.8914 169.354 67.8968 168.686 57.577C168.018 47.2572 164.342 42.9297 154.32 35.6059C152.624 34.3662 150.832 33.1743 148.954 32.0413ZM148.954 32.0413C139.736 26.4808 128.447 22.3413 116.236 20.9585C101.537 19.294 92.5172 23.2888 92.5172 23.2888M92.5172 23.2888C92.5172 23.2888 107.551 28.2659 117.573 35.9224C127.595 43.5789 133.608 55.2303 134.277 64.5514C134.945 73.8724 130.268 81.1961 123.92 87.1882C117.573 93.1803 108.219 93.8462 100.535 90.5172C92.8517 87.1882 89.845 77.2014 90.513 69.5448C91.181 61.8882 94.8561 58.5592 100.535 57.8935C106.214 57.2277 112.228 60.5566 112.228 60.5566" stroke="white" stroke-width="4" stroke-linecap="round" stroke-linejoin="round"/>
<path d="M117.055 65.7036C117.6 63.4376 115.78 59.5795 113.181 58.9588C111.033 57.8928 104.479 56.4775 103.76 56.7088C103.325 56.8487 103.587 58.5757 104.657 59.2415C106.171 60.1834 105.814 60.0619 106.995 61.2389C108.177 62.4158 109 66.8981 111.325 68.1009C113.539 69.2459 116.576 67.6965 117.055 65.7036Z" fill="white"/>
<path d="M975.296 156.267C981.977 148.718 992.42 131.691 995.682 106.379C999.424 77.3506 969.179 55.0022 953.589 47.4566C953.589 47.4566 966.618 68.762 969.625 76.7514C972.631 84.7407 974.636 92.7305 974.636 92.7305M975.296 156.267C974.315 157.376 973.416 158.28 972.631 158.976C962.498 168.408 947.328 190.104 947.91 204.916C948.511 220.201 957.933 225.954 966.952 226.887C975.972 227.82 988.384 223.002 993.678 211.241C997.352 201.311 996.017 191.6 993.678 186.274C991.339 180.947 987.095 168.63 979.647 160.641C978.302 159.198 976.854 157.723 975.296 156.267ZM975.296 156.267C972.514 153.669 969.381 151.135 965.852 148.968M965.852 148.968C960.417 145.629 954.043 143.161 946.574 142.665C931.541 141.666 925.861 148.656 925.861 157.645C925.861 166.633 929.87 169.296 940.226 168.63C950.583 167.965 954.926 164.303 962.275 154.316C963.519 152.625 964.715 150.84 965.852 148.968ZM965.852 148.968C971.433 139.783 975.587 128.534 976.974 116.366C978.645 101.719 974.636 92.7305 974.636 92.7305M974.636 92.7305C974.636 92.7305 969.641 107.711 961.958 117.698C954.274 127.685 942.581 133.677 933.227 134.343C923.873 135.009 916.524 130.348 910.51 124.023C904.497 117.698 903.829 108.377 907.17 100.72C910.51 93.0638 920.533 90.0677 928.216 90.7333C935.9 91.399 939.241 95.0611 939.909 100.72C940.577 106.379 937.236 112.372 937.236 112.372" stroke="white" stroke-width="4" stroke-linecap="round" stroke-linejoin="round"/>
<path d="M932.071 117.182C934.345 117.724 938.217 115.911 938.84 113.321C939.909 111.181 941.33 104.65 941.098 103.933C940.957 103.5 939.224 103.761 938.556 104.827C937.611 106.336 937.733 105.981 936.551 107.157C935.37 108.334 930.872 109.155 929.665 111.472C928.516 113.678 930.071 116.704 932.071 117.182Z" fill="white"/>
<path d="M841.721 22.6306C849.298 15.9731 866.385 5.56751 891.786 2.31644C920.917 -1.41198 943.345 28.7261 950.917 44.2612C950.917 44.2612 929.536 31.2783 921.518 28.2822C913.501 25.2862 905.483 23.2888 905.483 23.2888M841.721 22.6306C840.609 23.6081 839.701 24.5048 839.003 25.2862C829.537 35.384 807.765 50.5006 792.9 49.9204C777.561 49.3217 771.788 39.9329 770.852 30.9454C769.915 21.9579 774.75 9.58909 786.553 4.31379C796.519 0.653131 806.263 1.98349 811.609 4.31379C816.954 6.6441 829.314 10.8736 837.332 18.2954C838.78 19.6357 840.261 21.0783 841.721 22.6306ZM841.721 22.6306C844.329 25.4028 846.871 28.5253 849.046 32.0413M849.046 32.0413C852.397 37.4579 854.874 43.8086 855.372 51.252C856.374 66.2322 849.359 71.8915 840.339 71.8915C831.319 71.8914 828.646 67.8968 829.314 57.577C829.982 47.2572 833.658 42.9297 843.68 35.6059C845.376 34.3662 847.168 33.1743 849.046 32.0413ZM849.046 32.0413C858.264 26.4808 869.553 22.3413 881.764 20.9585C896.463 19.294 905.483 23.2888 905.483 23.2888M905.483 23.2888C905.483 23.2888 890.449 28.2659 880.427 35.9224C870.405 43.5789 864.392 55.2303 863.723 64.5514C863.055 73.8724 867.732 81.1961 874.08 87.1882C880.427 93.1803 889.781 93.8462 897.465 90.5172C905.148 87.1882 908.155 77.2014 907.487 69.5448C906.819 61.8882 903.144 58.5592 897.465 57.8935C891.786 57.2277 885.772 60.5566 885.772 60.5566" stroke="white" stroke-width="4" stroke-linecap="round" stroke-linejoin="round"/>
<path d="M880.945 65.7036C880.4 63.4376 882.22 59.5795 884.819 58.9588C886.967 57.8928 893.521 56.4775 894.24 56.7088C894.675 56.8487 894.413 58.5757 893.343 59.2415C891.829 60.1834 892.186 60.0619 891.005 61.2389C889.823 62.4158 889 66.8981 886.675 68.1009C884.461 69.2459 881.424 67.6965 880.945 65.7036Z" fill="white"/>
</svg>
