<svg width="299" height="227" viewBox="0 0 299 227" fill="none" xmlns="http://www.w3.org/2000/svg">
<path d="M6.32636 222.756C2.22705 222.828 -0.0984687 222.847 0.00684676 222.794C0.14481 222.725 2.4669 222.718 6.32636 222.756C32.247 222.304 129.088 219.782 130.743 220.458C132.66 221.241 132.66 223.57 130.743 224.346C128.827 225.123 119.249 224.725 94.0982 224.346C74.1501 224.046 24.0421 222.931 6.32636 222.756Z" fill="white"/>
<path d="M291.69 222.167C295.79 222.095 298.115 222.076 298.01 222.129C297.872 222.198 295.55 222.205 291.69 222.167C265.77 222.618 168.928 225.141 167.273 224.465C165.357 223.682 165.357 221.353 167.273 220.577C169.19 219.8 178.768 220.198 203.919 220.577C223.867 220.877 273.975 221.992 291.69 222.167Z" fill="white"/>
<path d="M135.105 221.633C135.487 220.221 137.133 219.983 138.026 219.795C144.533 219.324 157.428 218.807 159.986 220.221C163.048 221.915 162.032 223.998 160.368 225.02C158.072 226.432 147.295 226.587 140.463 225.867C135.105 225.302 134.63 223.383 135.105 221.633Z" fill="white"/>
<path d="M6.32636 4.17016C2.22705 4.24159 -0.0984687 4.26123 0.00684676 4.20823C0.14481 4.13879 2.4669 4.13215 6.32636 4.17016C32.247 3.7185 129.088 1.19594 130.743 1.87198C132.66 2.65493 132.66 4.98387 130.743 5.76029C128.827 6.53671 119.249 6.13913 94.0982 5.76029C74.1501 5.45982 24.0421 4.34464 6.32636 4.17016Z" fill="white"/>
<path d="M291.69 3.58088C295.79 3.50945 298.115 3.48981 298.01 3.54282C297.872 3.61225 295.55 3.61889 291.69 3.58088C265.77 4.03254 168.928 6.5551 167.273 5.87907C165.357 5.09612 165.357 2.76717 167.273 1.99075C169.19 1.21433 178.768 1.61191 203.919 1.99075C223.867 2.29122 273.975 3.40641 291.69 3.58088Z" fill="white"/>
<path d="M135.105 3.04673C135.487 1.63529 137.133 1.39719 138.026 1.209C144.533 0.738524 157.428 0.220706 159.986 1.63536C163.048 3.32912 162.032 5.41195 160.368 6.43422C158.072 7.8457 147.295 8.00074 140.463 7.28101C135.105 6.71644 134.63 4.79738 135.105 3.04673Z" fill="white"/>
</svg>
