<svg width="2571" height="413" viewBox="0 0 2571 413" fill="none" xmlns="http://www.w3.org/2000/svg">
<rect x="70.8428" y="409.561" width="256.253" height="2331.07" transform="rotate(-93.521 70.8428 409.561)" fill="white"/>
<rect width="20.1867" height="26.9675" rx="2" transform="matrix(-0.99816 0.0606344 -0.0606669 -0.998158 193.863 399.535)" fill="black"/>
<rect width="20.1867" height="26.9675" rx="2" transform="matrix(-0.99816 0.0606344 -0.0606669 -0.998158 294.489 393.344)" fill="black"/>
<rect width="20.1867" height="26.9675" rx="2" transform="matrix(-0.99816 0.0606344 -0.0606669 -0.998158 395.116 387.152)" fill="black"/>
<rect width="20.1867" height="26.9675" rx="2" transform="matrix(-0.99816 0.0606344 -0.0606669 -0.998158 495.743 380.961)" fill="black"/>
<rect width="20.1867" height="26.9675" rx="2" transform="matrix(-0.99816 0.0606344 -0.0606669 -0.998158 596.369 374.769)" fill="black"/>
<rect width="20.1867" height="26.9675" rx="2" transform="matrix(-0.99816 0.0606344 -0.0606669 -0.998158 696.995 368.578)" fill="black"/>
<rect width="20.1867" height="26.9675" rx="2" transform="matrix(-0.99816 0.0606344 -0.0606669 -0.998158 797.622 362.386)" fill="black"/>
<rect width="20.1867" height="26.9675" rx="2" transform="matrix(-0.99816 0.0606344 -0.0606669 -0.998158 898.248 356.195)" fill="black"/>
<rect width="20.1867" height="26.9675" rx="2" transform="matrix(-0.99816 0.0606344 -0.0606669 -0.998158 998.874 350.003)" fill="black"/>
<rect width="20.1867" height="26.9675" rx="2" transform="matrix(-0.99816 0.0606344 -0.0606669 -0.998158 1099.5 343.812)" fill="black"/>
<rect width="20.1867" height="26.9675" rx="2" transform="matrix(-0.99816 0.0606344 -0.0606669 -0.998158 219.02 397.988)" fill="black"/>
<rect width="20.1867" height="26.9675" rx="2" transform="matrix(-0.99816 0.0606344 -0.0606669 -0.998158 319.646 391.795)" fill="black"/>
<rect width="20.1867" height="26.9675" rx="2" transform="matrix(-0.99816 0.0606344 -0.0606669 -0.998158 420.272 385.604)" fill="black"/>
<rect width="20.1867" height="26.9675" rx="2" transform="matrix(-0.99816 0.0606344 -0.0606669 -0.998158 520.899 379.412)" fill="black"/>
<rect width="20.1867" height="26.9675" rx="2" transform="matrix(-0.99816 0.0606344 -0.0606669 -0.998158 621.525 373.221)" fill="black"/>
<rect width="20.1867" height="26.9675" rx="2" transform="matrix(-0.99816 0.0606344 -0.0606669 -0.998158 722.151 367.029)" fill="black"/>
<rect width="20.1867" height="26.9675" rx="2" transform="matrix(-0.99816 0.0606344 -0.0606669 -0.998158 822.778 360.838)" fill="black"/>
<rect width="20.1867" height="26.9675" rx="2" transform="matrix(-0.99816 0.0606344 -0.0606669 -0.998158 923.404 354.647)" fill="black"/>
<rect width="20.1867" height="26.9675" rx="2" transform="matrix(-0.99816 0.0606344 -0.0606669 -0.998158 1024.03 348.455)" fill="black"/>
<rect width="20.1867" height="26.9675" rx="2" transform="matrix(-0.99816 0.0606344 -0.0606669 -0.998158 1124.66 342.264)" fill="black"/>
<rect width="20.1867" height="26.9675" rx="2" transform="matrix(-0.99816 0.0606344 -0.0606669 -0.998158 244.176 396.44)" fill="black"/>
<rect width="20.1867" height="26.9675" rx="2" transform="matrix(-0.99816 0.0606344 -0.0606669 -0.998158 344.803 390.248)" fill="black"/>
<rect width="20.1867" height="26.9675" rx="2" transform="matrix(-0.99816 0.0606344 -0.0606669 -0.998158 445.429 384.057)" fill="black"/>
<rect width="20.1867" height="26.9675" rx="2" transform="matrix(-0.99816 0.0606344 -0.0606669 -0.998158 546.055 377.865)" fill="black"/>
<rect width="20.1867" height="26.9675" rx="2" transform="matrix(-0.99816 0.0606344 -0.0606669 -0.998158 646.682 371.673)" fill="black"/>
<rect width="20.1867" height="26.9675" rx="2" transform="matrix(-0.99816 0.0606344 -0.0606669 -0.998158 747.308 365.482)" fill="black"/>
<rect width="20.1867" height="26.9675" rx="2" transform="matrix(-0.99816 0.0606344 -0.0606669 -0.998158 847.935 359.29)" fill="black"/>
<rect width="20.1867" height="26.9675" rx="2" transform="matrix(-0.99816 0.0606344 -0.0606669 -0.998158 948.561 353.099)" fill="black"/>
<rect width="20.1867" height="26.9675" rx="2" transform="matrix(-0.99816 0.0606344 -0.0606669 -0.998158 1049.19 346.907)" fill="black"/>
<rect width="20.1867" height="26.9675" rx="2" transform="matrix(-0.99816 0.0606344 -0.0606669 -0.998158 1149.81 340.716)" fill="black"/>
<rect width="20.1867" height="26.9675" rx="2" transform="matrix(-0.99816 0.0606344 -0.0606669 -0.998158 269.333 394.891)" fill="black"/>
<rect width="20.1867" height="26.9675" rx="2" transform="matrix(-0.99816 0.0606344 -0.0606669 -0.998158 369.959 388.7)" fill="black"/>
<rect width="20.1867" height="26.9675" rx="2" transform="matrix(-0.99816 0.0606344 -0.0606669 -0.998158 470.585 382.509)" fill="black"/>
<rect width="20.1867" height="26.9675" rx="2" transform="matrix(-0.99816 0.0606344 -0.0606669 -0.998158 571.212 376.317)" fill="black"/>
<rect width="20.1867" height="26.9675" rx="2" transform="matrix(-0.99816 0.0606344 -0.0606669 -0.998158 671.838 370.125)" fill="black"/>
<rect width="20.1867" height="26.9675" rx="2" transform="matrix(-0.99816 0.0606344 -0.0606669 -0.998158 772.464 363.935)" fill="black"/>
<rect width="20.1867" height="26.9675" rx="2" transform="matrix(-0.99816 0.0606344 -0.0606669 -0.998158 873.091 357.742)" fill="black"/>
<rect width="20.1867" height="26.9675" rx="2" transform="matrix(-0.99816 0.0606344 -0.0606669 -0.998158 973.717 351.551)" fill="black"/>
<rect width="20.1867" height="26.9675" rx="2" transform="matrix(-0.99816 0.0606344 -0.0606669 -0.998158 1074.34 345.359)" fill="black"/>
<rect width="20.1867" height="26.9675" rx="2" transform="matrix(-0.99816 0.0606344 -0.0606669 -0.998158 1174.97 339.168)" fill="black"/>
<rect width="20.1867" height="26.9675" rx="2" transform="matrix(-0.99816 0.0606344 -0.0606669 -0.998158 93.2363 405.727)" fill="black"/>
<rect width="20.1867" height="26.9675" rx="2" transform="matrix(-0.99816 0.0606344 -0.0606669 -0.998158 118.393 404.178)" fill="black"/>
<rect width="20.1867" height="26.9675" rx="2" transform="matrix(-0.99816 0.0606344 -0.0606669 -0.998158 143.55 402.631)" fill="black"/>
<rect width="20.1867" height="26.9675" rx="2" transform="matrix(-0.99816 0.0606344 -0.0606669 -0.998158 168.707 401.083)" fill="black"/>
<rect width="20.1867" height="26.9675" rx="2" transform="matrix(-0.99816 0.0606344 -0.0606669 -0.998158 1300.13 331.571)" fill="black"/>
<rect width="20.1867" height="26.9675" rx="2" transform="matrix(-0.99816 0.0606344 -0.0606669 -0.998158 1400.76 325.38)" fill="black"/>
<rect width="20.1867" height="26.9675" rx="2" transform="matrix(-0.99816 0.0606344 -0.0606669 -0.998158 1501.38 319.188)" fill="black"/>
<rect width="20.1867" height="26.9675" rx="2" transform="matrix(-0.99816 0.0606344 -0.0606669 -0.998158 1602.01 312.996)" fill="black"/>
<rect width="20.1867" height="26.9675" rx="2" transform="matrix(-0.99816 0.0606344 -0.0606669 -0.998158 1702.64 306.805)" fill="black"/>
<rect width="20.1867" height="26.9675" rx="2" transform="matrix(-0.99816 0.0606344 -0.0606669 -0.998158 1803.26 300.614)" fill="black"/>
<rect width="20.1867" height="26.9675" rx="2" transform="matrix(-0.99816 0.0606344 -0.0606669 -0.998158 1903.89 294.422)" fill="black"/>
<rect width="20.1867" height="26.9675" rx="2" transform="matrix(-0.99816 0.0606344 -0.0606669 -0.998158 2004.51 288.23)" fill="black"/>
<rect width="20.1867" height="26.9675" rx="2" transform="matrix(-0.99816 0.0606344 -0.0606669 -0.998158 2105.14 282.038)" fill="black"/>
<rect width="20.1867" height="26.9675" rx="2" transform="matrix(-0.99816 0.0606344 -0.0606669 -0.998158 2205.77 275.847)" fill="black"/>
<rect width="20.1867" height="26.9675" rx="2" transform="matrix(-0.99816 0.0606344 -0.0606669 -0.998158 1325.29 330.023)" fill="black"/>
<rect width="20.1867" height="26.9675" rx="2" transform="matrix(-0.99816 0.0606344 -0.0606669 -0.998158 1425.91 323.831)" fill="black"/>
<rect width="20.1867" height="26.9675" rx="2" transform="matrix(-0.99816 0.0606344 -0.0606669 -0.998158 1526.54 317.64)" fill="black"/>
<rect width="20.1867" height="26.9675" rx="2" transform="matrix(-0.99816 0.0606344 -0.0606669 -0.998158 1627.17 311.448)" fill="black"/>
<rect width="20.1867" height="26.9675" rx="2" transform="matrix(-0.99816 0.0606344 -0.0606669 -0.998158 1727.79 305.257)" fill="black"/>
<rect width="20.1867" height="26.9675" rx="2" transform="matrix(-0.99816 0.0606344 -0.0606669 -0.998158 1828.42 299.065)" fill="black"/>
<rect width="20.1867" height="26.9675" rx="2" transform="matrix(-0.99816 0.0606344 -0.0606669 -0.998158 1929.04 292.874)" fill="black"/>
<rect width="20.1867" height="26.9675" rx="2" transform="matrix(-0.99816 0.0606344 -0.0606669 -0.998158 2029.67 286.682)" fill="black"/>
<rect width="20.1867" height="26.9675" rx="2" transform="matrix(-0.99816 0.0606344 -0.0606669 -0.998158 2130.3 280.491)" fill="black"/>
<rect width="20.1867" height="26.9675" rx="2" transform="matrix(-0.99816 0.0606344 -0.0606669 -0.998158 2230.92 274.299)" fill="black"/>
<rect width="20.1867" height="26.9675" rx="2" transform="matrix(-0.99816 0.0606344 -0.0606669 -0.998158 1350.44 328.475)" fill="black"/>
<rect width="20.1867" height="26.9675" rx="2" transform="matrix(-0.99816 0.0606344 -0.0606669 -0.998158 1451.07 322.283)" fill="black"/>
<rect width="20.1867" height="26.9675" rx="2" transform="matrix(-0.99816 0.0606344 -0.0606669 -0.998158 1551.7 316.092)" fill="black"/>
<rect width="20.1867" height="26.9675" rx="2" transform="matrix(-0.99816 0.0606344 -0.0606669 -0.998158 1652.32 309.9)" fill="black"/>
<rect width="20.1867" height="26.9675" rx="2" transform="matrix(-0.99816 0.0606344 -0.0606669 -0.998158 1752.95 303.709)" fill="black"/>
<rect width="20.1867" height="26.9675" rx="2" transform="matrix(-0.99816 0.0606344 -0.0606669 -0.998158 1853.57 297.518)" fill="black"/>
<rect width="20.1867" height="26.9675" rx="2" transform="matrix(-0.99816 0.0606344 -0.0606669 -0.998158 1954.2 291.326)" fill="black"/>
<rect width="20.1867" height="26.9675" rx="2" transform="matrix(-0.99816 0.0606344 -0.0606669 -0.998158 2054.83 285.135)" fill="black"/>
<rect width="20.1867" height="26.9675" rx="2" transform="matrix(-0.99816 0.0606344 -0.0606669 -0.998158 2155.45 278.942)" fill="black"/>
<rect width="20.1867" height="26.9675" rx="2" transform="matrix(-0.99816 0.0606344 -0.0606669 -0.998158 2256.08 272.752)" fill="black"/>
<rect width="20.1867" height="26.9675" rx="2" transform="matrix(-0.99816 0.0606344 -0.0606669 -0.998158 1375.6 326.927)" fill="black"/>
<rect width="20.1867" height="26.9675" rx="2" transform="matrix(-0.99816 0.0606344 -0.0606669 -0.998158 1476.23 320.736)" fill="black"/>
<rect width="20.1867" height="26.9675" rx="2" transform="matrix(-0.99816 0.0606344 -0.0606669 -0.998158 1576.85 314.544)" fill="black"/>
<rect width="20.1867" height="26.9675" rx="2" transform="matrix(-0.99816 0.0606344 -0.0606669 -0.998158 1677.48 308.352)" fill="black"/>
<rect width="20.1867" height="26.9675" rx="2" transform="matrix(-0.99816 0.0606344 -0.0606669 -0.998158 1778.1 302.161)" fill="black"/>
<rect width="20.1867" height="26.9675" rx="2" transform="matrix(-0.99816 0.0606344 -0.0606669 -0.998158 1878.73 295.969)" fill="black"/>
<rect width="20.1867" height="26.9675" rx="2" transform="matrix(-0.99816 0.0606344 -0.0606669 -0.998158 1979.36 289.778)" fill="black"/>
<rect width="20.1867" height="26.9675" rx="2" transform="matrix(-0.99816 0.0606344 -0.0606669 -0.998158 2079.98 283.586)" fill="black"/>
<rect width="20.1867" height="26.9675" rx="2" transform="matrix(-0.99816 0.0606344 -0.0606669 -0.998158 2180.61 277.395)" fill="black"/>
<rect width="20.1867" height="26.9675" rx="2" transform="matrix(-0.99816 0.0606344 -0.0606669 -0.998158 2281.24 271.203)" fill="black"/>
<rect width="20.1867" height="26.9675" rx="2" transform="matrix(-0.99816 0.0606344 -0.0606669 -0.998158 1199.5 337.762)" fill="black"/>
<rect width="20.1867" height="26.9675" rx="2" transform="matrix(-0.99816 0.0606344 -0.0606669 -0.998158 1224.66 336.214)" fill="black"/>
<rect width="20.1867" height="26.9675" rx="2" transform="matrix(-0.99816 0.0606344 -0.0606669 -0.998158 1249.82 334.666)" fill="black"/>
<rect width="20.1867" height="26.9675" rx="2" transform="matrix(-0.99816 0.0606344 -0.0606669 -0.998158 1274.97 333.119)" fill="black"/>
<rect width="20.1867" height="26.9675" rx="2" transform="matrix(-0.99816 0.0606344 -0.0606669 -0.998158 1270.28 109.662)" fill="black"/>
<rect width="20.1867" height="26.9675" rx="2" transform="matrix(-0.99816 0.0606344 -0.0606669 -0.998158 1370.91 103.471)" fill="black"/>
<rect width="20.1867" height="26.9675" rx="2" transform="matrix(-0.99816 0.0606344 -0.0606669 -0.998158 1471.54 97.2792)" fill="black"/>
<rect width="20.1867" height="26.9675" rx="2" transform="matrix(-0.99816 0.0606344 -0.0606669 -0.998158 1572.17 91.0882)" fill="black"/>
<rect width="20.1867" height="26.9675" rx="2" transform="matrix(-0.99816 0.0606344 -0.0606669 -0.998158 1672.79 84.8961)" fill="black"/>
<rect width="20.1867" height="26.9675" rx="2" transform="matrix(-0.99816 0.0606344 -0.0606669 -0.998158 1773.42 78.7044)" fill="black"/>
<rect width="20.1867" height="26.9675" rx="2" transform="matrix(-0.99816 0.0606344 -0.0606669 -0.998158 1874.04 72.5132)" fill="black"/>
<rect width="20.1867" height="26.9675" rx="2" transform="matrix(-0.99816 0.0606344 -0.0606669 -0.998158 1974.67 66.3217)" fill="black"/>
<rect width="20.1867" height="26.9675" rx="2" transform="matrix(-0.99816 0.0606344 -0.0606669 -0.998158 2075.3 60.1301)" fill="black"/>
<rect width="20.1867" height="26.9675" rx="2" transform="matrix(-0.99816 0.0606344 -0.0606669 -0.998158 2175.92 53.9386)" fill="black"/>
<rect width="20.1867" height="26.9675" rx="2" transform="matrix(-0.99816 0.0606344 -0.0606669 -0.998158 1295.44 108.115)" fill="black"/>
<rect width="20.1867" height="26.9675" rx="2" transform="matrix(-0.99816 0.0606344 -0.0606669 -0.998158 1396.07 101.923)" fill="black"/>
<rect width="20.1867" height="26.9675" rx="2" transform="matrix(-0.99816 0.0606344 -0.0606669 -0.998158 1496.69 95.7313)" fill="black"/>
<rect width="20.1867" height="26.9675" rx="2" transform="matrix(-0.99816 0.0606344 -0.0606669 -0.998158 1597.32 89.5397)" fill="black"/>
<rect width="20.1867" height="26.9675" rx="2" transform="matrix(-0.99816 0.0606344 -0.0606669 -0.998158 1697.95 83.3488)" fill="black"/>
<rect width="20.1867" height="26.9675" rx="2" transform="matrix(-0.99816 0.0606344 -0.0606669 -0.998158 1798.57 77.1566)" fill="black"/>
<rect width="20.1867" height="26.9675" rx="2" transform="matrix(-0.99816 0.0606344 -0.0606669 -0.998158 1899.2 70.9656)" fill="black"/>
<rect width="20.1867" height="26.9675" rx="2" transform="matrix(-0.99816 0.0606344 -0.0606669 -0.998158 1999.83 64.7736)" fill="black"/>
<rect width="20.1867" height="26.9675" rx="2" transform="matrix(-0.99816 0.0606344 -0.0606669 -0.998158 2100.45 58.5823)" fill="black"/>
<rect width="20.1867" height="26.9675" rx="2" transform="matrix(-0.99816 0.0606344 -0.0606669 -0.998158 2201.08 52.3903)" fill="black"/>
<rect width="20.1867" height="26.9675" rx="2" transform="matrix(-0.99816 0.0606344 -0.0606669 -0.998158 1320.6 106.566)" fill="black"/>
<rect width="20.1867" height="26.9675" rx="2" transform="matrix(-0.99816 0.0606344 -0.0606669 -0.998158 1421.23 100.375)" fill="black"/>
<rect width="20.1867" height="26.9675" rx="2" transform="matrix(-0.99816 0.0606344 -0.0606669 -0.998158 1521.85 94.1831)" fill="black"/>
<rect width="20.1867" height="26.9675" rx="2" transform="matrix(-0.99816 0.0606344 -0.0606669 -0.998158 1622.48 87.9918)" fill="black"/>
<rect width="20.1867" height="26.9675" rx="2" transform="matrix(-0.99816 0.0606344 -0.0606669 -0.998158 1723.1 81.8001)" fill="black"/>
<rect width="20.1867" height="26.9675" rx="2" transform="matrix(-0.99816 0.0606344 -0.0606669 -0.998158 1823.73 75.6091)" fill="black"/>
<rect width="20.1867" height="26.9675" rx="2" transform="matrix(-0.99816 0.0606344 -0.0606669 -0.998158 1924.36 69.4173)" fill="black"/>
<rect width="20.1867" height="26.9675" rx="2" transform="matrix(-0.99816 0.0606344 -0.0606669 -0.998158 2024.98 63.2257)" fill="black"/>
<rect width="20.1867" height="26.9675" rx="2" transform="matrix(-0.99816 0.0606344 -0.0606669 -0.998158 2125.61 57.0343)" fill="black"/>
<rect width="20.1867" height="26.9675" rx="2" transform="matrix(-0.99816 0.0606344 -0.0606669 -0.998158 2226.23 50.8428)" fill="black"/>
<rect width="20.1867" height="26.9675" rx="2" transform="matrix(-0.99816 0.0606344 -0.0606669 -0.998158 1345.75 105.019)" fill="black"/>
<rect width="20.1867" height="26.9675" rx="2" transform="matrix(-0.99816 0.0606344 -0.0606669 -0.998158 1446.38 98.8266)" fill="black"/>
<rect width="20.1867" height="26.9675" rx="2" transform="matrix(-0.99816 0.0606344 -0.0606669 -0.998158 1547.01 92.6355)" fill="black"/>
<rect width="20.1867" height="26.9675" rx="2" transform="matrix(-0.99816 0.0606344 -0.0606669 -0.998158 1647.63 86.4438)" fill="black"/>
<rect width="20.1867" height="26.9675" rx="2" transform="matrix(-0.99816 0.0606344 -0.0606669 -0.998158 1748.26 80.2524)" fill="black"/>
<rect width="20.1867" height="26.9675" rx="2" transform="matrix(-0.99816 0.0606344 -0.0606669 -0.998158 1848.89 74.061)" fill="black"/>
<rect width="20.1867" height="26.9675" rx="2" transform="matrix(-0.99816 0.0606344 -0.0606669 -0.998158 1949.51 67.8694)" fill="black"/>
<rect width="20.1867" height="26.9675" rx="2" transform="matrix(-0.99816 0.0606344 -0.0606669 -0.998158 2050.14 61.678)" fill="black"/>
<rect width="20.1867" height="26.9675" rx="2" transform="matrix(-0.99816 0.0606344 -0.0606669 -0.998158 2150.77 55.4867)" fill="black"/>
<rect width="20.1867" height="26.9675" rx="2" transform="matrix(-0.99816 0.0606344 -0.0606669 -0.998158 2251.39 49.2949)" fill="black"/>
<rect width="20.1867" height="26.9675" rx="2" transform="matrix(-0.99816 0.0606344 -0.0606669 -0.998158 1169.66 115.854)" fill="black"/>
<rect width="20.1867" height="26.9675" rx="2" transform="matrix(-0.99816 0.0606344 -0.0606669 -0.998158 1194.81 114.306)" fill="black"/>
<rect width="20.1867" height="26.9675" rx="2" transform="matrix(-0.99816 0.0606344 -0.0606669 -0.998158 1219.97 112.758)" fill="black"/>
<rect width="20.1867" height="26.9675" rx="2" transform="matrix(-0.99816 0.0606344 -0.0606669 -0.998158 1245.13 111.211)" fill="black"/>
<rect width="20.1867" height="26.9675" rx="2" transform="matrix(-0.99816 0.0606344 -0.0606669 -0.998158 164.594 177.905)" fill="black"/>
<rect width="20.1867" height="26.9675" rx="2" transform="matrix(-0.99816 0.0606344 -0.0606669 -0.998158 265.22 171.713)" fill="black"/>
<rect width="20.1867" height="26.9675" rx="2" transform="matrix(-0.99816 0.0606344 -0.0606669 -0.998158 365.847 165.522)" fill="black"/>
<rect width="20.1867" height="26.9675" rx="2" transform="matrix(-0.99816 0.0606344 -0.0606669 -0.998158 466.473 159.33)" fill="black"/>
<rect width="20.1867" height="26.9675" rx="2" transform="matrix(-0.99816 0.0606344 -0.0606669 -0.998158 567.099 153.139)" fill="black"/>
<rect width="20.1867" height="26.9675" rx="2" transform="matrix(-0.99816 0.0606344 -0.0606669 -0.998158 667.726 146.947)" fill="black"/>
<rect width="20.1867" height="26.9675" rx="2" transform="matrix(-0.99816 0.0606344 -0.0606669 -0.998158 768.352 140.756)" fill="black"/>
<rect width="20.1867" height="26.9675" rx="2" transform="matrix(-0.99816 0.0606344 -0.0606669 -0.998158 868.979 134.564)" fill="black"/>
<rect width="20.1867" height="26.9675" rx="2" transform="matrix(-0.99816 0.0606344 -0.0606669 -0.998158 969.605 128.373)" fill="black"/>
<rect width="20.1867" height="26.9675" rx="2" transform="matrix(-0.99816 0.0606344 -0.0606669 -0.998158 1070.23 122.181)" fill="black"/>
<rect width="20.1867" height="26.9675" rx="2" transform="matrix(-0.99816 0.0606344 -0.0606669 -0.998158 189.75 176.357)" fill="black"/>
<rect width="20.1867" height="26.9675" rx="2" transform="matrix(-0.99816 0.0606344 -0.0606669 -0.998158 290.377 170.165)" fill="black"/>
<rect width="20.1867" height="26.9675" rx="2" transform="matrix(-0.99816 0.0606344 -0.0606669 -0.998158 391.003 163.973)" fill="black"/>
<rect width="20.1867" height="26.9675" rx="2" transform="matrix(-0.99816 0.0606344 -0.0606669 -0.998158 491.629 157.782)" fill="black"/>
<rect width="20.1867" height="26.9675" rx="2" transform="matrix(-0.99816 0.0606344 -0.0606669 -0.998158 592.256 151.59)" fill="black"/>
<rect width="20.1867" height="26.9675" rx="2" transform="matrix(-0.99816 0.0606344 -0.0606669 -0.998158 692.882 145.399)" fill="black"/>
<rect width="20.1867" height="26.9675" rx="2" transform="matrix(-0.99816 0.0606344 -0.0606669 -0.998158 793.509 139.208)" fill="black"/>
<rect width="20.1867" height="26.9675" rx="2" transform="matrix(-0.99816 0.0606344 -0.0606669 -0.998158 894.135 133.016)" fill="black"/>
<rect width="20.1867" height="26.9675" rx="2" transform="matrix(-0.99816 0.0606344 -0.0606669 -0.998158 994.761 126.824)" fill="black"/>
<rect width="20.1867" height="26.9675" rx="2" transform="matrix(-0.99816 0.0606344 -0.0606669 -0.998158 1095.39 120.633)" fill="black"/>
<rect width="20.1867" height="26.9675" rx="2" transform="matrix(-0.99816 0.0606344 -0.0606669 -0.998158 214.907 174.809)" fill="black"/>
<rect width="20.1867" height="26.9675" rx="2" transform="matrix(-0.99816 0.0606344 -0.0606669 -0.998158 315.533 168.618)" fill="black"/>
<rect width="20.1867" height="26.9675" rx="2" transform="matrix(-0.99816 0.0606344 -0.0606669 -0.998158 416.16 162.426)" fill="black"/>
<rect width="20.1867" height="26.9675" rx="2" transform="matrix(-0.99816 0.0606344 -0.0606669 -0.998158 516.786 156.235)" fill="black"/>
<rect width="20.1867" height="26.9675" rx="2" transform="matrix(-0.99816 0.0606344 -0.0606669 -0.998158 617.413 150.043)" fill="black"/>
<rect width="20.1867" height="26.9675" rx="2" transform="matrix(-0.99816 0.0606344 -0.0606669 -0.998158 718.039 143.851)" fill="black"/>
<rect width="20.1867" height="26.9675" rx="2" transform="matrix(-0.99816 0.0606344 -0.0606669 -0.998158 818.666 137.66)" fill="black"/>
<rect width="20.1867" height="26.9675" rx="2" transform="matrix(-0.99816 0.0606344 -0.0606669 -0.998158 919.292 131.468)" fill="black"/>
<rect width="20.1867" height="26.9675" rx="2" transform="matrix(-0.99816 0.0606344 -0.0606669 -0.998158 1019.92 125.277)" fill="black"/>
<rect width="20.1867" height="26.9675" rx="2" transform="matrix(-0.99816 0.0606344 -0.0606669 -0.998158 1120.54 119.085)" fill="black"/>
<rect width="20.1867" height="26.9675" rx="2" transform="matrix(-0.99816 0.0606344 -0.0606669 -0.998158 240.063 173.261)" fill="black"/>
<rect width="20.1867" height="26.9675" rx="2" transform="matrix(-0.99816 0.0606344 -0.0606669 -0.998158 340.69 167.069)" fill="black"/>
<rect width="20.1867" height="26.9675" rx="2" transform="matrix(-0.99816 0.0606344 -0.0606669 -0.998158 441.316 160.878)" fill="black"/>
<rect width="20.1867" height="26.9675" rx="2" transform="matrix(-0.99816 0.0606344 -0.0606669 -0.998158 541.942 154.687)" fill="black"/>
<rect width="20.1867" height="26.9675" rx="2" transform="matrix(-0.99816 0.0606344 -0.0606669 -0.998158 642.569 148.495)" fill="black"/>
<rect width="20.1867" height="26.9675" rx="2" transform="matrix(-0.99816 0.0606344 -0.0606669 -0.998158 743.196 142.303)" fill="black"/>
<rect width="20.1867" height="26.9675" rx="2" transform="matrix(-0.99816 0.0606344 -0.0606669 -0.998158 843.822 136.112)" fill="black"/>
<rect width="20.1867" height="26.9675" rx="2" transform="matrix(-0.99816 0.0606344 -0.0606669 -0.998158 944.448 129.92)" fill="black"/>
<rect width="20.1867" height="26.9675" rx="2" transform="matrix(-0.99816 0.0606344 -0.0606669 -0.998158 1045.07 123.729)" fill="black"/>
<rect width="20.1867" height="26.9675" rx="2" transform="matrix(-0.99816 0.0606344 -0.0606669 -0.998158 1145.7 117.537)" fill="black"/>
<rect width="20.1867" height="26.9675" rx="2" transform="matrix(-0.99816 0.0606344 -0.0606669 -0.998158 63.9673 184.096)" fill="black"/>
<rect width="20.1867" height="26.9675" rx="2" transform="matrix(-0.99816 0.0606344 -0.0606669 -0.998158 89.124 182.548)" fill="black"/>
<rect width="20.1867" height="26.9675" rx="2" transform="matrix(-0.99816 0.0606344 -0.0606669 -0.998158 114.281 181.001)" fill="black"/>
<rect width="20.1867" height="26.9675" rx="2" transform="matrix(-0.99816 0.0606344 -0.0606669 -0.998158 139.437 179.452)" fill="black"/>
<rect x="13.5625" y="377.601" width="185.14" height="236.993" transform="rotate(-93.521 13.5625 377.601)" fill="black"/>
<rect x="270.98" y="361.762" width="185.14" height="236.993" transform="rotate(-93.521 270.98 361.762)" fill="black"/>
<rect x="528.397" y="345.924" width="185.14" height="236.993" transform="rotate(-93.521 528.397 345.924)" fill="black"/>
<rect x="785.815" y="330.085" width="185.14" height="236.993" transform="rotate(-93.521 785.815 330.085)" fill="black"/>
<rect x="1043.23" y="314.246" width="185.14" height="236.993" transform="rotate(-93.521 1043.23 314.246)" fill="black"/>
<rect x="1301.9" y="298.046" width="185.14" height="236.993" transform="rotate(-93.521 1301.9 298.046)" fill="black"/>
<rect x="1559.32" y="282.207" width="185.14" height="236.993" transform="rotate(-93.521 1559.32 282.207)" fill="black"/>
<rect x="1816.74" y="266.368" width="185.14" height="236.993" transform="rotate(-93.521 1816.74 266.368)" fill="black"/>
<rect x="2074.16" y="250.53" width="185.14" height="236.993" transform="rotate(-93.521 2074.16 250.53)" fill="black"/>
<rect x="2331.57" y="234.691" width="185.14" height="236.993" transform="rotate(-93.521 2331.57 234.691)" fill="black"/>
</svg>
