<svg width="2472" height="281" viewBox="0 0 2472 281" fill="none" xmlns="http://www.w3.org/2000/svg">
<rect x="56.5695" y="279.644" width="247.139" height="2248.16" transform="rotate(-90.7717 56.5695 279.644)" fill="white"/>
<rect width="19.4686" height="26.0083" rx="2" transform="matrix(-0.99992 0.0126876 -0.0127202 -0.999919 175.541 275.676)" fill="black"/>
<rect width="19.4686" height="26.0083" rx="2" transform="matrix(-0.99992 0.0126876 -0.0127202 -0.999919 272.763 274.367)" fill="black"/>
<rect width="19.4686" height="26.0083" rx="2" transform="matrix(-0.99992 0.0126876 -0.0127202 -0.999919 369.985 273.057)" fill="black"/>
<rect width="19.4686" height="26.0083" rx="2" transform="matrix(-0.99992 0.0126876 -0.0127202 -0.999919 467.207 271.748)" fill="black"/>
<rect width="19.4686" height="26.0083" rx="2" transform="matrix(-0.99992 0.0126876 -0.0127202 -0.999919 564.429 270.438)" fill="black"/>
<rect width="19.4686" height="26.0083" rx="2" transform="matrix(-0.99992 0.0126876 -0.0127202 -0.999919 661.65 269.129)" fill="black"/>
<rect width="19.4686" height="26.0083" rx="2" transform="matrix(-0.99992 0.0126876 -0.0127202 -0.999919 758.872 267.819)" fill="black"/>
<rect width="19.4686" height="26.0083" rx="2" transform="matrix(-0.99992 0.0126876 -0.0127202 -0.999919 856.094 266.51)" fill="black"/>
<rect width="19.4686" height="26.0083" rx="2" transform="matrix(-0.99992 0.0126876 -0.0127202 -0.999919 953.316 265.2)" fill="black"/>
<rect width="19.4686" height="26.0083" rx="2" transform="matrix(-0.99992 0.0126876 -0.0127202 -0.999919 1050.54 263.891)" fill="black"/>
<rect width="19.4686" height="26.0083" rx="2" transform="matrix(-0.99992 0.0126876 -0.0127202 -0.999919 199.846 275.349)" fill="black"/>
<rect width="19.4686" height="26.0083" rx="2" transform="matrix(-0.99992 0.0126876 -0.0127202 -0.999919 297.068 274.039)" fill="black"/>
<rect width="19.4686" height="26.0083" rx="2" transform="matrix(-0.99992 0.0126876 -0.0127202 -0.999919 394.29 272.73)" fill="black"/>
<rect width="19.4686" height="26.0083" rx="2" transform="matrix(-0.99992 0.0126876 -0.0127202 -0.999919 491.512 271.42)" fill="black"/>
<rect width="19.4686" height="26.0083" rx="2" transform="matrix(-0.99992 0.0126876 -0.0127202 -0.999919 588.734 270.111)" fill="black"/>
<rect width="19.4686" height="26.0083" rx="2" transform="matrix(-0.99992 0.0126876 -0.0127202 -0.999919 685.956 268.801)" fill="black"/>
<rect width="19.4686" height="26.0083" rx="2" transform="matrix(-0.99992 0.0126876 -0.0127202 -0.999919 783.178 267.492)" fill="black"/>
<rect width="19.4686" height="26.0083" rx="2" transform="matrix(-0.99992 0.0126876 -0.0127202 -0.999919 880.4 266.182)" fill="black"/>
<rect width="19.4686" height="26.0083" rx="2" transform="matrix(-0.99992 0.0126876 -0.0127202 -0.999919 977.622 264.873)" fill="black"/>
<rect width="19.4686" height="26.0083" rx="2" transform="matrix(-0.99992 0.0126876 -0.0127202 -0.999919 1074.84 263.563)" fill="black"/>
<rect width="19.4686" height="26.0083" rx="2" transform="matrix(-0.99992 0.0126876 -0.0127202 -0.999919 224.152 275.022)" fill="black"/>
<rect width="19.4686" height="26.0083" rx="2" transform="matrix(-0.99992 0.0126876 -0.0127202 -0.999919 321.374 273.712)" fill="black"/>
<rect width="19.4686" height="26.0083" rx="2" transform="matrix(-0.99992 0.0126876 -0.0127202 -0.999919 418.596 272.403)" fill="black"/>
<rect width="19.4686" height="26.0083" rx="2" transform="matrix(-0.99992 0.0126876 -0.0127202 -0.999919 515.818 271.093)" fill="black"/>
<rect width="19.4686" height="26.0083" rx="2" transform="matrix(-0.99992 0.0126876 -0.0127202 -0.999919 613.04 269.783)" fill="black"/>
<rect width="19.4686" height="26.0083" rx="2" transform="matrix(-0.99992 0.0126876 -0.0127202 -0.999919 710.261 268.474)" fill="black"/>
<rect width="19.4686" height="26.0083" rx="2" transform="matrix(-0.99992 0.0126876 -0.0127202 -0.999919 807.484 267.164)" fill="black"/>
<rect width="19.4686" height="26.0083" rx="2" transform="matrix(-0.99992 0.0126876 -0.0127202 -0.999919 904.706 265.855)" fill="black"/>
<rect width="19.4686" height="26.0083" rx="2" transform="matrix(-0.99992 0.0126876 -0.0127202 -0.999919 1001.93 264.545)" fill="black"/>
<rect width="19.4686" height="26.0083" rx="2" transform="matrix(-0.99992 0.0126876 -0.0127202 -0.999919 1099.15 263.236)" fill="black"/>
<rect width="19.4686" height="26.0083" rx="2" transform="matrix(-0.99992 0.0126876 -0.0127202 -0.999919 248.457 274.694)" fill="black"/>
<rect width="19.4686" height="26.0083" rx="2" transform="matrix(-0.99992 0.0126876 -0.0127202 -0.999919 345.679 273.385)" fill="black"/>
<rect width="19.4686" height="26.0083" rx="2" transform="matrix(-0.99992 0.0126876 -0.0127202 -0.999919 442.901 272.075)" fill="black"/>
<rect width="19.4686" height="26.0083" rx="2" transform="matrix(-0.99992 0.0126876 -0.0127202 -0.999919 540.123 270.766)" fill="black"/>
<rect width="19.4686" height="26.0083" rx="2" transform="matrix(-0.99992 0.0126876 -0.0127202 -0.999919 637.345 269.456)" fill="black"/>
<rect width="19.4686" height="26.0083" rx="2" transform="matrix(-0.99992 0.0126876 -0.0127202 -0.999919 734.567 268.147)" fill="black"/>
<rect width="19.4686" height="26.0083" rx="2" transform="matrix(-0.99992 0.0126876 -0.0127202 -0.999919 831.789 266.837)" fill="black"/>
<rect width="19.4686" height="26.0083" rx="2" transform="matrix(-0.99992 0.0126876 -0.0127202 -0.999919 929.01 265.528)" fill="black"/>
<rect width="19.4686" height="26.0083" rx="2" transform="matrix(-0.99992 0.0126876 -0.0127202 -0.999919 1026.23 264.218)" fill="black"/>
<rect width="19.4686" height="26.0083" rx="2" transform="matrix(-0.99992 0.0126876 -0.0127202 -0.999919 1123.45 262.908)" fill="black"/>
<rect width="19.4686" height="26.0083" rx="2" transform="matrix(-0.99992 0.0126876 -0.0127202 -0.999919 78.3188 276.986)" fill="black"/>
<rect width="19.4686" height="26.0083" rx="2" transform="matrix(-0.99992 0.0126876 -0.0127202 -0.999919 102.625 276.658)" fill="black"/>
<rect width="19.4686" height="26.0083" rx="2" transform="matrix(-0.99992 0.0126876 -0.0127202 -0.999919 126.93 276.331)" fill="black"/>
<rect width="19.4686" height="26.0083" rx="2" transform="matrix(-0.99992 0.0126876 -0.0127202 -0.999919 151.235 276.004)" fill="black"/>
<rect width="19.4686" height="26.0083" rx="2" transform="matrix(-0.99992 0.0126876 -0.0127202 -0.999919 1244.38 261.379)" fill="black"/>
<rect width="19.4686" height="26.0083" rx="2" transform="matrix(-0.99992 0.0126876 -0.0127202 -0.999919 1341.6 260.07)" fill="black"/>
<rect width="19.4686" height="26.0083" rx="2" transform="matrix(-0.99992 0.0126876 -0.0127202 -0.999919 1438.82 258.76)" fill="black"/>
<rect width="19.4686" height="26.0083" rx="2" transform="matrix(-0.99992 0.0126876 -0.0127202 -0.999919 1536.04 257.451)" fill="black"/>
<rect width="19.4686" height="26.0083" rx="2" transform="matrix(-0.99992 0.0126876 -0.0127202 -0.999919 1633.26 256.141)" fill="black"/>
<rect width="19.4686" height="26.0083" rx="2" transform="matrix(-0.99992 0.0126876 -0.0127202 -0.999919 1730.48 254.832)" fill="black"/>
<rect width="19.4686" height="26.0083" rx="2" transform="matrix(-0.99992 0.0126876 -0.0127202 -0.999919 1827.71 253.522)" fill="black"/>
<rect width="19.4686" height="26.0083" rx="2" transform="matrix(-0.99992 0.0126876 -0.0127202 -0.999919 1924.93 252.213)" fill="black"/>
<rect width="19.4686" height="26.0083" rx="2" transform="matrix(-0.99992 0.0126876 -0.0127202 -0.999919 2022.15 250.903)" fill="black"/>
<rect width="19.4686" height="26.0083" rx="2" transform="matrix(-0.99992 0.0126876 -0.0127202 -0.999919 2119.37 249.594)" fill="black"/>
<rect width="19.4686" height="26.0083" rx="2" transform="matrix(-0.99992 0.0126876 -0.0127202 -0.999919 1268.68 261.052)" fill="black"/>
<rect width="19.4686" height="26.0083" rx="2" transform="matrix(-0.99992 0.0126876 -0.0127202 -0.999919 1365.9 259.742)" fill="black"/>
<rect width="19.4686" height="26.0083" rx="2" transform="matrix(-0.99992 0.0126876 -0.0127202 -0.999919 1463.12 258.433)" fill="black"/>
<rect width="19.4686" height="26.0083" rx="2" transform="matrix(-0.99992 0.0126876 -0.0127202 -0.999919 1560.35 257.123)" fill="black"/>
<rect width="19.4686" height="26.0083" rx="2" transform="matrix(-0.99992 0.0126876 -0.0127202 -0.999919 1657.57 255.814)" fill="black"/>
<rect width="19.4686" height="26.0083" rx="2" transform="matrix(-0.99992 0.0126876 -0.0127202 -0.999919 1754.79 254.504)" fill="black"/>
<rect width="19.4686" height="26.0083" rx="2" transform="matrix(-0.99992 0.0126876 -0.0127202 -0.999919 1852.01 253.195)" fill="black"/>
<rect width="19.4686" height="26.0083" rx="2" transform="matrix(-0.99992 0.0126876 -0.0127202 -0.999919 1949.23 251.885)" fill="black"/>
<rect width="19.4686" height="26.0083" rx="2" transform="matrix(-0.99992 0.0126876 -0.0127202 -0.999919 2046.46 250.576)" fill="black"/>
<rect width="19.4686" height="26.0083" rx="2" transform="matrix(-0.99992 0.0126876 -0.0127202 -0.999919 2143.68 249.266)" fill="black"/>
<rect width="19.4686" height="26.0083" rx="2" transform="matrix(-0.99992 0.0126876 -0.0127202 -0.999919 1292.99 260.724)" fill="black"/>
<rect width="19.4686" height="26.0083" rx="2" transform="matrix(-0.99992 0.0126876 -0.0127202 -0.999919 1390.21 259.415)" fill="black"/>
<rect width="19.4686" height="26.0083" rx="2" transform="matrix(-0.99992 0.0126876 -0.0127202 -0.999919 1487.43 258.105)" fill="black"/>
<rect width="19.4686" height="26.0083" rx="2" transform="matrix(-0.99992 0.0126876 -0.0127202 -0.999919 1584.65 256.796)" fill="black"/>
<rect width="19.4686" height="26.0083" rx="2" transform="matrix(-0.99992 0.0126876 -0.0127202 -0.999919 1681.87 255.486)" fill="black"/>
<rect width="19.4686" height="26.0083" rx="2" transform="matrix(-0.99992 0.0126876 -0.0127202 -0.999919 1779.1 254.177)" fill="black"/>
<rect width="19.4686" height="26.0083" rx="2" transform="matrix(-0.99992 0.0126876 -0.0127202 -0.999919 1876.32 252.867)" fill="black"/>
<rect width="19.4686" height="26.0083" rx="2" transform="matrix(-0.99992 0.0126876 -0.0127202 -0.999919 1973.54 251.558)" fill="black"/>
<rect width="19.4686" height="26.0083" rx="2" transform="matrix(-0.99992 0.0126876 -0.0127202 -0.999919 2070.76 250.248)" fill="black"/>
<rect width="19.4686" height="26.0083" rx="2" transform="matrix(-0.99992 0.0126876 -0.0127202 -0.999919 2167.98 248.939)" fill="black"/>
<rect width="19.4686" height="26.0083" rx="2" transform="matrix(-0.99992 0.0126876 -0.0127202 -0.999919 1317.29 260.397)" fill="black"/>
<rect width="19.4686" height="26.0083" rx="2" transform="matrix(-0.99992 0.0126876 -0.0127202 -0.999919 1414.51 259.088)" fill="black"/>
<rect width="19.4686" height="26.0083" rx="2" transform="matrix(-0.99992 0.0126876 -0.0127202 -0.999919 1511.74 257.778)" fill="black"/>
<rect width="19.4686" height="26.0083" rx="2" transform="matrix(-0.99992 0.0126876 -0.0127202 -0.999919 1608.96 256.469)" fill="black"/>
<rect width="19.4686" height="26.0083" rx="2" transform="matrix(-0.99992 0.0126876 -0.0127202 -0.999919 1706.18 255.159)" fill="black"/>
<rect width="19.4686" height="26.0083" rx="2" transform="matrix(-0.99992 0.0126876 -0.0127202 -0.999919 1803.4 253.849)" fill="black"/>
<rect width="19.4686" height="26.0083" rx="2" transform="matrix(-0.99992 0.0126876 -0.0127202 -0.999919 1900.62 252.54)" fill="black"/>
<rect width="19.4686" height="26.0083" rx="2" transform="matrix(-0.99992 0.0126876 -0.0127202 -0.999919 1997.84 251.23)" fill="black"/>
<rect width="19.4686" height="26.0083" rx="2" transform="matrix(-0.99992 0.0126876 -0.0127202 -0.999919 2095.07 249.921)" fill="black"/>
<rect width="19.4686" height="26.0083" rx="2" transform="matrix(-0.99992 0.0126876 -0.0127202 -0.999919 2192.29 248.611)" fill="black"/>
<rect width="19.4686" height="26.0083" rx="2" transform="matrix(-0.99992 0.0126876 -0.0127202 -0.999919 1147.15 262.689)" fill="black"/>
<rect width="19.4686" height="26.0083" rx="2" transform="matrix(-0.99992 0.0126876 -0.0127202 -0.999919 1171.46 262.361)" fill="black"/>
<rect width="19.4686" height="26.0083" rx="2" transform="matrix(-0.99992 0.0126876 -0.0127202 -0.999919 1195.76 262.034)" fill="black"/>
<rect width="19.4686" height="26.0083" rx="2" transform="matrix(-0.99992 0.0126876 -0.0127202 -0.999919 1220.07 261.707)" fill="black"/>
<rect width="19.4686" height="26.0083" rx="2" transform="matrix(-0.99992 0.0126876 -0.0127202 -0.999919 1225.89 46.23)" fill="black"/>
<rect width="19.4686" height="26.0083" rx="2" transform="matrix(-0.99992 0.0126876 -0.0127202 -0.999919 1323.11 44.9203)" fill="black"/>
<rect width="19.4686" height="26.0083" rx="2" transform="matrix(-0.99992 0.0126876 -0.0127202 -0.999919 1420.33 43.6106)" fill="black"/>
<rect width="19.4686" height="26.0083" rx="2" transform="matrix(-0.99992 0.0126876 -0.0127202 -0.999919 1517.55 42.3016)" fill="black"/>
<rect width="19.4686" height="26.0083" rx="2" transform="matrix(-0.99992 0.0126876 -0.0127202 -0.999919 1614.78 40.9916)" fill="black"/>
<rect width="19.4686" height="26.0083" rx="2" transform="matrix(-0.99992 0.0126876 -0.0127202 -0.999919 1712 39.682)" fill="black"/>
<rect width="19.4686" height="26.0083" rx="2" transform="matrix(-0.99992 0.0126876 -0.0127202 -0.999919 1809.22 38.3724)" fill="black"/>
<rect width="19.4686" height="26.0083" rx="2" transform="matrix(-0.99992 0.0126876 -0.0127202 -0.999919 1906.44 37.0631)" fill="black"/>
<rect width="19.4686" height="26.0083" rx="2" transform="matrix(-0.99992 0.0126876 -0.0127202 -0.999919 2003.66 35.7534)" fill="black"/>
<rect width="19.4686" height="26.0083" rx="2" transform="matrix(-0.99992 0.0126876 -0.0127202 -0.999919 2100.89 34.4442)" fill="black"/>
<rect width="19.4686" height="26.0083" rx="2" transform="matrix(-0.99992 0.0126876 -0.0127202 -0.999919 1250.19 45.9026)" fill="black"/>
<rect width="19.4686" height="26.0083" rx="2" transform="matrix(-0.99992 0.0126876 -0.0127202 -0.999919 1347.42 44.5925)" fill="black"/>
<rect width="19.4686" height="26.0083" rx="2" transform="matrix(-0.99992 0.0126876 -0.0127202 -0.999919 1444.64 43.2833)" fill="black"/>
<rect width="19.4686" height="26.0083" rx="2" transform="matrix(-0.99992 0.0126876 -0.0127202 -0.999919 1541.86 41.9738)" fill="black"/>
<rect width="19.4686" height="26.0083" rx="2" transform="matrix(-0.99992 0.0126876 -0.0127202 -0.999919 1639.08 40.6647)" fill="black"/>
<rect width="19.4686" height="26.0083" rx="2" transform="matrix(-0.99992 0.0126876 -0.0127202 -0.999919 1736.3 39.3545)" fill="black"/>
<rect width="19.4686" height="26.0083" rx="2" transform="matrix(-0.99992 0.0126876 -0.0127202 -0.999919 1833.53 38.0457)" fill="black"/>
<rect width="19.4686" height="26.0083" rx="2" transform="matrix(-0.99992 0.0126876 -0.0127202 -0.999919 1930.75 36.7354)" fill="black"/>
<rect width="19.4686" height="26.0083" rx="2" transform="matrix(-0.99992 0.0126876 -0.0127202 -0.999919 2027.97 35.4263)" fill="black"/>
<rect width="19.4686" height="26.0083" rx="2" transform="matrix(-0.99992 0.0126876 -0.0127202 -0.999919 2125.19 34.1165)" fill="black"/>
<rect width="19.4686" height="26.0083" rx="2" transform="matrix(-0.99992 0.0126876 -0.0127202 -0.999919 1274.5 45.5748)" fill="black"/>
<rect width="19.4686" height="26.0083" rx="2" transform="matrix(-0.99992 0.0126876 -0.0127202 -0.999919 1371.72 44.2655)" fill="black"/>
<rect width="19.4686" height="26.0083" rx="2" transform="matrix(-0.99992 0.0126876 -0.0127202 -0.999919 1468.94 42.9557)" fill="black"/>
<rect width="19.4686" height="26.0083" rx="2" transform="matrix(-0.99992 0.0126876 -0.0127202 -0.999919 1566.17 41.6462)" fill="black"/>
<rect width="19.4686" height="26.0083" rx="2" transform="matrix(-0.99992 0.0126876 -0.0127202 -0.999919 1663.39 40.3367)" fill="black"/>
<rect width="19.4686" height="26.0083" rx="2" transform="matrix(-0.99992 0.0126876 -0.0127202 -0.999919 1760.61 39.0277)" fill="black"/>
<rect width="19.4686" height="26.0083" rx="2" transform="matrix(-0.99992 0.0126876 -0.0127202 -0.999919 1857.83 37.7178)" fill="black"/>
<rect width="19.4686" height="26.0083" rx="2" transform="matrix(-0.99992 0.0126876 -0.0127202 -0.999919 1955.05 36.4083)" fill="black"/>
<rect width="19.4686" height="26.0083" rx="2" transform="matrix(-0.99992 0.0126876 -0.0127202 -0.999919 2052.28 35.0988)" fill="black"/>
<rect width="19.4686" height="26.0083" rx="2" transform="matrix(-0.99992 0.0126876 -0.0127202 -0.999919 2149.5 33.7893)" fill="black"/>
<rect width="19.4686" height="26.0083" rx="2" transform="matrix(-0.99992 0.0126876 -0.0127202 -0.999919 1298.81 45.2477)" fill="black"/>
<rect width="19.4686" height="26.0083" rx="2" transform="matrix(-0.99992 0.0126876 -0.0127202 -0.999919 1396.03 43.9375)" fill="black"/>
<rect width="19.4686" height="26.0083" rx="2" transform="matrix(-0.99992 0.0126876 -0.0127202 -0.999919 1493.25 42.6285)" fill="black"/>
<rect width="19.4686" height="26.0083" rx="2" transform="matrix(-0.99992 0.0126876 -0.0127202 -0.999919 1590.47 41.3187)" fill="black"/>
<rect width="19.4686" height="26.0083" rx="2" transform="matrix(-0.99992 0.0126876 -0.0127202 -0.999919 1687.69 40.0095)" fill="black"/>
<rect width="19.4686" height="26.0083" rx="2" transform="matrix(-0.99992 0.0126876 -0.0127202 -0.999919 1784.92 38.6998)" fill="black"/>
<rect width="19.4686" height="26.0083" rx="2" transform="matrix(-0.99992 0.0126876 -0.0127202 -0.999919 1882.14 37.3904)" fill="black"/>
<rect width="19.4686" height="26.0083" rx="2" transform="matrix(-0.99992 0.0126876 -0.0127202 -0.999919 1979.36 36.0809)" fill="black"/>
<rect width="19.4686" height="26.0083" rx="2" transform="matrix(-0.99992 0.0126876 -0.0127202 -0.999919 2076.58 34.7719)" fill="black"/>
<rect width="19.4686" height="26.0083" rx="2" transform="matrix(-0.99992 0.0126876 -0.0127202 -0.999919 2173.8 33.4619)" fill="black"/>
<rect width="19.4686" height="26.0083" rx="2" transform="matrix(-0.99992 0.0126876 -0.0127202 -0.999919 1128.67 47.5394)" fill="black"/>
<rect width="19.4686" height="26.0083" rx="2" transform="matrix(-0.99992 0.0126876 -0.0127202 -0.999919 1152.97 47.2118)" fill="black"/>
<rect width="19.4686" height="26.0083" rx="2" transform="matrix(-0.99992 0.0126876 -0.0127202 -0.999919 1177.28 46.8846)" fill="black"/>
<rect width="19.4686" height="26.0083" rx="2" transform="matrix(-0.99992 0.0126876 -0.0127202 -0.999919 1201.58 46.5577)" fill="black"/>
<rect width="19.4686" height="26.0083" rx="2" transform="matrix(-0.99992 0.0126876 -0.0127202 -0.999919 157.598 60.8212)" fill="black"/>
<rect width="19.4686" height="26.0083" rx="2" transform="matrix(-0.99992 0.0126876 -0.0127202 -0.999919 254.82 59.5114)" fill="black"/>
<rect width="19.4686" height="26.0083" rx="2" transform="matrix(-0.99992 0.0126876 -0.0127202 -0.999919 352.042 58.2021)" fill="black"/>
<rect width="19.4686" height="26.0083" rx="2" transform="matrix(-0.99992 0.0126876 -0.0127202 -0.999919 449.264 56.8922)" fill="black"/>
<rect width="19.4686" height="26.0083" rx="2" transform="matrix(-0.99992 0.0126876 -0.0127202 -0.999919 546.485 55.5831)" fill="black"/>
<rect width="19.4686" height="26.0083" rx="2" transform="matrix(-0.99992 0.0126876 -0.0127202 -0.999919 643.707 54.2734)" fill="black"/>
<rect width="19.4686" height="26.0083" rx="2" transform="matrix(-0.99992 0.0126876 -0.0127202 -0.999919 740.929 52.964)" fill="black"/>
<rect width="19.4686" height="26.0083" rx="2" transform="matrix(-0.99992 0.0126876 -0.0127202 -0.999919 838.151 51.6543)" fill="black"/>
<rect width="19.4686" height="26.0083" rx="2" transform="matrix(-0.99992 0.0126876 -0.0127202 -0.999919 935.373 50.345)" fill="black"/>
<rect width="19.4686" height="26.0083" rx="2" transform="matrix(-0.99992 0.0126876 -0.0127202 -0.999919 1032.59 49.0354)" fill="black"/>
<rect width="19.4686" height="26.0083" rx="2" transform="matrix(-0.99992 0.0126876 -0.0127202 -0.999919 181.903 60.494)" fill="black"/>
<rect width="19.4686" height="26.0083" rx="2" transform="matrix(-0.99992 0.0126876 -0.0127202 -0.999919 279.125 59.1842)" fill="black"/>
<rect width="19.4686" height="26.0083" rx="2" transform="matrix(-0.99992 0.0126876 -0.0127202 -0.999919 376.347 57.8741)" fill="black"/>
<rect width="19.4686" height="26.0083" rx="2" transform="matrix(-0.99992 0.0126876 -0.0127202 -0.999919 473.569 56.5653)" fill="black"/>
<rect width="19.4686" height="26.0083" rx="2" transform="matrix(-0.99992 0.0126876 -0.0127202 -0.999919 570.791 55.2552)" fill="black"/>
<rect width="19.4686" height="26.0083" rx="2" transform="matrix(-0.99992 0.0126876 -0.0127202 -0.999919 668.012 53.9462)" fill="black"/>
<rect width="19.4686" height="26.0083" rx="2" transform="matrix(-0.99992 0.0126876 -0.0127202 -0.999919 765.235 52.6365)" fill="black"/>
<rect width="19.4686" height="26.0083" rx="2" transform="matrix(-0.99992 0.0126876 -0.0127202 -0.999919 862.456 51.3271)" fill="black"/>
<rect width="19.4686" height="26.0083" rx="2" transform="matrix(-0.99992 0.0126876 -0.0127202 -0.999919 959.678 50.0173)" fill="black"/>
<rect width="19.4686" height="26.0083" rx="2" transform="matrix(-0.99992 0.0126876 -0.0127202 -0.999919 1056.9 48.708)" fill="black"/>
<rect width="19.4686" height="26.0083" rx="2" transform="matrix(-0.99992 0.0126876 -0.0127202 -0.999919 206.209 60.1663)" fill="black"/>
<rect width="19.4686" height="26.0083" rx="2" transform="matrix(-0.99992 0.0126876 -0.0127202 -0.999919 303.431 58.8571)" fill="black"/>
<rect width="19.4686" height="26.0083" rx="2" transform="matrix(-0.99992 0.0126876 -0.0127202 -0.999919 400.652 57.5472)" fill="black"/>
<rect width="19.4686" height="26.0083" rx="2" transform="matrix(-0.99992 0.0126876 -0.0127202 -0.999919 497.874 56.238)" fill="black"/>
<rect width="19.4686" height="26.0083" rx="2" transform="matrix(-0.99992 0.0126876 -0.0127202 -0.999919 595.096 54.9282)" fill="black"/>
<rect width="19.4686" height="26.0083" rx="2" transform="matrix(-0.99992 0.0126876 -0.0127202 -0.999919 692.318 53.6182)" fill="black"/>
<rect width="19.4686" height="26.0083" rx="2" transform="matrix(-0.99992 0.0126876 -0.0127202 -0.999919 789.54 52.3093)" fill="black"/>
<rect width="19.4686" height="26.0083" rx="2" transform="matrix(-0.99992 0.0126876 -0.0127202 -0.999919 886.762 50.9991)" fill="black"/>
<rect width="19.4686" height="26.0083" rx="2" transform="matrix(-0.99992 0.0126876 -0.0127202 -0.999919 983.984 49.6902)" fill="black"/>
<rect width="19.4686" height="26.0083" rx="2" transform="matrix(-0.99992 0.0126876 -0.0127202 -0.999919 1081.21 48.3802)" fill="black"/>
<rect width="19.4686" height="26.0083" rx="2" transform="matrix(-0.99992 0.0126876 -0.0127202 -0.999919 230.514 59.8391)" fill="black"/>
<rect width="19.4686" height="26.0083" rx="2" transform="matrix(-0.99992 0.0126876 -0.0127202 -0.999919 327.736 58.5292)" fill="black"/>
<rect width="19.4686" height="26.0083" rx="2" transform="matrix(-0.99992 0.0126876 -0.0127202 -0.999919 424.958 57.22)" fill="black"/>
<rect width="19.4686" height="26.0083" rx="2" transform="matrix(-0.99992 0.0126876 -0.0127202 -0.999919 522.18 55.9104)" fill="black"/>
<rect width="19.4686" height="26.0083" rx="2" transform="matrix(-0.99992 0.0126876 -0.0127202 -0.999919 619.402 54.601)" fill="black"/>
<rect width="19.4686" height="26.0083" rx="2" transform="matrix(-0.99992 0.0126876 -0.0127202 -0.999919 716.624 53.2914)" fill="black"/>
<rect width="19.4686" height="26.0083" rx="2" transform="matrix(-0.99992 0.0126876 -0.0127202 -0.999919 813.845 51.9821)" fill="black"/>
<rect width="19.4686" height="26.0083" rx="2" transform="matrix(-0.99992 0.0126876 -0.0127202 -0.999919 911.068 50.6722)" fill="black"/>
<rect width="19.4686" height="26.0083" rx="2" transform="matrix(-0.99992 0.0126876 -0.0127202 -0.999919 1008.29 49.3632)" fill="black"/>
<rect width="19.4686" height="26.0083" rx="2" transform="matrix(-0.99992 0.0126876 -0.0127202 -0.999919 1105.51 48.0532)" fill="black"/>
<rect width="19.4686" height="26.0083" rx="2" transform="matrix(-0.99992 0.0126876 -0.0127202 -0.999919 60.3757 62.1302)" fill="black"/>
<rect width="19.4686" height="26.0083" rx="2" transform="matrix(-0.99992 0.0126876 -0.0127202 -0.999919 84.6813 61.8032)" fill="black"/>
<rect width="19.4686" height="26.0083" rx="2" transform="matrix(-0.99992 0.0126876 -0.0127202 -0.999919 108.987 61.4762)" fill="black"/>
<rect width="19.4686" height="26.0083" rx="2" transform="matrix(-0.99992 0.0126876 -0.0127202 -0.999919 133.292 61.1482)" fill="black"/>
<rect x="2.86865" y="246.207" width="178.555" height="228.563" transform="rotate(-90.7717 2.86865 246.207)" fill="black"/>
<rect x="251.577" y="242.856" width="178.555" height="228.563" transform="rotate(-90.7717 251.577 242.856)" fill="black"/>
<rect x="500.285" y="239.507" width="178.555" height="228.563" transform="rotate(-90.7717 500.285 239.507)" fill="black"/>
<rect x="748.993" y="236.157" width="178.555" height="228.563" transform="rotate(-90.7717 748.993 236.157)" fill="black"/>
<rect x="997.701" y="232.807" width="178.555" height="228.563" transform="rotate(-90.7717 997.701 232.807)" fill="black"/>
<rect x="1247.63" y="229.166" width="178.555" height="228.563" transform="rotate(-90.7717 1247.63 229.166)" fill="black"/>
<rect x="1496.34" y="225.817" width="178.555" height="228.563" transform="rotate(-90.7717 1496.34 225.817)" fill="black"/>
<rect x="1745.05" y="222.467" width="178.555" height="228.563" transform="rotate(-90.7717 1745.05 222.467)" fill="black"/>
<rect x="1993.76" y="219.117" width="178.555" height="228.563" transform="rotate(-90.7717 1993.76 219.117)" fill="black"/>
<rect x="2242.47" y="215.767" width="178.555" height="228.563" transform="rotate(-90.7717 2242.47 215.767)" fill="black"/>
</svg>
