<svg width="996" height="626" viewBox="0 0 996 626" fill="none" xmlns="http://www.w3.org/2000/svg">
<path fill-rule="evenodd" clip-rule="evenodd" d="M498.102 564.434C498.255 564.431 498.402 564.434 498.543 564.44V564.442C498.716 564.452 498.878 564.468 499.029 564.491C499.12 564.505 499.209 564.526 499.293 564.555C502.617 565.128 507.481 567.871 509.749 575.934C511.488 582.115 509.368 586.714 506.082 589.949C504.749 591.262 503.224 592.353 501.692 593.257C502.203 593.424 502.73 593.599 503.27 593.779L503.273 593.78C509.355 595.799 517.22 598.41 525.71 597.363C529.49 596.896 532.012 595.005 533.635 591.913C535.309 588.725 536.052 584.19 535.942 578.507L535.942 578.49C533.603 578.412 531.774 578.168 530.498 577.999C530.066 577.941 529.697 577.892 529.393 577.86C527.345 577.649 524.79 576.429 522.917 574.9C521.967 574.124 521.091 573.189 520.54 572.145C519.982 571.086 519.702 569.79 520.219 568.482C520.541 567.664 521.209 567.08 521.858 566.682C522.535 566.269 523.353 565.956 524.229 565.746C525.979 565.327 528.148 565.275 530.286 565.83C532.439 566.389 534.604 567.576 536.245 569.669C537.424 571.174 538.285 573.086 538.704 575.451C538.765 575.449 538.826 575.447 538.887 575.445C543.349 575.292 549.354 574.401 557.029 571.57C562.361 569.603 569.637 569.058 576.09 569.136C582.553 569.214 588.454 569.924 591.117 570.611C593.915 571.333 596.47 572.362 598.418 573.579C600.276 574.739 601.942 576.296 602.281 578.212C602.428 579.04 602.372 580.39 601.458 581.608C600.545 582.826 599.908 583.308 597.168 583.612C594.428 583.612 593.239 582.826 591.117 580.872C590.697 580.485 590.209 579.977 589.651 579.397L589.65 579.396C588.135 577.82 586.101 575.705 583.498 573.998C582.867 573.733 582.39 573.504 581.978 573.306C580.343 572.522 579.74 572.232 574.67 572.171C568.312 572.094 562.876 572.658 558.082 574.426C550.107 577.367 543.782 578.323 538.991 578.487L538.987 578.488C539.096 584.368 538.346 589.488 536.331 593.328C534.26 597.274 530.887 599.791 526.083 600.384C516.868 601.521 508.351 598.682 502.32 596.672L502.319 596.672C501.672 596.456 501.053 596.25 500.464 596.059L500.434 596.049L500.404 596.038C499.747 595.794 499.013 595.506 498.233 595.17V595.153C498.189 595.134 498.146 595.116 498.102 595.097C497.259 595.465 496.466 595.777 495.763 596.038L495.733 596.049L495.702 596.059C495.114 596.25 494.495 596.456 493.847 596.672C487.816 598.682 479.298 601.521 470.084 600.384C465.28 599.791 461.907 597.274 459.836 593.328C457.82 589.488 457.07 584.368 457.18 578.488L457.175 578.487C452.384 578.323 446.06 577.368 438.084 574.426C433.29 572.658 427.855 572.094 421.497 572.171C416.426 572.232 415.823 572.522 414.189 573.306L414.189 573.306C413.777 573.504 413.299 573.733 412.668 573.998C410.066 575.705 408.032 577.821 406.516 579.396L406.516 579.396C405.958 579.977 405.47 580.485 405.049 580.872C402.927 582.826 401.738 583.613 398.999 583.613C396.259 583.308 395.621 582.826 394.708 581.608C393.941 580.586 393.779 579.47 393.833 578.649C393.817 578.507 393.821 578.36 393.847 578.212C393.904 577.892 393.997 577.582 394.122 577.283V577.377C394.727 575.839 396.168 574.566 397.748 573.579C399.697 572.362 402.252 571.333 405.049 570.611C407.713 569.924 413.613 569.214 420.076 569.136C426.529 569.058 433.806 569.603 439.138 571.57C446.813 574.401 452.817 575.292 457.28 575.445C457.341 575.447 457.402 575.449 457.462 575.451C457.881 573.086 458.742 571.174 459.922 569.669C461.562 567.576 463.727 566.389 465.881 565.83C468.019 565.275 470.187 565.327 471.938 565.746C472.813 565.956 473.632 566.269 474.308 566.683C474.958 567.08 475.625 567.664 475.948 568.482C476.464 569.79 476.185 571.086 475.626 572.145C475.076 573.189 474.2 574.124 473.25 574.9C471.377 576.429 468.822 577.649 466.773 577.861C466.47 577.892 466.101 577.941 465.668 577.999L465.668 577.999C464.393 578.168 462.564 578.412 460.225 578.49L460.224 578.507C460.115 584.19 460.858 588.725 462.531 591.914C464.154 595.006 466.677 596.896 470.457 597.363C478.946 598.41 486.811 595.799 492.894 593.78L492.896 593.779C493.437 593.599 493.963 593.424 494.475 593.257C492.943 592.354 491.417 591.262 490.084 589.949C486.799 586.714 484.679 582.115 486.417 575.934C488.685 567.871 493.55 565.128 496.873 564.555C496.958 564.526 497.046 564.505 497.138 564.491C497.421 564.449 497.745 564.428 498.102 564.434ZM498.233 591.683V591.664C500.217 590.689 502.283 589.418 503.946 587.78C506.585 585.181 508.206 581.69 506.819 576.759C504.676 569.14 500.174 567.632 498.233 567.49V567.487C498.188 567.484 498.144 567.482 498.102 567.48C496.266 567.546 491.555 568.91 489.348 576.759C487.961 581.69 489.581 585.181 492.22 587.78C493.931 589.464 496.067 590.761 498.102 591.746C498.146 591.725 498.189 591.704 498.233 591.683ZM465.184 574.99C463.996 575.148 462.481 575.348 460.569 575.431C460.936 573.771 461.566 572.506 462.318 571.547C463.481 570.063 465.027 569.196 466.645 568.777C468.278 568.353 469.94 568.398 471.229 568.707C471.873 568.861 472.377 569.07 472.719 569.279C473.007 569.455 473.099 569.58 473.116 569.604L473.119 569.607L473.12 569.608C473.209 569.842 473.218 570.185 472.934 570.725C472.638 571.286 472.087 571.92 471.325 572.542C469.773 573.808 467.761 574.698 466.461 574.832C466.086 574.871 465.661 574.927 465.184 574.99ZM530.983 574.99C532.17 575.147 533.686 575.348 535.598 575.431C535.23 573.771 534.6 572.506 533.849 571.547C532.686 570.063 531.139 569.196 529.521 568.777C527.888 568.353 526.226 568.398 524.937 568.707C524.293 568.861 523.789 569.07 523.448 569.279C523.16 569.455 523.068 569.58 523.05 569.604L523.048 569.607L523.047 569.608C522.958 569.842 522.948 570.185 523.233 570.725C523.529 571.286 524.08 571.92 524.842 572.542C526.394 573.808 528.405 574.698 529.705 574.832C530.081 574.871 530.505 574.927 530.983 574.99Z" fill="white"/>
<path fill-rule="evenodd" clip-rule="evenodd" d="M50.5603 57.5605C50.5603 53.6946 53.6943 50.5605 57.5603 50.5605H937.479C941.345 50.5605 944.479 53.6946 944.479 57.5605V570.433C944.479 574.299 941.345 577.433 937.479 577.433H615.455C614.074 577.433 612.955 578.553 612.955 579.933V579.933C612.955 581.314 614.074 582.433 615.455 582.433H944.479V582.433C947.24 582.433 949.479 580.195 949.479 577.433V577.433V50.5605V50.5605C949.479 47.7991 947.24 45.5605 944.479 45.5605V45.5605H50.5603V45.5605C47.7989 45.5605 45.5603 47.7991 45.5603 50.5605V50.5605V577.433V577.433C45.5603 580.195 47.7989 582.433 50.5603 582.433V582.433H379.584C380.965 582.433 382.084 581.314 382.084 579.933V579.933C382.084 578.553 380.965 577.433 379.584 577.433H57.5603C53.6943 577.433 50.5603 574.299 50.5603 570.433V57.5605Z" fill="white"/>
<path d="M203.659 8.36734C209.152 8.74672 213.973 9.54142 216.269 10.2253C218.96 11.0269 221.405 12.1183 223.254 13.3701C224.753 14.3853 226.107 15.674 226.639 17.1891L226.642 17.0977C226.753 17.3932 226.833 17.6976 226.877 18.0103C226.897 18.1548 226.895 18.2974 226.875 18.4347C226.898 19.2347 226.7 20.3127 225.918 21.278C224.988 22.4279 224.351 22.8736 221.679 23.071C219.018 22.9726 217.891 22.1656 215.9 20.1914C215.506 19.8006 215.05 19.2901 214.529 18.7058C213.113 17.121 211.214 14.9934 208.747 13.2412C208.143 12.9613 207.688 12.7217 207.295 12.5149C206.187 11.9318 205.576 11.6103 203.548 11.3863L203.659 8.36734Z" fill="white"/>
<path d="M63.948 37.0288C61.9925 33.1677 60.7327 29.5046 60.4345 27.5786C60.085 25.3208 60.1266 23.0545 60.5796 21.0873C60.9471 19.4919 61.6465 17.8304 62.9186 16.5786L62.8268 16.6307C63.0719 16.3818 63.3389 16.1482 63.6295 15.9337C63.7639 15.8345 63.9055 15.7509 64.05 15.683C64.8309 15.1925 65.9805 14.6834 67.2664 14.6275C68.798 14.5607 69.5088 14.7175 70.8375 16.3691C71.8694 18.189 71.5495 19.4139 70.4428 21.9043C70.2238 22.3973 69.9125 23.0022 69.5562 23.6946C68.59 25.5725 67.2929 28.0934 66.6073 30.7668C66.5867 31.3324 66.543 31.7763 66.5054 32.1592C66.3992 33.2391 66.3406 33.8346 66.9797 35.31L63.948 37.0288Z" fill="white"/>
<path d="M116.064 30.0078C119.687 28.012 122.691 25.879 124.005 24.6108C125.545 23.1242 126.805 21.4739 127.594 19.8736C128.234 18.5757 128.67 17.0966 128.454 15.6822L128.491 15.7564C128.454 15.4784 128.393 15.2026 128.303 14.931C128.261 14.8056 128.206 14.6885 128.139 14.5815C127.849 13.9135 127.3 13.0833 126.394 12.525C125.315 11.8602 124.707 11.687 122.798 12.3424C121.01 13.2387 120.546 14.2504 119.935 16.4911C119.815 16.9346 119.697 17.496 119.563 18.1385C119.199 19.8811 118.71 22.2204 117.688 24.4234C117.382 24.8393 117.161 25.1768 116.97 25.468C116.433 26.2891 116.137 26.7419 114.831 27.5482L116.064 30.0078Z" fill="white"/>
<path fill-rule="evenodd" clip-rule="evenodd" d="M20.6007 21.0096C20.3503 16.3791 20.8576 12.6791 21.9879 9.7724C23.4182 6.09438 25.8199 3.76567 28.7098 2.51465C31.5395 1.2897 34.6909 1.15804 37.6134 1.55539C40.5468 1.95423 43.3797 2.90263 45.6785 3.98442L45.833 4.05711L45.9721 4.15616C47.6642 5.36142 49.3325 6.59119 50.9738 7.83611C54.0047 4.96291 58.6539 1.96472 64.4242 0.664932C71.4657 -0.921209 80.039 0.0565385 89.1433 6.60527C98.3992 13.263 101.275 22.531 99.7718 30.5001C98.8464 35.4067 96.2368 39.8482 92.4663 42.7693C92.7296 42.9184 92.9765 43.0463 93.2072 43.1527C95.0532 44.0045 97.273 44.6242 99.7077 45.0412C104.471 40.6322 109.836 35.7792 115.474 31.0392L115.452 31.0468C114.15 31.4804 112.663 31.6926 111.13 31.3416C109.569 30.9843 108.137 30.0829 106.913 28.589C103.544 24.4752 104.316 19.8093 106.183 16.1138C108.035 12.4485 111.124 9.32874 113.299 7.62949L113.322 7.61166L113.345 7.59454C116.408 5.34824 121.511 2.92083 126.859 3.1877C129.575 3.32325 132.351 4.15674 134.893 6.05262C137.016 7.63585 138.904 9.9059 140.46 12.9813C140.938 12.7092 141.415 12.4434 141.891 12.1843C147.718 9.00863 155.759 9.62567 162.334 12.398C163.345 12.8244 164.341 13.3103 165.304 13.8526C167.592 11.6579 170.779 9.88764 175.108 8.9526C186.666 6.45605 202.002 8.03854 208.112 8.92963C209.152 9.08119 209.871 10.0466 209.72 11.0858C209.568 12.1251 208.603 12.8447 207.564 12.6932C201.503 11.8094 186.752 10.3285 175.911 12.6702C172.67 13.3704 170.303 14.5805 168.578 16.0236C172.278 18.9068 175.02 22.7615 175.499 27.3486C175.758 29.8219 174.531 31.8126 173.044 33.0948C171.589 34.3494 169.65 35.1446 167.912 35.1527C166.063 35.1614 164.259 34.2226 162.93 32.9556C161.578 31.666 160.496 29.8297 160.304 27.7186C160.047 24.8994 160.441 20.936 162.591 17.2824C162.677 17.1365 162.766 16.9914 162.857 16.8471C162.214 16.5087 161.546 16.1931 160.856 15.9025C154.907 13.3941 148.164 13.0969 143.711 15.5239C143.129 15.8411 142.544 16.1687 141.957 16.5063C144.572 24.054 143.01 30.5811 139.878 35.6567C136.572 41.014 131.535 44.7485 127.871 46.5804L127.787 46.6226L127.698 46.6563C123.7 48.1811 117.195 49.2961 110.539 49.4924C107.369 49.5859 104.084 49.4738 100.955 49.072C99.9696 49.9881 99.0102 50.8839 98.08 51.7545C91.6347 57.7867 83.9882 61.4564 75.8559 61.7406C69.6056 61.9591 62.3747 60.0927 56.9998 56.1196L52.8664 52.486L49.063 48.6827C47.922 47.5417 46.781 46.781 44.8841 43.5821C42.1642 38.4423 41.4817 33.0742 41.9741 28.0728C42.6654 21.0523 45.6603 14.7645 48.4777 10.7165C46.9752 9.57959 45.4509 8.45664 43.9069 7.35477C41.924 6.43841 39.525 5.65364 37.101 5.32406C34.6037 4.98451 32.2086 5.14445 30.2208 6.00498C28.2931 6.83946 26.6062 8.39016 25.5327 11.1509C24.4354 13.9724 23.958 18.1246 24.6968 24.1084C24.7305 24.3815 24.7971 24.4745 24.7217 24.7217L20.6007 21.0096ZM138.613 18.5174C127.026 25.7787 114.817 36.3433 104.708 45.6067C106.578 45.7229 108.503 45.7475 110.427 45.6907C116.78 45.5033 122.778 44.4416 126.255 43.136C129.431 41.529 133.811 38.2448 136.641 33.6592C139.146 29.601 140.45 24.5218 138.613 18.5174ZM122.066 25.6645C127.065 21.7242 132.174 18.0267 137.182 14.9292C135.819 12.1617 134.241 10.3106 132.619 9.10139C130.747 7.70501 128.717 7.08848 126.669 6.98631C122.502 6.77838 118.261 8.71276 115.618 10.6445C113.737 12.1187 111.098 14.8196 109.578 17.8291C108.066 20.8203 107.823 23.6978 109.856 26.1791C110.611 27.1019 111.338 27.4875 111.979 27.6342C112.647 27.7873 113.403 27.7204 114.25 27.4384C116.003 26.8542 117.714 25.4987 118.916 24.4373C119.703 23.7421 120.905 23.8167 121.6 24.604C121.873 24.9123 122.027 25.2843 122.066 25.6645ZM95.9727 48.5178C96.081 48.4165 96.1897 48.3149 96.2988 48.2129C94.62 47.7947 93.0407 47.2646 91.6138 46.6062C90.7677 46.2158 89.8269 45.6502 88.8057 44.9454C87.4578 45.5325 86.0163 45.9485 84.496 46.1636C79.9442 46.8077 75.4096 46.674 71.5009 44.8297C67.5132 42.9481 64.4481 39.4163 62.6429 33.8364C62.3196 32.8372 62.8676 31.765 63.8668 31.4417C64.8661 31.1184 65.9382 31.6664 66.2615 32.6657C67.8032 37.4309 70.2487 40.0334 73.1239 41.3901C76.0781 42.784 79.7587 42.9927 83.9631 42.3978C84.3713 42.3401 84.7735 42.2629 85.1692 42.1671C84.7098 41.7906 84.2406 41.399 83.7624 40.9944C81.0665 38.7132 77.9429 35.8917 74.4906 32.7733C73.9689 32.302 73.4394 31.8238 72.903 31.3398C66.6748 25.7201 59.4237 19.2478 51.495 13.0398C49.0072 16.6624 46.3667 22.2759 45.7592 28.4455C45.0971 35.1697 46.8356 42.564 53.934 48.9526C61.2375 55.5257 68.7118 58.1846 75.7231 57.9396C82.7556 57.6938 89.5618 54.5175 95.4811 48.9776C95.644 48.8252 95.8078 48.6719 95.9727 48.5178ZM86.2192 38.091C87.2805 38.989 88.2515 39.7816 89.1328 40.4647C92.6294 38.2262 95.1749 34.3522 96.0343 29.7952C97.2567 23.3141 95.0098 15.5101 86.9224 9.69283C78.6836 3.76662 71.2195 3.03287 65.2599 4.3753C60.5063 5.44608 56.6229 7.85991 54.0275 10.1925C62.0062 16.4522 69.2727 22.9414 75.4509 28.516C75.9883 29.0009 76.517 29.4785 77.037 29.9481L77.043 29.9536C80.5028 33.0787 83.5742 35.8529 86.2192 38.091ZM171.717 27.7435C171.368 24.404 169.251 21.3139 166.068 18.8847C166 18.9933 165.933 19.1021 165.869 19.2112C164.216 22.0216 163.889 25.1436 164.092 27.3736C164.185 28.4002 164.736 29.4222 165.555 30.2035C166.398 31.0073 167.303 31.3522 167.894 31.3494C168.596 31.3461 169.685 30.9693 170.56 30.2145C171.403 29.4874 171.809 28.6312 171.717 27.7435Z" fill="white"/>
<path d="M8.36733 203.659C8.74672 209.152 9.54142 213.973 10.2253 216.269C11.0269 218.96 12.1182 221.405 13.3701 223.254C14.3853 224.753 15.674 226.107 17.1891 226.639L17.0977 226.642C17.3932 226.753 17.6975 226.833 18.0103 226.877C18.1548 226.897 18.2974 226.895 18.4347 226.875C19.2347 226.898 20.3127 226.7 21.278 225.918C22.4279 224.988 22.8736 224.351 23.0709 221.679C22.9726 219.018 22.1656 217.891 20.1914 215.9C19.8006 215.506 19.2901 215.05 18.7058 214.529C17.121 213.113 14.9934 211.214 13.2412 208.747C12.9613 208.143 12.7217 207.688 12.5149 207.295C11.9318 206.187 11.6103 205.576 11.3863 203.548L8.36733 203.659Z" fill="white"/>
<path d="M37.0288 63.948C33.1677 61.9925 29.5046 60.7327 27.5786 60.4345C25.3208 60.085 23.0545 60.1266 21.0873 60.5796C19.4919 60.9471 17.8304 61.6465 16.5786 62.9186L16.6307 62.8268C16.3818 63.0719 16.1482 63.3389 15.9337 63.6295C15.8345 63.7639 15.7509 63.9055 15.683 64.05C15.1925 64.8309 14.6834 65.9805 14.6275 67.2664C14.5607 68.798 14.7175 69.5088 16.3691 70.8375C18.189 71.8694 19.4139 71.5495 21.9043 70.4428C22.3973 70.2238 23.0022 69.9125 23.6946 69.5562C25.5725 68.59 28.0934 67.2929 30.7668 66.6073C31.3324 66.5867 31.7763 66.543 32.1592 66.5054C33.2391 66.3992 33.8346 66.3406 35.31 66.9797L37.0288 63.948Z" fill="white"/>
<path d="M30.0078 116.064C28.012 119.687 25.879 122.691 24.6108 124.005C23.1242 125.545 21.4739 126.805 19.8736 127.594C18.5757 128.234 17.0966 128.67 15.6822 128.454L15.7564 128.491C15.4784 128.454 15.2026 128.393 14.931 128.303C14.8056 128.261 14.6885 128.206 14.5815 128.139C13.9135 127.849 13.0833 127.3 12.525 126.394C11.8602 125.315 11.687 124.707 12.3424 122.798C13.2387 121.01 14.2504 120.546 16.491 119.935C16.9346 119.815 17.496 119.697 18.1384 119.563C19.8811 119.199 22.2204 118.71 24.4234 117.688C24.8393 117.382 25.1768 117.161 25.468 116.97C26.2891 116.433 26.7419 116.137 27.5482 114.831L30.0078 116.064Z" fill="white"/>
<path fill-rule="evenodd" clip-rule="evenodd" d="M21.0096 20.6007C16.3791 20.3503 12.6791 20.8576 9.7724 21.9879C6.09438 23.4182 3.76567 25.8199 2.51466 28.7098C1.2897 31.5395 1.15804 34.6909 1.5554 37.6134C1.95423 40.5468 2.90264 43.3797 3.98442 45.6785L4.05712 45.833L4.15616 45.972C5.36142 47.6642 6.59119 49.3325 7.83611 50.9738C4.96291 54.0047 1.96472 58.6539 0.664932 64.4242C-0.921209 71.4657 0.0565385 80.039 6.60527 89.1433C13.263 98.3992 22.531 101.275 30.5001 99.7718C35.4067 98.8464 39.8482 96.2368 42.7693 92.4663C42.9184 92.7296 43.0463 92.9765 43.1527 93.2072C44.0045 95.0532 44.6242 97.273 45.0412 99.7077C40.6322 104.471 35.7792 109.836 31.0392 115.474L31.0468 115.452C31.4804 114.15 31.6926 112.663 31.3416 111.13C30.9843 109.569 30.0829 108.137 28.589 106.913C24.4752 103.544 19.8093 104.316 16.1138 106.183C12.4485 108.035 9.32874 111.124 7.62949 113.299L7.61166 113.322L7.59454 113.345C5.34824 116.408 2.92083 121.511 3.1877 126.859C3.32324 129.575 4.15673 132.351 6.05262 134.893C7.63584 137.016 9.9059 138.904 12.9813 140.46C12.7092 140.938 12.4434 141.415 12.1843 141.891C9.00863 147.718 9.62567 155.759 12.398 162.334C12.8244 163.345 13.3103 164.341 13.8526 165.304C11.6579 167.592 9.88764 170.779 8.95259 175.108C6.45605 186.666 8.03854 202.002 8.92963 208.112C9.08119 209.152 10.0465 209.871 11.0858 209.72C12.1251 209.568 12.8447 208.603 12.6932 207.564C11.8094 201.503 10.3285 186.752 12.6702 175.911C13.3703 172.67 14.5805 170.303 16.0236 168.578C18.9068 172.278 22.7615 175.02 27.3486 175.499C29.8219 175.758 31.8126 174.531 33.0948 173.044C34.3494 171.589 35.1446 169.65 35.1527 167.912C35.1614 166.063 34.2226 164.259 32.9556 162.93C31.666 161.578 29.8297 160.496 27.7186 160.304C24.8994 160.047 20.936 160.441 17.2824 162.591C17.1365 162.677 16.9914 162.766 16.8471 162.857C16.5087 162.214 16.1931 161.546 15.9025 160.856C13.3941 154.907 13.0969 148.164 15.5239 143.711C15.841 143.129 16.1687 142.544 16.5063 141.957C24.054 144.572 30.5811 143.01 35.6567 139.878C41.014 136.572 44.7485 131.535 46.5804 127.871L46.6226 127.787L46.6563 127.698C48.181 123.7 49.2961 117.195 49.4924 110.539C49.5859 107.369 49.4738 104.084 49.072 100.955C49.9881 99.9696 50.8839 99.0102 51.7545 98.08C57.7867 91.6347 61.4564 83.9882 61.7406 75.8559C61.9591 69.6056 59.7124 61.614 56.1196 56.9998L52.486 52.8664L48.6827 49.063C47.5417 47.922 46.781 46.781 43.5821 44.8841C38.4423 42.1642 33.0742 41.4817 28.0728 41.9741C21.0523 42.6654 14.7645 45.6603 10.7165 48.4777C9.57959 46.9752 8.45664 45.4509 7.35477 43.9069C6.43841 41.924 5.65364 39.525 5.32406 37.101C4.98452 34.6037 5.14445 32.2086 6.00499 30.2208C6.83947 28.2931 8.39016 26.6062 11.1509 25.5327C13.9724 24.4354 18.1246 23.958 24.1084 24.6968C24.3815 24.7305 24.4745 24.7971 24.7217 24.7217L21.0096 20.6007ZM18.5174 138.613C25.7787 127.026 36.3433 114.817 45.6067 104.708C45.7229 106.578 45.7475 108.503 45.6907 110.427C45.5033 116.78 44.4416 122.778 43.136 126.255C41.529 129.431 38.2448 133.811 33.6592 136.641C29.601 139.146 24.5218 140.45 18.5174 138.613ZM25.6645 122.066C21.7242 127.065 18.0267 132.174 14.9292 137.182C12.1617 135.819 10.3106 134.241 9.10139 132.619C7.70501 130.747 7.08848 128.717 6.98631 126.669C6.77838 122.502 8.71276 118.261 10.6445 115.618C12.1187 113.737 14.8196 111.098 17.8291 109.578C20.8203 108.066 23.6978 107.823 26.1791 109.856C27.1019 110.611 27.4875 111.338 27.6342 111.979C27.7873 112.647 27.7204 113.403 27.4384 114.25C26.8542 116.003 25.4987 117.714 24.4373 118.916C23.7421 119.703 23.8167 120.905 24.604 121.6C24.9123 121.873 25.2843 122.027 25.6645 122.066ZM48.5178 95.9727C48.4165 96.081 48.3149 96.1897 48.2129 96.2988C47.7947 94.62 47.2646 93.0407 46.6062 91.6138C46.2158 90.7677 45.6502 89.8269 44.9454 88.8057C45.5325 87.4578 45.9485 86.0163 46.1636 84.496C46.8077 79.9442 46.674 75.4096 44.8297 71.5009C42.9481 67.5132 39.4163 64.4481 33.8364 62.6429C32.8372 62.3196 31.765 62.8676 31.4417 63.8668C31.1184 64.8661 31.6664 65.9382 32.6657 66.2615C37.4309 67.8032 40.0334 70.2487 41.3901 73.1239C42.784 76.0781 42.9927 79.7587 42.3978 83.9631C42.3401 84.3713 42.2629 84.7735 42.1671 85.1692C41.7906 84.7098 41.399 84.2406 40.9944 83.7624C38.7132 81.0665 35.8917 77.9429 32.7733 74.4906C32.302 73.9689 31.8238 73.4394 31.3398 72.903C25.7201 66.6748 19.2478 59.4237 13.0398 51.495C16.6624 49.0072 22.2759 46.3667 28.4455 45.7592C35.1697 45.0971 42.564 46.8356 48.9526 53.934C55.5257 61.2375 58.1846 68.7118 57.9396 75.7231C57.6938 82.7556 54.5175 89.5618 48.9776 95.4811C48.8252 95.644 48.6719 95.8078 48.5178 95.9727ZM38.091 86.2192C38.989 87.2805 39.7816 88.2515 40.4647 89.1328C38.2262 92.6294 34.3522 95.1749 29.7952 96.0343C23.3141 97.2567 15.5101 95.0098 9.69283 86.9224C3.76662 78.6836 3.03287 71.2195 4.3753 65.2599C5.44608 60.5063 7.85991 56.6229 10.1925 54.0275C16.4522 62.0062 22.9414 69.2727 28.516 75.4509C29.0009 75.9883 29.4785 76.517 29.9481 77.037L29.9536 77.043C33.0787 80.5028 35.8529 83.5742 38.091 86.2192ZM27.7435 171.717C24.404 171.368 21.3139 169.251 18.8847 166.068C18.9933 166 19.1021 165.933 19.2112 165.869C22.0216 164.216 25.1436 163.889 27.3736 164.092C28.4002 164.185 29.4222 164.736 30.2035 165.555C31.0073 166.398 31.3522 167.303 31.3494 167.894C31.3461 168.596 30.9693 169.685 30.2145 170.56C29.4874 171.403 28.6312 171.809 27.7435 171.717Z" fill="white"/>
<path d="M792.291 8.36734C786.799 8.74672 781.978 9.54142 779.682 10.2253C776.99 11.0269 774.546 12.1183 772.697 13.3701C771.197 14.3853 769.843 15.674 769.312 17.1891L769.308 17.0977C769.197 17.3932 769.117 17.6976 769.074 18.0103C769.054 18.1548 769.055 18.2974 769.076 18.4347C769.053 19.2347 769.251 20.3127 770.032 21.278C770.963 22.4279 771.599 22.8736 774.271 23.071C776.933 22.9726 778.059 22.1656 780.05 20.1914C780.444 19.8006 780.9 19.2901 781.422 18.7058C782.837 17.121 784.737 14.9934 787.204 13.2412C787.807 12.9613 788.263 12.7217 788.656 12.5149C789.764 11.9318 790.375 11.6103 792.403 11.3863L792.291 8.36734Z" fill="white"/>
<path d="M932.002 37.0288C933.958 33.1677 935.218 29.5046 935.516 27.5786C935.865 25.3208 935.824 23.0545 935.371 21.0873C935.003 19.4919 934.304 17.8304 933.032 16.5786L933.124 16.6307C932.879 16.3818 932.612 16.1482 932.321 15.9337C932.187 15.8345 932.045 15.7509 931.9 15.683C931.12 15.1925 929.97 14.6834 928.684 14.6275C927.152 14.5607 926.442 14.7175 925.113 16.3691C924.081 18.189 924.401 19.4139 925.508 21.9043C925.727 22.3973 926.038 23.0022 926.394 23.6946C927.36 25.5725 928.658 28.0934 929.343 30.7668C929.364 31.3324 929.407 31.7763 929.445 32.1592C929.551 33.2391 929.61 33.8346 928.971 35.31L932.002 37.0288Z" fill="white"/>
<path d="M879.887 30.0078C876.263 28.012 873.259 25.879 871.945 24.6108C870.405 23.1242 869.146 21.4739 868.357 19.8736C867.716 18.5757 867.281 17.0966 867.496 15.6822L867.459 15.7564C867.496 15.4784 867.558 15.2026 867.648 14.931C867.689 14.8056 867.745 14.6885 867.811 14.5815C868.102 13.9135 868.65 13.0833 869.556 12.525C870.636 11.8602 871.243 11.687 873.152 12.3424C874.941 13.2387 875.405 14.2504 876.015 16.4911C876.136 16.9346 876.253 17.496 876.387 18.1385C876.752 19.8811 877.24 22.2204 878.262 24.4234C878.569 24.8393 878.79 25.1768 878.98 25.468C879.517 26.2891 879.814 26.7419 881.12 27.5482L879.887 30.0078Z" fill="white"/>
<path fill-rule="evenodd" clip-rule="evenodd" d="M975.35 21.0096C975.6 16.3791 975.093 12.6791 973.963 9.7724C972.532 6.09438 970.131 3.76567 967.241 2.51465C964.411 1.2897 961.26 1.15804 958.337 1.55539C955.404 1.95423 952.571 2.90263 950.272 3.98442L950.117 4.05711L949.978 4.15616C948.286 5.36142 946.618 6.59119 944.977 7.83611C941.946 4.96291 937.297 1.96472 931.526 0.664932C924.485 -0.921209 915.911 0.0565385 906.807 6.60527C897.551 13.263 894.676 22.531 896.179 30.5001C897.104 35.4067 899.714 39.8482 903.484 42.7693C903.221 42.9184 902.974 43.0463 902.743 43.1527C900.897 44.0045 898.677 44.6242 896.243 45.0412C891.479 40.6322 886.114 35.7792 880.476 31.0392L880.499 31.0468C881.8 31.4804 883.288 31.6926 884.821 31.3416C886.381 30.9843 887.814 30.0829 889.037 28.589C892.406 24.4752 891.635 19.8093 889.767 16.1138C887.915 12.4485 884.826 9.32874 882.651 7.62949L882.629 7.61166L882.605 7.59454C879.542 5.34824 874.44 2.92083 869.092 3.1877C866.375 3.32325 863.599 4.15674 861.057 6.05262C858.934 7.63585 857.047 9.9059 855.491 12.9813C855.012 12.7092 854.535 12.4434 854.059 12.1843C848.232 9.00863 840.191 9.62567 833.616 12.398C832.605 12.8244 831.61 13.3103 830.646 13.8526C828.358 11.6579 825.171 9.88764 820.842 8.9526C809.285 6.45605 793.948 8.03854 787.838 8.92963C786.799 9.08119 786.079 10.0466 786.231 11.0858C786.382 12.1251 787.348 12.8447 788.387 12.6932C794.447 11.8094 809.198 10.3285 820.039 12.6702C823.281 13.3704 825.647 14.5805 827.373 16.0236C823.673 18.9068 820.93 22.7615 820.451 27.3486C820.193 29.8219 821.42 31.8126 822.907 33.0948C824.362 34.3494 826.3 35.1446 828.039 35.1527C829.887 35.1614 831.692 34.2226 833.02 32.9556C834.372 31.666 835.454 29.8297 835.646 27.7186C835.903 24.8994 835.509 20.936 833.359 17.2824C833.273 17.1365 833.185 16.9914 833.094 16.8471C833.737 16.5087 834.405 16.1931 835.094 15.9025C841.043 13.3941 847.786 13.0969 852.239 15.5239C852.822 15.8411 853.406 16.1687 853.993 16.5063C851.378 24.054 852.94 30.5811 856.072 35.6567C859.379 41.014 864.415 44.7485 868.079 46.5804L868.164 46.6226L868.252 46.6563C872.25 48.1811 878.756 49.2961 885.412 49.4924C888.582 49.5859 891.867 49.4738 894.995 49.072C895.981 49.9881 896.94 50.8839 897.87 51.7545C904.316 57.7867 911.962 61.4564 920.095 61.7406C926.345 61.9591 933.576 60.0927 938.951 56.1196L943.084 52.486L946.887 48.6827C948.028 47.5417 949.169 46.781 951.066 43.5821C953.786 38.4423 954.469 33.0742 953.976 28.0728C953.285 21.0523 950.29 14.7645 947.473 10.7165C948.975 9.57959 950.5 8.45664 952.044 7.35477C954.026 6.43841 956.425 5.65364 958.849 5.32406C961.347 4.98451 963.742 5.14445 965.73 6.00498C967.657 6.83946 969.344 8.39016 970.418 11.1509C971.515 13.9724 971.992 18.1246 971.254 24.1084C971.22 24.3815 971.153 24.4745 971.229 24.7217L975.35 21.0096ZM857.337 18.5174C868.925 25.7787 881.134 36.3433 891.242 45.6067C889.373 45.7229 887.448 45.7475 885.524 45.6907C879.171 45.5033 873.173 44.4416 869.695 43.136C866.52 41.529 862.139 38.2448 859.309 33.6592C856.805 29.601 855.5 24.5218 857.337 18.5174ZM873.884 25.6645C868.885 21.7242 863.777 18.0267 858.769 14.9292C860.131 12.1617 861.71 10.3106 863.331 9.10139C865.203 7.70501 867.234 7.08848 869.281 6.98631C873.448 6.77838 877.689 8.71276 880.333 10.6445C882.213 12.1187 884.852 14.8196 886.373 17.8291C887.884 20.8203 888.127 23.6978 886.095 26.1791C885.339 27.1019 884.613 27.4875 883.972 27.6342C883.303 27.7873 882.547 27.7204 881.701 27.4384C879.947 26.8542 878.236 25.4987 877.034 24.4373C876.247 23.7421 875.045 23.8167 874.35 24.604C874.078 24.9123 873.924 25.2843 873.884 25.6645ZM899.978 48.5178C899.869 48.4165 899.761 48.3149 899.652 48.2129C901.33 47.7947 902.91 47.2646 904.337 46.6062C905.183 46.2158 906.124 45.6502 907.145 44.9454C908.493 45.5325 909.934 45.9485 911.454 46.1636C916.006 46.8077 920.541 46.674 924.45 44.8297C928.437 42.9481 931.502 39.4163 933.308 33.8364C933.631 32.8372 933.083 31.765 932.084 31.4417C931.084 31.1184 930.012 31.6664 929.689 32.6657C928.147 37.4309 925.702 40.0334 922.827 41.3901C919.872 42.784 916.192 42.9927 911.987 42.3978C911.579 42.3401 911.177 42.2629 910.781 42.1671C911.241 41.7906 911.71 41.399 912.188 40.9944C914.884 38.7132 918.008 35.8917 921.46 32.7733C921.982 32.302 922.511 31.8238 923.047 31.3398C929.276 25.7201 936.527 19.2478 944.455 13.0398C946.943 16.6624 949.584 22.2759 950.191 28.4455C950.853 35.1697 949.115 42.564 942.016 48.9526C934.713 55.5257 927.239 58.1846 920.227 57.9396C913.195 57.6938 906.389 54.5175 900.469 48.9776C900.306 48.8252 900.143 48.6719 899.978 48.5178ZM909.731 38.091C908.67 38.989 907.699 39.7816 906.818 40.4647C903.321 38.2262 900.776 34.3522 899.916 29.7952C898.694 23.3141 900.941 15.5101 909.028 9.69283C917.267 3.76662 924.731 3.03287 930.69 4.3753C935.444 5.44608 939.328 7.85991 941.923 10.1925C933.944 16.4522 926.678 22.9414 920.5 28.516C919.962 29.0009 919.433 29.4785 918.913 29.9481L918.907 29.9536C915.448 33.0787 912.376 35.8529 909.731 38.091ZM824.234 27.7435C824.583 24.404 826.699 21.3139 829.882 18.8847C829.951 18.9933 830.017 19.1021 830.081 19.2112C831.735 22.0216 832.062 25.1436 831.859 27.3736C831.765 28.4002 831.214 29.4222 830.395 30.2035C829.552 31.0073 828.648 31.3522 828.056 31.3494C827.355 31.3461 826.266 30.9693 825.39 30.2145C824.547 29.4874 824.141 28.6312 824.234 27.7435Z" fill="white"/>
<path d="M987.583 203.659C987.204 209.152 986.409 213.973 985.725 216.269C984.924 218.96 983.832 221.405 982.58 223.254C981.565 224.753 980.276 226.107 978.761 226.639L978.853 226.642C978.557 226.753 978.253 226.833 977.94 226.877C977.796 226.897 977.653 226.895 977.516 226.875C976.716 226.898 975.638 226.7 974.672 225.918C973.523 224.988 973.077 224.351 972.879 221.679C972.978 219.018 973.785 217.891 975.759 215.9C976.15 215.506 976.66 215.05 977.245 214.529C978.829 213.113 980.957 211.214 982.709 208.747C982.989 208.143 983.229 207.688 983.436 207.295C984.019 206.187 984.34 205.576 984.564 203.548L987.583 203.659Z" fill="white"/>
<path d="M958.922 63.948C962.783 61.9925 966.446 60.7327 968.372 60.4345C970.63 60.085 972.896 60.1266 974.863 60.5796C976.459 60.9471 978.12 61.6465 979.372 62.9186L979.32 62.8268C979.569 63.0719 979.802 63.3389 980.017 63.6295C980.116 63.7639 980.2 63.9055 980.267 64.05C980.758 64.8309 981.267 65.9805 981.323 67.2664C981.39 68.798 981.233 69.5088 979.581 70.8375C977.761 71.8694 976.537 71.5495 974.046 70.4428C973.553 70.2238 972.948 69.9125 972.256 69.5562C970.378 68.59 967.857 67.2929 965.184 66.6073C964.618 66.5867 964.174 66.543 963.791 66.5054C962.711 66.3992 962.116 66.3406 960.64 66.9797L958.922 63.948Z" fill="white"/>
<path d="M965.943 116.064C967.938 119.687 970.071 122.691 971.34 124.005C972.826 125.545 974.477 126.805 976.077 127.594C977.375 128.234 978.854 128.67 980.268 128.454L980.194 128.491C980.472 128.454 980.748 128.393 981.019 128.303C981.145 128.261 981.262 128.206 981.369 128.139C982.037 127.849 982.867 127.3 983.425 126.394C984.09 125.315 984.263 124.707 983.608 122.798C982.712 121.01 981.7 120.546 979.459 119.935C979.016 119.815 978.454 119.697 977.812 119.563C976.069 119.199 973.73 118.71 971.527 117.688C971.111 117.382 970.774 117.161 970.482 116.97C969.661 116.433 969.209 116.137 968.402 114.831L965.943 116.064Z" fill="white"/>
<path fill-rule="evenodd" clip-rule="evenodd" d="M974.941 20.6007C979.571 20.3503 983.271 20.8576 986.178 21.9879C989.856 23.4182 992.185 25.8199 993.436 28.7098C994.661 31.5395 994.792 34.6909 994.395 37.6134C993.996 40.5468 993.048 43.3797 991.966 45.6785L991.893 45.833L991.794 45.972C990.589 47.6642 989.359 49.3325 988.114 50.9738C990.988 54.0047 993.986 58.6539 995.286 64.4242C996.872 71.4657 995.894 80.039 989.345 89.1433C982.687 98.3992 973.419 101.275 965.45 99.7718C960.544 98.8464 956.102 96.2368 953.181 92.4663C953.032 92.7296 952.904 92.9765 952.798 93.2072C951.946 95.0532 951.326 97.273 950.909 99.7077C955.318 104.471 960.171 109.836 964.911 115.474L964.904 115.452C964.47 114.15 964.258 112.663 964.609 111.13C964.966 109.569 965.868 108.137 967.361 106.913C971.475 103.544 976.141 104.316 979.837 106.183C983.502 108.035 986.622 111.124 988.321 113.299L988.339 113.322L988.356 113.345C990.602 116.408 993.03 121.511 992.763 126.859C992.627 129.575 991.794 132.351 989.898 134.893C988.315 137.016 986.045 138.904 982.969 140.46C983.241 140.938 983.507 141.415 983.766 141.891C986.942 147.718 986.325 155.759 983.552 162.334C983.126 163.345 982.64 164.341 982.098 165.304C984.293 167.592 986.063 170.779 986.998 175.108C989.494 186.666 987.912 202.002 987.021 208.112C986.869 209.152 985.904 209.871 984.865 209.72C983.825 209.568 983.106 208.603 983.257 207.564C984.141 201.503 985.622 186.752 983.28 175.911C982.58 172.67 981.37 170.303 979.927 168.578C977.044 172.278 973.189 175.02 968.602 175.499C966.129 175.758 964.138 174.531 962.856 173.044C961.601 171.589 960.806 169.65 960.798 167.912C960.789 166.063 961.728 164.259 962.995 162.93C964.284 161.578 966.121 160.496 968.232 160.304C971.051 160.047 975.014 160.441 978.668 162.591C978.814 162.677 978.959 162.766 979.103 162.857C979.442 162.214 979.757 161.546 980.048 160.856C982.556 154.907 982.854 148.164 980.427 143.711C980.109 143.129 979.782 142.544 979.444 141.957C971.896 144.572 965.369 143.01 960.294 139.878C954.936 136.572 951.202 131.535 949.37 127.871L949.328 127.787L949.294 127.698C947.769 123.7 946.654 117.195 946.458 110.539C946.365 107.369 946.477 104.084 946.878 100.955C945.962 99.9696 945.067 99.0102 944.196 98.08C938.164 91.6347 934.494 83.9882 934.21 75.8559C933.991 69.6056 936.238 61.614 939.831 56.9998L943.464 52.8664L947.268 49.063C948.409 47.922 949.169 46.781 952.368 44.8841C957.508 42.1642 962.876 41.4817 967.878 41.9741C974.898 42.6654 981.186 45.6603 985.234 48.4777C986.371 46.9752 987.494 45.4509 988.596 43.9069C989.512 41.924 990.297 39.525 990.626 37.101C990.966 34.6037 990.806 32.2086 989.945 30.2208C989.111 28.2931 987.56 26.6062 984.8 25.5327C981.978 24.4354 977.826 23.958 971.842 24.6968C971.569 24.7305 971.476 24.7971 971.229 24.7217L974.941 20.6007ZM977.433 138.613C970.172 127.026 959.607 114.817 950.344 104.708C950.228 106.578 950.203 108.503 950.26 110.427C950.447 116.78 951.509 122.778 952.814 126.255C954.421 129.431 957.706 133.811 962.291 136.641C966.349 139.146 971.429 140.45 977.433 138.613ZM970.286 122.066C974.226 127.065 977.924 132.174 981.021 137.182C983.789 135.819 985.64 134.241 986.849 132.619C988.245 130.747 988.862 128.717 988.964 126.669C989.172 122.502 987.238 118.261 985.306 115.618C983.832 113.737 981.131 111.098 978.121 109.578C975.13 108.066 972.253 107.823 969.771 109.856C968.849 110.611 968.463 111.338 968.316 111.979C968.163 112.647 968.23 113.403 968.512 114.25C969.096 116.003 970.452 117.714 971.513 118.916C972.208 119.703 972.134 120.905 971.346 121.6C971.038 121.873 970.666 122.027 970.286 122.066ZM947.433 95.9727C947.534 96.081 947.636 96.1897 947.738 96.2988C948.156 94.62 948.686 93.0407 949.344 91.6138C949.735 90.7677 950.3 89.8269 951.005 88.8057C950.418 87.4578 950.002 86.0163 949.787 84.496C949.143 79.9442 949.276 75.4096 951.121 71.5009C953.002 67.5132 956.534 64.4481 962.114 62.6429C963.113 62.3196 964.185 62.8676 964.509 63.8668C964.832 64.8661 964.284 65.9382 963.285 66.2615C958.519 67.8032 955.917 70.2487 954.56 73.1239C953.166 76.0781 952.958 79.7587 953.553 83.9631C953.61 84.3713 953.688 84.7735 953.783 85.1692C954.16 84.7098 954.551 84.2406 954.956 83.7624C957.237 81.0665 960.059 77.9429 963.177 74.4906C963.648 73.9689 964.127 73.4394 964.611 72.903C970.23 66.6748 976.703 59.4237 982.911 51.495C979.288 49.0072 973.675 46.3667 967.505 45.7592C960.781 45.0971 953.386 46.8356 946.998 53.934C940.425 61.2375 937.766 68.7118 938.011 75.7231C938.257 82.7556 941.433 89.5618 946.973 95.4811C947.125 95.644 947.279 95.8078 947.433 95.9727ZM957.859 86.2192C956.961 87.2805 956.169 88.2515 955.486 89.1328C957.724 92.6294 961.598 95.1749 966.155 96.0343C972.636 97.2567 980.44 95.0098 986.258 86.9224C992.184 78.6836 992.918 71.2195 991.575 65.2599C990.504 60.5063 988.091 56.6229 985.758 54.0275C979.498 62.0062 973.009 69.2727 967.434 75.4509C966.95 75.9883 966.472 76.517 966.002 77.037L965.997 77.043C962.872 80.5028 960.098 83.5742 957.859 86.2192ZM968.207 171.717C971.546 171.368 974.637 169.251 977.066 166.068C976.957 166 976.848 165.933 976.739 165.869C973.929 164.216 970.807 163.889 968.577 164.092C967.55 164.185 966.528 164.736 965.747 165.555C964.943 166.398 964.598 167.303 964.601 167.894C964.604 168.596 964.981 169.685 965.736 170.56C966.463 171.403 967.319 171.809 968.207 171.717Z" fill="white"/>
<path d="M792.291 617.633C786.799 617.253 781.978 616.459 779.682 615.775C776.99 614.973 774.546 613.882 772.697 612.63C771.197 611.615 769.843 610.326 769.312 608.811L769.308 608.902C769.197 608.607 769.117 608.302 769.074 607.99C769.054 607.845 769.055 607.703 769.076 607.565C769.053 606.765 769.251 605.687 770.032 604.722C770.963 603.572 771.599 603.126 774.271 602.929C776.933 603.027 778.059 603.834 780.05 605.809C780.444 606.199 780.9 606.71 781.422 607.294C782.837 608.879 784.737 611.007 787.204 612.759C787.807 613.039 788.263 613.278 788.656 613.485C789.764 614.068 790.375 614.39 792.403 614.614L792.291 617.633Z" fill="white"/>
<path d="M932.002 588.971C933.958 592.832 935.218 596.495 935.516 598.421C935.865 600.679 935.824 602.945 935.371 604.913C935.003 606.508 934.304 608.17 933.032 609.421L933.124 609.369C932.879 609.618 932.612 609.852 932.321 610.066C932.187 610.165 932.045 610.249 931.9 610.317C931.12 610.807 929.97 611.317 928.684 611.373C927.152 611.439 926.442 611.283 925.113 609.631C924.081 607.811 924.401 606.586 925.508 604.096C925.727 603.603 926.038 602.998 926.394 602.305C927.36 600.427 928.658 597.907 929.343 595.233C929.364 594.668 929.407 594.224 929.445 593.841C929.551 592.761 929.61 592.165 928.971 590.69L932.002 588.971Z" fill="white"/>
<path d="M879.887 595.992C876.263 597.988 873.259 600.121 871.945 601.389C870.405 602.876 869.146 604.526 868.357 606.126C867.716 607.424 867.281 608.903 867.496 610.318L867.459 610.244C867.496 610.522 867.558 610.797 867.648 611.069C867.689 611.194 867.745 611.311 867.811 611.418C868.102 612.086 868.65 612.917 869.556 613.475C870.636 614.14 871.243 614.313 873.152 613.658C874.941 612.761 875.405 611.75 876.015 609.509C876.136 609.065 876.253 608.504 876.387 607.862C876.752 606.119 877.24 603.78 878.262 601.577C878.569 601.161 878.79 600.823 878.98 600.532C879.517 599.711 879.814 599.258 881.12 598.452L879.887 595.992Z" fill="white"/>
<path fill-rule="evenodd" clip-rule="evenodd" d="M975.35 604.99C975.6 609.621 975.093 613.321 973.963 616.228C972.532 619.906 970.131 622.234 967.241 623.485C964.411 624.71 961.26 624.842 958.337 624.445C955.404 624.046 952.571 623.097 950.272 622.016L950.117 621.943L949.978 621.844C948.286 620.639 946.618 619.409 944.977 618.164C941.946 621.037 937.297 624.035 931.526 625.335C924.485 626.921 915.911 625.943 906.807 619.395C897.551 612.737 894.676 603.469 896.179 595.5C897.104 590.593 899.714 586.152 903.484 583.231C903.221 583.082 902.974 582.954 902.743 582.847C900.897 581.996 898.677 581.376 896.243 580.959C891.479 585.368 886.114 590.221 880.476 594.961L880.499 594.953C881.8 594.52 883.288 594.307 884.821 594.658C886.381 595.016 887.814 595.917 889.037 597.411C892.406 601.525 891.635 606.191 889.767 609.886C887.915 613.551 884.826 616.671 882.651 618.371L882.629 618.388L882.605 618.405C879.542 620.652 874.44 623.079 869.092 622.812C866.375 622.677 863.599 621.843 861.057 619.947C858.934 618.364 857.047 616.094 855.491 613.019C855.012 613.291 854.535 613.557 854.059 613.816C848.232 616.991 840.191 616.374 833.616 613.602C832.605 613.176 831.61 612.69 830.646 612.147C828.358 614.342 825.171 616.112 820.842 617.047C809.285 619.544 793.948 617.961 787.838 617.07C786.799 616.919 786.079 615.953 786.231 614.914C786.382 613.875 787.348 613.155 788.387 613.307C794.447 614.191 809.198 615.672 820.039 613.33C823.281 612.63 825.647 611.419 827.373 609.976C823.673 607.093 820.93 603.239 820.451 598.651C820.193 596.178 821.42 594.187 822.907 592.905C824.362 591.651 826.3 590.855 828.039 590.847C829.887 590.839 831.692 591.777 833.02 593.044C834.372 594.334 835.454 596.17 835.646 598.281C835.903 601.101 835.509 605.064 833.359 608.718C833.273 608.863 833.185 609.009 833.094 609.153C833.737 609.491 834.405 609.807 835.094 610.097C841.043 612.606 847.786 612.903 852.239 610.476C852.822 610.159 853.406 609.831 853.993 609.494C851.378 601.946 852.94 595.419 856.072 590.343C859.379 584.986 864.415 581.252 868.079 579.42L868.164 579.377L868.252 579.344C872.25 577.819 878.756 576.704 885.412 576.508C888.582 576.414 891.867 576.526 894.995 576.928C895.981 576.012 896.94 575.116 897.87 574.245C904.316 568.213 911.962 564.544 920.095 564.259C926.345 564.041 933.576 565.907 938.951 569.88L943.084 573.514L946.887 577.317C948.028 578.458 949.169 579.219 951.066 582.418C953.786 587.558 954.469 592.926 953.976 597.927C953.285 604.948 950.29 611.235 947.473 615.284C948.975 616.42 950.5 617.543 952.044 618.645C954.026 619.562 956.425 620.346 958.849 620.676C961.347 621.015 963.742 620.856 965.73 619.995C967.657 619.161 969.344 617.61 970.418 614.849C971.515 612.028 971.992 607.875 971.254 601.892C971.22 601.618 971.153 601.526 971.229 601.278L975.35 604.99ZM857.337 607.483C868.925 600.221 881.134 589.657 891.242 580.393C889.373 580.277 887.448 580.253 885.524 580.309C879.171 580.497 873.173 581.558 869.695 582.864C866.52 584.471 862.139 587.755 859.309 592.341C856.805 596.399 855.5 601.478 857.337 607.483ZM873.884 600.335C868.885 604.276 863.777 607.973 858.769 611.071C860.131 613.838 861.71 615.689 863.331 616.899C865.203 618.295 867.234 618.912 869.281 619.014C873.448 619.222 877.689 617.287 880.333 615.356C882.213 613.881 884.852 611.18 886.373 608.171C887.884 605.18 888.127 602.302 886.095 599.821C885.339 598.898 884.613 598.512 883.972 598.366C883.303 598.213 882.547 598.28 881.701 598.562C879.947 599.146 878.236 600.501 877.034 601.563C876.247 602.258 875.045 602.183 874.35 601.396C874.078 601.088 873.924 600.716 873.884 600.335ZM899.978 577.482C899.869 577.583 899.761 577.685 899.652 577.787C901.33 578.205 902.91 578.735 904.337 579.394C905.183 579.784 906.124 580.35 907.145 581.055C908.493 580.468 909.934 580.051 911.454 579.836C916.006 579.192 920.541 579.326 924.45 581.17C928.437 583.052 931.502 586.584 933.308 592.164C933.631 593.163 933.083 594.235 932.084 594.558C931.084 594.882 930.012 594.334 929.689 593.334C928.147 588.569 925.702 585.967 922.827 584.61C919.872 583.216 916.192 583.007 911.987 583.602C911.579 583.66 911.177 583.737 910.781 583.833C911.241 584.209 911.71 584.601 912.188 585.006C914.884 587.287 918.008 590.108 921.46 593.227C921.982 593.698 922.511 594.176 923.047 594.66C929.276 600.28 936.527 606.752 944.455 612.96C946.943 609.338 949.584 603.724 950.191 597.554C950.853 590.83 949.115 583.436 942.016 577.047C934.713 570.474 927.239 567.815 920.227 568.06C913.195 568.306 906.389 571.482 900.469 577.022C900.306 577.175 900.143 577.328 899.978 577.482ZM909.731 587.909C908.67 587.011 907.699 586.218 906.818 585.535C903.321 587.774 900.776 591.648 899.916 596.205C898.694 602.686 900.941 610.49 909.028 616.307C917.267 622.233 924.731 622.967 930.69 621.625C935.444 620.554 939.328 618.14 941.923 615.808C933.944 609.548 926.678 603.059 920.5 597.484C919.962 596.999 919.433 596.522 918.913 596.052L918.907 596.046C915.448 592.921 912.376 590.147 909.731 587.909ZM824.234 598.256C824.583 601.596 826.699 604.686 829.882 607.115C829.951 607.007 830.017 606.898 830.081 606.789C831.735 603.978 832.062 600.856 831.859 598.626C831.765 597.6 831.214 596.578 830.395 595.797C829.552 594.993 828.648 594.648 828.056 594.651C827.355 594.654 826.266 595.031 825.39 595.786C824.547 596.513 824.141 597.369 824.234 598.256Z" fill="white"/>
<path d="M987.583 422.341C987.204 416.848 986.409 412.027 985.725 409.731C984.924 407.04 983.832 404.595 982.58 402.746C981.565 401.247 980.276 399.893 978.761 399.361L978.853 399.358C978.557 399.247 978.253 399.167 977.94 399.123C977.796 399.103 977.653 399.105 977.516 399.125C976.716 399.102 975.638 399.3 974.672 400.082C973.523 401.012 973.077 401.649 972.879 404.321C972.978 406.982 973.785 408.109 975.759 410.1C976.15 410.494 976.66 410.95 977.245 411.471C978.829 412.887 980.957 414.786 982.709 417.253C982.989 417.857 983.229 418.312 983.436 418.705C984.019 419.813 984.34 420.424 984.564 422.452L987.583 422.341Z" fill="white"/>
<path d="M958.922 562.052C962.783 564.007 966.446 565.267 968.372 565.565C970.63 565.915 972.896 565.873 974.863 565.42C976.459 565.053 978.12 564.353 979.372 563.081L979.32 563.173C979.569 562.928 979.802 562.661 980.017 562.37C980.116 562.236 980.2 562.095 980.267 561.95C980.758 561.169 981.267 560.019 981.323 558.734C981.39 557.202 981.233 556.491 979.581 555.162C977.761 554.131 976.537 554.45 974.046 555.557C973.553 555.776 972.948 556.088 972.256 556.444C970.378 557.41 967.857 558.707 965.184 559.393C964.618 559.413 964.174 559.457 963.791 559.495C962.711 559.601 962.116 559.659 960.64 559.02L958.922 562.052Z" fill="white"/>
<path d="M965.943 509.936C967.938 506.313 970.071 503.309 971.34 501.995C972.826 500.455 974.477 499.195 976.077 498.406C977.375 497.766 978.854 497.33 980.268 497.546L980.194 497.509C980.472 497.546 980.748 497.607 981.019 497.697C981.145 497.739 981.262 497.794 981.369 497.861C982.037 498.151 982.867 498.7 983.425 499.606C984.09 500.685 984.263 501.293 983.608 503.202C982.712 504.99 981.7 505.454 979.459 506.065C979.016 506.185 978.454 506.303 977.812 506.437C976.069 506.801 973.73 507.29 971.527 508.312C971.111 508.618 970.774 508.839 970.482 509.03C969.661 509.567 969.209 509.863 968.402 511.169L965.943 509.936Z" fill="white"/>
<path fill-rule="evenodd" clip-rule="evenodd" d="M974.941 605.399C979.571 605.65 983.271 605.142 986.178 604.012C989.856 602.582 992.185 600.18 993.436 597.29C994.661 594.46 994.792 591.309 994.395 588.387C993.996 585.453 993.048 582.62 991.966 580.321L991.893 580.167L991.794 580.028C990.589 578.336 989.359 576.668 988.114 575.026C990.988 571.995 993.986 567.346 995.286 561.576C996.872 554.534 995.894 545.961 989.345 536.857C982.687 527.601 973.419 524.725 965.45 526.228C960.544 527.154 956.102 529.763 953.181 533.534C953.032 533.27 952.904 533.023 952.798 532.793C951.946 530.947 951.326 528.727 950.909 526.292C955.318 521.529 960.171 516.164 964.911 510.526L964.904 510.548C964.47 511.85 964.258 513.337 964.609 514.87C964.966 516.431 965.868 517.863 967.361 519.087C971.475 522.456 976.141 521.684 979.837 519.817C983.502 517.965 986.622 514.876 988.321 512.701L988.339 512.678L988.356 512.655C990.602 509.592 993.03 504.489 992.763 499.141C992.627 496.425 991.794 493.649 989.898 491.107C988.315 488.984 986.045 487.096 982.969 485.54C983.241 485.062 983.507 484.585 983.766 484.109C986.942 478.282 986.325 470.241 983.552 463.666C983.126 462.655 982.64 461.659 982.098 460.696C984.293 458.408 986.063 455.221 986.998 450.892C989.494 439.334 987.912 423.998 987.021 417.888C986.869 416.848 985.904 416.129 984.865 416.28C983.825 416.432 983.106 417.397 983.257 418.436C984.141 424.497 985.622 439.248 983.28 450.089C982.58 453.33 981.37 455.697 979.927 457.422C977.044 453.722 973.189 450.98 968.602 450.501C966.129 450.242 964.138 451.469 962.856 452.956C961.601 454.411 960.806 456.35 960.798 458.088C960.789 459.937 961.728 461.741 962.995 463.07C964.284 464.422 966.121 465.504 968.232 465.696C971.051 465.953 975.014 465.559 978.668 463.409C978.814 463.323 978.959 463.234 979.103 463.143C979.442 463.786 979.757 464.454 980.048 465.144C982.556 471.093 982.854 477.836 980.427 482.289C980.109 482.871 979.782 483.456 979.444 484.043C971.896 481.428 965.369 482.99 960.294 486.122C954.936 489.428 951.202 494.465 949.37 498.129L949.328 498.213L949.294 498.302C947.769 502.3 946.654 508.805 946.458 515.461C946.365 518.631 946.477 521.916 946.878 525.045C945.962 526.03 945.067 526.99 944.196 527.92C938.164 534.365 934.494 542.012 934.21 550.144C933.991 556.394 936.238 564.386 939.831 569L943.464 573.134L947.268 576.937C948.409 578.078 949.169 579.219 952.368 581.116C957.508 583.836 962.876 584.518 967.878 584.026C974.898 583.335 981.186 580.34 985.234 577.522C986.371 579.025 987.494 580.549 988.596 582.093C989.512 584.076 990.297 586.475 990.626 588.899C990.966 591.396 990.806 593.791 989.945 595.779C989.111 597.707 987.56 599.394 984.8 600.467C981.978 601.565 977.826 602.042 971.842 601.303C971.569 601.269 971.476 601.203 971.229 601.278L974.941 605.399ZM977.433 487.387C970.172 498.974 959.607 511.183 950.344 521.292C950.228 519.422 950.203 517.497 950.26 515.573C950.447 509.22 951.509 503.222 952.814 499.745C954.421 496.569 957.706 492.189 962.291 489.359C966.349 486.854 971.429 485.55 977.433 487.387ZM970.286 503.934C974.226 498.935 977.924 493.826 981.021 488.818C983.789 490.181 985.64 491.759 986.849 493.381C988.245 495.253 988.862 497.283 988.964 499.331C989.172 503.498 987.238 507.739 985.306 510.382C983.832 512.263 981.131 514.902 978.121 516.422C975.13 517.934 972.253 518.177 969.771 516.144C968.849 515.389 968.463 514.662 968.316 514.021C968.163 513.353 968.23 512.597 968.512 511.75C969.096 509.997 970.452 508.286 971.513 507.084C972.208 506.297 972.134 505.095 971.346 504.4C971.038 504.127 970.666 503.973 970.286 503.934ZM947.433 530.027C947.534 529.919 947.636 529.81 947.738 529.701C948.156 531.38 948.686 532.959 949.344 534.386C949.735 535.232 950.3 536.173 951.005 537.194C950.418 538.542 950.002 539.984 949.787 541.504C949.143 546.056 949.276 550.59 951.121 554.499C953.002 558.487 956.534 561.552 962.114 563.357C963.113 563.68 964.185 563.132 964.509 562.133C964.832 561.134 964.284 560.062 963.285 559.738C958.519 558.197 955.917 555.751 954.56 552.876C953.166 549.922 952.958 546.241 953.553 542.037C953.61 541.629 953.688 541.226 953.783 540.831C954.16 541.29 954.551 541.759 954.956 542.238C957.237 544.933 960.059 548.057 963.177 551.509C963.648 552.031 964.127 552.561 964.611 553.097C970.23 559.325 976.703 566.576 982.911 574.505C979.288 576.993 973.675 579.633 967.505 580.241C960.781 580.903 953.386 579.164 946.998 572.066C940.425 564.763 937.766 557.288 938.011 550.277C938.257 543.244 941.433 536.438 946.973 530.519C947.125 530.356 947.279 530.192 947.433 530.027ZM957.859 539.781C956.961 538.72 956.169 537.748 955.486 536.867C957.724 533.371 961.598 530.825 966.155 529.966C972.636 528.743 980.44 530.99 986.258 539.078C992.184 547.316 992.918 554.78 991.575 560.74C990.504 565.494 988.091 569.377 985.758 571.973C979.498 563.994 973.009 556.727 967.434 550.549C966.95 550.012 966.472 549.483 966.002 548.963L965.997 548.957C962.872 545.497 960.098 542.426 957.859 539.781ZM968.207 454.283C971.546 454.632 974.637 456.749 977.066 459.932C976.957 460 976.848 460.067 976.739 460.131C973.929 461.784 970.807 462.111 968.577 461.908C967.55 461.815 966.528 461.264 965.747 460.445C964.943 459.602 964.598 458.697 964.601 458.106C964.604 457.404 964.981 456.315 965.736 455.44C966.463 454.597 967.319 454.191 968.207 454.283Z" fill="white"/>
<path d="M203.659 617.633C209.152 617.253 213.973 616.459 216.269 615.775C218.96 614.973 221.405 613.882 223.254 612.63C224.753 611.615 226.107 610.326 226.639 608.811L226.642 608.902C226.753 608.607 226.833 608.302 226.877 607.99C226.897 607.845 226.895 607.703 226.875 607.565C226.898 606.765 226.7 605.687 225.918 604.722C224.988 603.572 224.351 603.126 221.679 602.929C219.018 603.027 217.891 603.834 215.9 605.809C215.506 606.199 215.05 606.71 214.529 607.294C213.113 608.879 211.214 611.007 208.747 612.759C208.143 613.039 207.688 613.278 207.295 613.485C206.187 614.068 205.576 614.39 203.548 614.614L203.659 617.633Z" fill="white"/>
<path d="M63.948 588.971C61.9925 592.832 60.7327 596.495 60.4345 598.421C60.085 600.679 60.1266 602.945 60.5796 604.913C60.9471 606.508 61.6465 608.17 62.9186 609.421L62.8268 609.369C63.0719 609.618 63.3389 609.852 63.6295 610.066C63.7639 610.165 63.9055 610.249 64.05 610.317C64.8309 610.807 65.9805 611.317 67.2664 611.373C68.798 611.439 69.5088 611.283 70.8375 609.631C71.8694 607.811 71.5495 606.586 70.4428 604.096C70.2238 603.603 69.9125 602.998 69.5562 602.305C68.59 600.427 67.2929 597.907 66.6073 595.233C66.5867 594.668 66.543 594.224 66.5054 593.841C66.3992 592.761 66.3406 592.165 66.9797 590.69L63.948 588.971Z" fill="white"/>
<path d="M116.064 595.992C119.687 597.988 122.691 600.121 124.005 601.389C125.545 602.876 126.805 604.526 127.594 606.126C128.234 607.424 128.67 608.903 128.454 610.318L128.491 610.244C128.454 610.522 128.393 610.797 128.303 611.069C128.261 611.194 128.206 611.311 128.139 611.418C127.849 612.086 127.3 612.917 126.394 613.475C125.315 614.14 124.707 614.313 122.798 613.658C121.01 612.761 120.546 611.75 119.935 609.509C119.815 609.065 119.697 608.504 119.563 607.862C119.199 606.119 118.71 603.78 117.688 601.577C117.382 601.161 117.161 600.823 116.97 600.532C116.433 599.711 116.137 599.258 114.831 598.452L116.064 595.992Z" fill="white"/>
<path fill-rule="evenodd" clip-rule="evenodd" d="M20.6007 604.99C20.3503 609.621 20.8576 613.321 21.9879 616.228C23.4182 619.906 25.8199 622.234 28.7098 623.485C31.5395 624.71 34.6909 624.842 37.6134 624.445C40.5468 624.046 43.3797 623.097 45.6785 622.016L45.833 621.943L45.9721 621.844C47.6642 620.639 49.3325 619.409 50.9738 618.164C54.0047 621.037 58.6539 624.035 64.4242 625.335C71.4657 626.921 80.039 625.943 89.1433 619.395C98.3992 612.737 101.275 603.469 99.7718 595.5C98.8464 590.593 96.2368 586.152 92.4663 583.231C92.7296 583.082 92.9765 582.954 93.2072 582.847C95.0532 581.996 97.273 581.376 99.7077 580.959C104.471 585.368 109.836 590.221 115.474 594.961L115.452 594.953C114.15 594.52 112.663 594.307 111.13 594.658C109.569 595.016 108.137 595.917 106.913 597.411C103.544 601.525 104.316 606.191 106.183 609.886C108.035 613.551 111.124 616.671 113.299 618.371L113.322 618.388L113.345 618.405C116.408 620.652 121.511 623.079 126.859 622.812C129.575 622.677 132.351 621.843 134.893 619.947C137.016 618.364 138.904 616.094 140.46 613.019C140.938 613.291 141.415 613.557 141.891 613.816C147.718 616.991 155.759 616.374 162.334 613.602C163.345 613.176 164.341 612.69 165.304 612.147C167.592 614.342 170.779 616.112 175.108 617.047C186.666 619.544 202.002 617.961 208.112 617.07C209.152 616.919 209.871 615.953 209.72 614.914C209.568 613.875 208.603 613.155 207.564 613.307C201.503 614.191 186.752 615.672 175.911 613.33C172.67 612.63 170.303 611.419 168.578 609.976C172.278 607.093 175.02 603.239 175.499 598.651C175.758 596.178 174.531 594.187 173.044 592.905C171.589 591.651 169.65 590.855 167.912 590.847C166.063 590.839 164.259 591.777 162.93 593.044C161.578 594.334 160.496 596.17 160.304 598.281C160.047 601.101 160.441 605.064 162.591 608.718C162.677 608.863 162.766 609.009 162.857 609.153C162.214 609.491 161.546 609.807 160.856 610.097C154.907 612.606 148.164 612.903 143.711 610.476C143.129 610.159 142.544 609.831 141.957 609.494C144.572 601.946 143.01 595.419 139.878 590.343C136.572 584.986 131.535 581.252 127.871 579.42L127.787 579.377L127.698 579.344C123.7 577.819 117.195 576.704 110.539 576.508C107.369 576.414 104.084 576.526 100.955 576.928C99.9696 576.012 99.0102 575.116 98.08 574.245C91.6347 568.213 83.9882 564.544 75.8559 564.259C69.6056 564.041 62.3747 565.907 56.9998 569.88L52.8664 573.514L49.063 577.317C47.922 578.458 46.781 579.219 44.8841 582.418C42.1642 587.558 41.4817 592.926 41.9741 597.927C42.6654 604.948 45.6603 611.235 48.4777 615.284C46.9752 616.42 45.4509 617.543 43.9069 618.645C41.924 619.562 39.525 620.346 37.101 620.676C34.6037 621.015 32.2086 620.856 30.2208 619.995C28.2931 619.161 26.6062 617.61 25.5327 614.849C24.4354 612.028 23.958 607.875 24.6968 601.892C24.7305 601.618 24.7971 601.526 24.7217 601.278L20.6007 604.99ZM138.613 607.483C127.026 600.221 114.817 589.657 104.708 580.393C106.578 580.277 108.503 580.253 110.427 580.309C116.78 580.497 122.778 581.558 126.255 582.864C129.431 584.471 133.811 587.755 136.641 592.341C139.146 596.399 140.45 601.478 138.613 607.483ZM122.066 600.335C127.065 604.276 132.174 607.973 137.182 611.071C135.819 613.838 134.241 615.689 132.619 616.899C130.747 618.295 128.717 618.912 126.669 619.014C122.502 619.222 118.261 617.287 115.618 615.356C113.737 613.881 111.098 611.18 109.578 608.171C108.066 605.18 107.823 602.302 109.856 599.821C110.611 598.898 111.338 598.512 111.979 598.366C112.647 598.213 113.403 598.28 114.25 598.562C116.003 599.146 117.714 600.501 118.916 601.563C119.703 602.258 120.905 602.183 121.6 601.396C121.873 601.088 122.027 600.716 122.066 600.335ZM95.9727 577.482C96.081 577.583 96.1897 577.685 96.2988 577.787C94.62 578.205 93.0407 578.735 91.6138 579.394C90.7677 579.784 89.8269 580.35 88.8057 581.055C87.4578 580.468 86.0163 580.051 84.496 579.836C79.9442 579.192 75.4096 579.326 71.5009 581.17C67.5132 583.052 64.4481 586.584 62.6429 592.164C62.3196 593.163 62.8676 594.235 63.8668 594.558C64.8661 594.882 65.9382 594.334 66.2615 593.334C67.8032 588.569 70.2487 585.967 73.1239 584.61C76.0781 583.216 79.7587 583.007 83.9631 583.602C84.3713 583.66 84.7735 583.737 85.1692 583.833C84.7098 584.209 84.2406 584.601 83.7624 585.006C81.0665 587.287 77.9429 590.108 74.4906 593.227C73.9689 593.698 73.4394 594.176 72.903 594.66C66.6748 600.28 59.4237 606.752 51.495 612.96C49.0072 609.338 46.3667 603.724 45.7592 597.554C45.0971 590.83 46.8356 583.436 53.934 577.047C61.2375 570.474 68.7118 567.815 75.7231 568.06C82.7556 568.306 89.5618 571.482 95.4811 577.022C95.644 577.175 95.8078 577.328 95.9727 577.482ZM86.2192 587.909C87.2805 587.011 88.2515 586.218 89.1328 585.535C92.6294 587.774 95.1749 591.648 96.0343 596.205C97.2567 602.686 95.0098 610.49 86.9224 616.307C78.6836 622.233 71.2195 622.967 65.2599 621.625C60.5063 620.554 56.6229 618.14 54.0275 615.808C62.0062 609.548 69.2727 603.059 75.4509 597.484C75.9883 596.999 76.517 596.522 77.037 596.052L77.043 596.046C80.5028 592.921 83.5742 590.147 86.2192 587.909ZM171.717 598.256C171.368 601.596 169.251 604.686 166.068 607.115C166 607.007 165.933 606.898 165.869 606.789C164.216 603.978 163.889 600.856 164.092 598.626C164.185 597.6 164.736 596.578 165.555 595.797C166.398 594.993 167.303 594.648 167.894 594.651C168.596 594.654 169.685 595.031 170.56 595.786C171.403 596.513 171.809 597.369 171.717 598.256Z" fill="white"/>
<path d="M8.36733 422.341C8.74672 416.848 9.54142 412.027 10.2253 409.731C11.0269 407.04 12.1182 404.595 13.3701 402.746C14.3853 401.247 15.674 399.893 17.1891 399.361L17.0977 399.358C17.3932 399.247 17.6975 399.167 18.0103 399.123C18.1548 399.103 18.2974 399.105 18.4347 399.125C19.2347 399.102 20.3127 399.3 21.278 400.082C22.4279 401.012 22.8736 401.649 23.0709 404.321C22.9726 406.982 22.1656 408.109 20.1914 410.1C19.8006 410.494 19.2901 410.95 18.7058 411.471C17.121 412.887 14.9934 414.786 13.2412 417.253C12.9613 417.857 12.7217 418.312 12.5149 418.705C11.9318 419.813 11.6103 420.424 11.3863 422.452L8.36733 422.341Z" fill="white"/>
<path d="M37.0288 562.052C33.1677 564.007 29.5046 565.267 27.5786 565.565C25.3208 565.915 23.0545 565.873 21.0873 565.42C19.4919 565.053 17.8304 564.353 16.5786 563.081L16.6307 563.173C16.3818 562.928 16.1482 562.661 15.9337 562.37C15.8345 562.236 15.7509 562.095 15.683 561.95C15.1925 561.169 14.6834 560.019 14.6275 558.734C14.5607 557.202 14.7175 556.491 16.3691 555.162C18.189 554.131 19.4139 554.45 21.9043 555.557C22.3973 555.776 23.0022 556.088 23.6946 556.444C25.5725 557.41 28.0934 558.707 30.7668 559.393C31.3324 559.413 31.7763 559.457 32.1592 559.495C33.2391 559.601 33.8346 559.659 35.31 559.02L37.0288 562.052Z" fill="white"/>
<path d="M30.0078 509.936C28.012 506.313 25.879 503.309 24.6108 501.995C23.1242 500.455 21.4739 499.195 19.8736 498.406C18.5757 497.766 17.0966 497.33 15.6822 497.546L15.7564 497.509C15.4784 497.546 15.2026 497.607 14.931 497.697C14.8056 497.739 14.6885 497.794 14.5815 497.861C13.9135 498.151 13.0833 498.7 12.525 499.606C11.8602 500.685 11.687 501.293 12.3424 503.202C13.2387 504.99 14.2504 505.454 16.491 506.065C16.9346 506.185 17.496 506.303 18.1384 506.437C19.8811 506.801 22.2204 507.29 24.4234 508.312C24.8393 508.618 25.1768 508.839 25.468 509.03C26.2891 509.567 26.7419 509.863 27.5482 511.169L30.0078 509.936Z" fill="white"/>
<path fill-rule="evenodd" clip-rule="evenodd" d="M21.0096 605.399C16.3791 605.65 12.6791 605.142 9.7724 604.012C6.09438 602.582 3.76567 600.18 2.51466 597.29C1.2897 594.46 1.15804 591.309 1.5554 588.387C1.95423 585.453 2.90264 582.62 3.98442 580.321L4.05712 580.167L4.15616 580.028C5.36142 578.336 6.59119 576.668 7.83611 575.026C4.96291 571.995 1.96472 567.346 0.664932 561.576C-0.921209 554.534 0.0565385 545.961 6.60527 536.857C13.263 527.601 22.531 524.725 30.5001 526.228C35.4067 527.154 39.8482 529.763 42.7693 533.534C42.9184 533.27 43.0463 533.023 43.1527 532.793C44.0045 530.947 44.6242 528.727 45.0412 526.292C40.6322 521.529 35.7792 516.164 31.0392 510.526L31.0468 510.548C31.4804 511.85 31.6926 513.337 31.3416 514.87C30.9843 516.431 30.0829 517.863 28.589 519.087C24.4752 522.456 19.8093 521.684 16.1138 519.817C12.4485 517.965 9.32874 514.876 7.62949 512.701L7.61166 512.678L7.59454 512.655C5.34824 509.592 2.92083 504.489 3.1877 499.141C3.32324 496.425 4.15673 493.649 6.05262 491.107C7.63584 488.984 9.9059 487.096 12.9813 485.54C12.7092 485.062 12.4434 484.585 12.1843 484.109C9.00863 478.282 9.62567 470.241 12.398 463.666C12.8244 462.655 13.3103 461.659 13.8526 460.696C11.6579 458.408 9.88764 455.221 8.95259 450.892C6.45605 439.334 8.03854 423.998 8.92963 417.888C9.08119 416.848 10.0465 416.129 11.0858 416.28C12.1251 416.432 12.8447 417.397 12.6932 418.436C11.8094 424.497 10.3285 439.248 12.6702 450.089C13.3703 453.33 14.5805 455.697 16.0236 457.422C18.9068 453.722 22.7615 450.98 27.3486 450.501C29.8219 450.242 31.8126 451.469 33.0948 452.956C34.3494 454.411 35.1446 456.35 35.1527 458.088C35.1614 459.937 34.2226 461.741 32.9556 463.07C31.666 464.422 29.8297 465.504 27.7186 465.696C24.8994 465.953 20.936 465.559 17.2824 463.409C17.1365 463.323 16.9914 463.234 16.8471 463.143C16.5087 463.786 16.1931 464.454 15.9025 465.144C13.3941 471.093 13.0969 477.836 15.5239 482.289C15.841 482.871 16.1687 483.456 16.5063 484.043C24.054 481.428 30.5811 482.99 35.6567 486.122C41.014 489.428 44.7485 494.465 46.5804 498.129L46.6226 498.213L46.6563 498.302C48.181 502.3 49.2961 508.805 49.4924 515.461C49.5859 518.631 49.4738 521.916 49.072 525.045C49.9881 526.03 50.8839 526.99 51.7545 527.92C57.7867 534.365 61.4564 542.012 61.7406 550.144C61.9591 556.394 59.7124 564.386 56.1196 569L52.486 573.134L48.6827 576.937C47.5417 578.078 46.781 579.219 43.5821 581.116C38.4423 583.836 33.0742 584.518 28.0728 584.026C21.0523 583.335 14.7645 580.34 10.7165 577.522C9.57959 579.025 8.45664 580.549 7.35477 582.093C6.43841 584.076 5.65364 586.475 5.32406 588.899C4.98452 591.396 5.14445 593.791 6.00499 595.779C6.83947 597.707 8.39016 599.394 11.1509 600.467C13.9724 601.565 18.1246 602.042 24.1084 601.303C24.3815 601.269 24.4745 601.203 24.7217 601.278L21.0096 605.399ZM18.5174 487.387C25.7787 498.974 36.3433 511.183 45.6067 521.292C45.7229 519.422 45.7475 517.497 45.6907 515.573C45.5033 509.22 44.4416 503.222 43.136 499.745C41.529 496.569 38.2448 492.189 33.6592 489.359C29.601 486.854 24.5218 485.55 18.5174 487.387ZM25.6645 503.934C21.7242 498.935 18.0267 493.826 14.9292 488.818C12.1617 490.181 10.3106 491.759 9.10139 493.381C7.70501 495.253 7.08848 497.283 6.98631 499.331C6.77838 503.498 8.71276 507.739 10.6445 510.382C12.1187 512.263 14.8196 514.902 17.8291 516.422C20.8203 517.934 23.6978 518.177 26.1791 516.144C27.1019 515.389 27.4875 514.662 27.6342 514.021C27.7873 513.353 27.7204 512.597 27.4384 511.75C26.8542 509.997 25.4987 508.286 24.4373 507.084C23.7421 506.297 23.8167 505.095 24.604 504.4C24.9123 504.127 25.2843 503.973 25.6645 503.934ZM48.5178 530.027C48.4165 529.919 48.3149 529.81 48.2129 529.701C47.7947 531.38 47.2646 532.959 46.6062 534.386C46.2158 535.232 45.6502 536.173 44.9454 537.194C45.5325 538.542 45.9485 539.984 46.1636 541.504C46.8077 546.056 46.674 550.59 44.8297 554.499C42.9481 558.487 39.4163 561.552 33.8364 563.357C32.8372 563.68 31.765 563.132 31.4417 562.133C31.1184 561.134 31.6664 560.062 32.6657 559.738C37.4309 558.197 40.0334 555.751 41.3901 552.876C42.784 549.922 42.9927 546.241 42.3978 542.037C42.3401 541.629 42.2629 541.226 42.1671 540.831C41.7906 541.29 41.399 541.759 40.9944 542.238C38.7132 544.933 35.8917 548.057 32.7733 551.509C32.302 552.031 31.8238 552.561 31.3398 553.097C25.7201 559.325 19.2478 566.576 13.0398 574.505C16.6624 576.993 22.2759 579.633 28.4455 580.241C35.1697 580.903 42.564 579.164 48.9526 572.066C55.5257 564.763 58.1846 557.288 57.9396 550.277C57.6938 543.244 54.5175 536.438 48.9776 530.519C48.8252 530.356 48.6719 530.192 48.5178 530.027ZM38.091 539.781C38.989 538.72 39.7816 537.748 40.4647 536.867C38.2262 533.371 34.3522 530.825 29.7952 529.966C23.3141 528.743 15.5101 530.99 9.69283 539.078C3.76662 547.316 3.03287 554.78 4.3753 560.74C5.44608 565.494 7.85991 569.377 10.1925 571.973C16.4522 563.994 22.9414 556.727 28.516 550.549C29.0009 550.012 29.4785 549.483 29.9481 548.963L29.9536 548.957C33.0787 545.497 35.8529 542.426 38.091 539.781ZM27.7435 454.283C24.404 454.632 21.3139 456.749 18.8847 459.932C18.9933 460 19.1021 460.067 19.2112 460.131C22.0216 461.784 25.1436 462.111 27.3736 461.908C28.4002 461.815 29.4222 461.264 30.2035 460.445C31.0073 459.602 31.3522 458.697 31.3494 458.106C31.3461 457.404 30.9693 456.315 30.2145 455.44C29.4874 454.597 28.6312 454.191 27.7435 454.283Z" fill="white"/>
</svg>
