<svg width="1440" height="1179" viewBox="0 0 1440 1179" fill="none" xmlns="http://www.w3.org/2000/svg">
<rect x="-474.055" y="602.343" width="246.038" height="2238.14" transform="rotate(-87.1863 -474.055 602.343)" fill="white"/>
<rect width="19.3819" height="25.8924" rx="2" transform="matrix(-0.998756 -0.0498675 0.0498349 -0.998757 31.1252 624.814)" fill="black"/>
<rect width="19.3819" height="25.8924" rx="2" transform="matrix(-0.998756 -0.0498675 0.0498349 -0.998757 127.806 629.565)" fill="black"/>
<rect width="19.3819" height="25.8924" rx="2" transform="matrix(-0.998756 -0.0498675 0.0498349 -0.998757 224.487 634.317)" fill="black"/>
<rect width="19.3819" height="25.8924" rx="2" transform="matrix(-0.998756 -0.0498675 0.0498349 -0.998757 321.168 639.069)" fill="black"/>
<rect width="19.3819" height="25.8924" rx="2" transform="matrix(-0.998756 -0.0498675 0.0498349 -0.998757 417.849 643.82)" fill="black"/>
<rect width="19.3819" height="25.8924" rx="2" transform="matrix(-0.998756 -0.0498675 0.0498349 -0.998757 514.53 648.572)" fill="black"/>
<rect width="19.3819" height="25.8924" rx="2" transform="matrix(-0.998756 -0.0498675 0.0498349 -0.998757 55.2957 626.002)" fill="black"/>
<rect width="19.3819" height="25.8924" rx="2" transform="matrix(-0.998756 -0.0498675 0.0498349 -0.998757 151.976 630.753)" fill="black"/>
<rect width="19.3819" height="25.8924" rx="2" transform="matrix(-0.998756 -0.0498675 0.0498349 -0.998757 248.657 635.505)" fill="black"/>
<rect width="19.3819" height="25.8924" rx="2" transform="matrix(-0.998756 -0.0498675 0.0498349 -0.998757 345.338 640.256)" fill="black"/>
<rect width="19.3819" height="25.8924" rx="2" transform="matrix(-0.998756 -0.0498675 0.0498349 -0.998757 442.019 645.008)" fill="black"/>
<rect width="19.3819" height="25.8924" rx="2" transform="matrix(-0.998756 -0.0498675 0.0498349 -0.998757 538.7 649.76)" fill="black"/>
<rect width="19.3819" height="25.8924" rx="2" transform="matrix(-0.998756 -0.0498675 0.0498349 -0.998757 79.4658 627.189)" fill="black"/>
<rect width="19.3819" height="25.8924" rx="2" transform="matrix(-0.998756 -0.0498675 0.0498349 -0.998757 176.146 631.941)" fill="black"/>
<rect width="19.3819" height="25.8924" rx="2" transform="matrix(-0.998756 -0.0498675 0.0498349 -0.998757 272.828 636.693)" fill="black"/>
<rect width="19.3819" height="25.8924" rx="2" transform="matrix(-0.998756 -0.0498675 0.0498349 -0.998757 369.509 641.444)" fill="black"/>
<rect width="19.3819" height="25.8924" rx="2" transform="matrix(-0.998756 -0.0498675 0.0498349 -0.998757 466.189 646.196)" fill="black"/>
<rect width="19.3819" height="25.8924" rx="2" transform="matrix(-0.998756 -0.0498675 0.0498349 -0.998757 562.87 650.948)" fill="black"/>
<rect width="19.3819" height="25.8924" rx="2" transform="matrix(-0.998756 -0.0498675 0.0498349 -0.998757 6.95459 623.626)" fill="black"/>
<rect width="19.3819" height="25.8924" rx="2" transform="matrix(-0.998756 -0.0498675 0.0498349 -0.998757 103.636 628.377)" fill="black"/>
<rect width="19.3819" height="25.8924" rx="2" transform="matrix(-0.998756 -0.0498675 0.0498349 -0.998757 200.316 633.13)" fill="black"/>
<rect width="19.3819" height="25.8924" rx="2" transform="matrix(-0.998756 -0.0498675 0.0498349 -0.998757 296.998 637.881)" fill="black"/>
<rect width="19.3819" height="25.8924" rx="2" transform="matrix(-0.998756 -0.0498675 0.0498349 -0.998757 393.678 642.633)" fill="black"/>
<rect width="19.3819" height="25.8924" rx="2" transform="matrix(-0.998756 -0.0498675 0.0498349 -0.998757 490.36 647.384)" fill="black"/>
<rect width="19.3819" height="25.8924" rx="2" transform="matrix(-0.998756 -0.0498675 0.0498349 -0.998757 587.041 652.135)" fill="black"/>
<rect width="19.3819" height="25.8924" rx="2" transform="matrix(-0.998756 -0.0498675 0.0498349 -0.998757 707.282 658.145)" fill="black"/>
<rect width="19.3819" height="25.8924" rx="2" transform="matrix(-0.998756 -0.0498675 0.0498349 -0.998757 803.963 662.897)" fill="black"/>
<rect width="19.3819" height="25.8924" rx="2" transform="matrix(-0.998756 -0.0498675 0.0498349 -0.998757 900.644 667.648)" fill="black"/>
<rect width="19.3819" height="25.8924" rx="2" transform="matrix(-0.998756 -0.0498675 0.0498349 -0.998757 997.324 672.4)" fill="black"/>
<rect width="19.3819" height="25.8924" rx="2" transform="matrix(-0.998756 -0.0498675 0.0498349 -0.998757 1094.01 677.151)" fill="black"/>
<rect width="19.3819" height="25.8924" rx="2" transform="matrix(-0.998756 -0.0498675 0.0498349 -0.998757 1190.69 681.903)" fill="black"/>
<rect width="19.3819" height="25.8924" rx="2" transform="matrix(-0.998756 -0.0498675 0.0498349 -0.998757 1287.37 686.654)" fill="black"/>
<rect width="19.3819" height="25.8924" rx="2" transform="matrix(-0.998756 -0.0498675 0.0498349 -0.998757 1384.05 691.406)" fill="black"/>
<rect width="19.3819" height="25.8924" rx="2" transform="matrix(-0.998756 -0.0498675 0.0498349 -0.998757 731.452 659.333)" fill="black"/>
<rect width="19.3819" height="25.8924" rx="2" transform="matrix(-0.998756 -0.0498675 0.0498349 -0.998757 828.133 664.084)" fill="black"/>
<rect width="19.3819" height="25.8924" rx="2" transform="matrix(-0.998756 -0.0498675 0.0498349 -0.998757 924.814 668.836)" fill="black"/>
<rect width="19.3819" height="25.8924" rx="2" transform="matrix(-0.998756 -0.0498675 0.0498349 -0.998757 1021.49 673.587)" fill="black"/>
<rect width="19.3819" height="25.8924" rx="2" transform="matrix(-0.998756 -0.0498675 0.0498349 -0.998757 1118.18 678.339)" fill="black"/>
<rect width="19.3819" height="25.8924" rx="2" transform="matrix(-0.998756 -0.0498675 0.0498349 -0.998757 1214.86 683.09)" fill="black"/>
<rect width="19.3819" height="25.8924" rx="2" transform="matrix(-0.998756 -0.0498675 0.0498349 -0.998757 1311.54 687.842)" fill="black"/>
<rect width="19.3819" height="25.8924" rx="2" transform="matrix(-0.998756 -0.0498675 0.0498349 -0.998757 1408.22 692.593)" fill="black"/>
<rect width="19.3819" height="25.8924" rx="2" transform="matrix(-0.998756 -0.0498675 0.0498349 -0.998757 755.622 660.52)" fill="black"/>
<rect width="19.3819" height="25.8924" rx="2" transform="matrix(-0.998756 -0.0498675 0.0498349 -0.998757 852.303 665.272)" fill="black"/>
<rect width="19.3819" height="25.8924" rx="2" transform="matrix(-0.998756 -0.0498675 0.0498349 -0.998757 948.984 670.023)" fill="black"/>
<rect width="19.3819" height="25.8924" rx="2" transform="matrix(-0.998756 -0.0498675 0.0498349 -0.998757 1045.67 674.775)" fill="black"/>
<rect width="19.3819" height="25.8924" rx="2" transform="matrix(-0.998756 -0.0498675 0.0498349 -0.998757 1142.35 679.527)" fill="black"/>
<rect width="19.3819" height="25.8924" rx="2" transform="matrix(-0.998756 -0.0498675 0.0498349 -0.998757 1239.03 684.279)" fill="black"/>
<rect width="19.3819" height="25.8924" rx="2" transform="matrix(-0.998756 -0.0498675 0.0498349 -0.998757 1335.71 689.03)" fill="black"/>
<rect width="19.3819" height="25.8924" rx="2" transform="matrix(-0.998756 -0.0498675 0.0498349 -0.998757 1432.39 693.782)" fill="black"/>
<rect width="19.3819" height="25.8924" rx="2" transform="matrix(-0.998756 -0.0498675 0.0498349 -0.998757 779.792 661.708)" fill="black"/>
<rect width="19.3819" height="25.8924" rx="2" transform="matrix(-0.998756 -0.0498675 0.0498349 -0.998757 876.473 666.46)" fill="black"/>
<rect width="19.3819" height="25.8924" rx="2" transform="matrix(-0.998756 -0.0498675 0.0498349 -0.998757 973.154 671.212)" fill="black"/>
<rect width="19.3819" height="25.8924" rx="2" transform="matrix(-0.998756 -0.0498675 0.0498349 -0.998757 1069.84 675.963)" fill="black"/>
<rect width="19.3819" height="25.8924" rx="2" transform="matrix(-0.998756 -0.0498675 0.0498349 -0.998757 1166.52 680.714)" fill="black"/>
<rect width="19.3819" height="25.8924" rx="2" transform="matrix(-0.998756 -0.0498675 0.0498349 -0.998757 1263.2 685.466)" fill="black"/>
<rect width="19.3819" height="25.8924" rx="2" transform="matrix(-0.998756 -0.0498675 0.0498349 -0.998757 1359.88 690.218)" fill="black"/>
<rect width="19.3819" height="25.8924" rx="2" transform="matrix(-0.998756 -0.0498675 0.0498349 -0.998757 1456.56 694.969)" fill="black"/>
<rect width="19.3819" height="25.8924" rx="2" transform="matrix(-0.998756 -0.0498675 0.0498349 -0.998757 610.601 653.393)" fill="black"/>
<rect width="19.3819" height="25.8924" rx="2" transform="matrix(-0.998756 -0.0498675 0.0498349 -0.998757 634.771 654.581)" fill="black"/>
<rect width="19.3819" height="25.8924" rx="2" transform="matrix(-0.998756 -0.0498675 0.0498349 -0.998757 658.941 655.769)" fill="black"/>
<rect width="19.3819" height="25.8924" rx="2" transform="matrix(-0.998756 -0.0498675 0.0498349 -0.998757 683.112 656.957)" fill="black"/>
<rect width="19.3819" height="25.8924" rx="2" transform="matrix(-0.998756 -0.0498675 0.0498349 -0.998757 702.308 443.222)" fill="black"/>
<rect width="19.3819" height="25.8924" rx="2" transform="matrix(-0.998756 -0.0498675 0.0498349 -0.998757 798.99 447.973)" fill="black"/>
<rect width="19.3819" height="25.8924" rx="2" transform="matrix(-0.998756 -0.0498675 0.0498349 -0.998757 895.673 452.725)" fill="black"/>
<rect width="19.3819" height="25.8924" rx="2" transform="matrix(-0.998756 -0.0498675 0.0498349 -0.998757 992.354 457.477)" fill="black"/>
<rect width="19.3819" height="25.8924" rx="2" transform="matrix(-0.998756 -0.0498675 0.0498349 -0.998757 1089.04 462.228)" fill="black"/>
<rect width="19.3819" height="25.8924" rx="2" transform="matrix(-0.998756 -0.0498675 0.0498349 -0.998757 1185.72 466.979)" fill="black"/>
<rect width="19.3819" height="25.8924" rx="2" transform="matrix(-0.998756 -0.0498675 0.0498349 -0.998757 1282.4 471.731)" fill="black"/>
<rect width="19.3819" height="25.8924" rx="2" transform="matrix(-0.998756 -0.0498675 0.0498349 -0.998757 1379.08 476.483)" fill="black"/>
<rect width="19.3819" height="25.8924" rx="2" transform="matrix(-0.998756 -0.0498675 0.0498349 -0.998757 726.479 444.41)" fill="black"/>
<rect width="19.3819" height="25.8924" rx="2" transform="matrix(-0.998756 -0.0498675 0.0498349 -0.998757 823.16 449.161)" fill="black"/>
<rect width="19.3819" height="25.8924" rx="2" transform="matrix(-0.998756 -0.0498675 0.0498349 -0.998757 919.843 453.913)" fill="black"/>
<rect width="19.3819" height="25.8924" rx="2" transform="matrix(-0.998756 -0.0498675 0.0498349 -0.998757 1016.52 458.664)" fill="black"/>
<rect width="19.3819" height="25.8924" rx="2" transform="matrix(-0.998756 -0.0498675 0.0498349 -0.998757 1113.21 463.417)" fill="black"/>
<rect width="19.3819" height="25.8924" rx="2" transform="matrix(-0.998756 -0.0498675 0.0498349 -0.998757 1209.89 468.167)" fill="black"/>
<rect width="19.3819" height="25.8924" rx="2" transform="matrix(-0.998756 -0.0498675 0.0498349 -0.998757 1306.57 472.919)" fill="black"/>
<rect width="19.3819" height="25.8924" rx="2" transform="matrix(-0.998756 -0.0498675 0.0498349 -0.998757 1403.25 477.671)" fill="black"/>
<rect width="19.3819" height="25.8924" rx="2" transform="matrix(-0.998756 -0.0498675 0.0498349 -0.998757 750.65 445.597)" fill="black"/>
<rect width="19.3819" height="25.8924" rx="2" transform="matrix(-0.998756 -0.0498675 0.0498349 -0.998757 847.333 450.349)" fill="black"/>
<rect width="19.3819" height="25.8924" rx="2" transform="matrix(-0.998756 -0.0498675 0.0498349 -0.998757 944.014 455.101)" fill="black"/>
<rect width="19.3819" height="25.8924" rx="2" transform="matrix(-0.998756 -0.0498675 0.0498349 -0.998757 1040.69 459.852)" fill="black"/>
<rect width="19.3819" height="25.8924" rx="2" transform="matrix(-0.998756 -0.0498675 0.0498349 -0.998757 1137.38 464.604)" fill="black"/>
<rect width="19.3819" height="25.8924" rx="2" transform="matrix(-0.998756 -0.0498675 0.0498349 -0.998757 1234.06 469.356)" fill="black"/>
<rect width="19.3819" height="25.8924" rx="2" transform="matrix(-0.998756 -0.0498675 0.0498349 -0.998757 1330.74 474.107)" fill="black"/>
<rect width="19.3819" height="25.8924" rx="2" transform="matrix(-0.998756 -0.0498675 0.0498349 -0.998757 1427.42 478.859)" fill="black"/>
<rect width="19.3819" height="25.8924" rx="2" transform="matrix(-0.998756 -0.0498675 0.0498349 -0.998757 774.82 446.785)" fill="black"/>
<rect width="19.3819" height="25.8924" rx="2" transform="matrix(-0.998756 -0.0498675 0.0498349 -0.998757 871.503 451.537)" fill="black"/>
<rect width="19.3819" height="25.8924" rx="2" transform="matrix(-0.998756 -0.0498675 0.0498349 -0.998757 968.184 456.289)" fill="black"/>
<rect width="19.3819" height="25.8924" rx="2" transform="matrix(-0.998756 -0.0498675 0.0498349 -0.998757 1064.86 461.04)" fill="black"/>
<rect width="19.3819" height="25.8924" rx="2" transform="matrix(-0.998756 -0.0498675 0.0498349 -0.998757 1161.55 465.792)" fill="black"/>
<rect width="19.3819" height="25.8924" rx="2" transform="matrix(-0.998756 -0.0498675 0.0498349 -0.998757 1258.23 470.543)" fill="black"/>
<rect width="19.3819" height="25.8924" rx="2" transform="matrix(-0.998756 -0.0498675 0.0498349 -0.998757 1354.91 475.295)" fill="black"/>
<rect width="19.3819" height="25.8924" rx="2" transform="matrix(-0.998756 -0.0498675 0.0498349 -0.998757 1451.59 480.047)" fill="black"/>
<rect width="19.3819" height="25.8924" rx="2" transform="matrix(-0.998756 -0.0498675 0.0498349 -0.998757 605.627 438.47)" fill="black"/>
<rect width="19.3819" height="25.8924" rx="2" transform="matrix(-0.998756 -0.0498675 0.0498349 -0.998757 629.798 439.658)" fill="black"/>
<rect width="19.3819" height="25.8924" rx="2" transform="matrix(-0.998756 -0.0498675 0.0498349 -0.998757 653.968 440.846)" fill="black"/>
<rect width="19.3819" height="25.8924" rx="2" transform="matrix(-0.998756 -0.0498675 0.0498349 -0.998757 678.138 442.034)" fill="black"/>
<rect width="19.3819" height="25.8924" rx="2" transform="matrix(-0.998756 -0.0498675 0.0498349 -0.998757 26.6726 410.217)" fill="black"/>
<rect width="19.3819" height="25.8924" rx="2" transform="matrix(-0.998756 -0.0498675 0.0498349 -0.998757 123.354 414.969)" fill="black"/>
<rect width="19.3819" height="25.8924" rx="2" transform="matrix(-0.998756 -0.0498675 0.0498349 -0.998757 220.035 419.721)" fill="black"/>
<rect width="19.3819" height="25.8924" rx="2" transform="matrix(-0.998756 -0.0498675 0.0498349 -0.998757 316.716 424.472)" fill="black"/>
<rect width="19.3819" height="25.8924" rx="2" transform="matrix(-0.998756 -0.0498675 0.0498349 -0.998757 413.397 429.224)" fill="black"/>
<rect width="19.3819" height="25.8924" rx="2" transform="matrix(-0.998756 -0.0498675 0.0498349 -0.998757 510.078 433.975)" fill="black"/>
<rect width="19.3819" height="25.8924" rx="2" transform="matrix(-0.998756 -0.0498675 0.0498349 -0.998757 50.8433 411.405)" fill="black"/>
<rect width="19.3819" height="25.8924" rx="2" transform="matrix(-0.998756 -0.0498675 0.0498349 -0.998757 147.524 416.157)" fill="black"/>
<rect width="19.3819" height="25.8924" rx="2" transform="matrix(-0.998756 -0.0498675 0.0498349 -0.998757 244.205 420.908)" fill="black"/>
<rect width="19.3819" height="25.8924" rx="2" transform="matrix(-0.998756 -0.0498675 0.0498349 -0.998757 340.885 425.66)" fill="black"/>
<rect width="19.3819" height="25.8924" rx="2" transform="matrix(-0.998756 -0.0498675 0.0498349 -0.998757 437.567 430.411)" fill="black"/>
<rect width="19.3819" height="25.8924" rx="2" transform="matrix(-0.998756 -0.0498675 0.0498349 -0.998757 534.248 435.163)" fill="black"/>
<rect width="19.3819" height="25.8924" rx="2" transform="matrix(-0.998756 -0.0498675 0.0498349 -0.998757 75.0134 412.593)" fill="black"/>
<rect width="19.3819" height="25.8924" rx="2" transform="matrix(-0.998756 -0.0498675 0.0498349 -0.998757 171.694 417.344)" fill="black"/>
<rect width="19.3819" height="25.8924" rx="2" transform="matrix(-0.998756 -0.0498675 0.0498349 -0.998757 268.376 422.096)" fill="black"/>
<rect width="19.3819" height="25.8924" rx="2" transform="matrix(-0.998756 -0.0498675 0.0498349 -0.998757 365.056 426.847)" fill="black"/>
<rect width="19.3819" height="25.8924" rx="2" transform="matrix(-0.998756 -0.0498675 0.0498349 -0.998757 461.737 431.599)" fill="black"/>
<rect width="19.3819" height="25.8924" rx="2" transform="matrix(-0.998756 -0.0498675 0.0498349 -0.998757 558.419 436.351)" fill="black"/>
<rect width="19.3819" height="25.8924" rx="2" transform="matrix(-0.998756 -0.0498675 0.0498349 -0.998757 2.50244 409.029)" fill="black"/>
<rect width="19.3819" height="25.8924" rx="2" transform="matrix(-0.998756 -0.0498675 0.0498349 -0.998757 99.1836 413.781)" fill="black"/>
<rect width="19.3819" height="25.8924" rx="2" transform="matrix(-0.998756 -0.0498675 0.0498349 -0.998757 195.865 418.533)" fill="black"/>
<rect width="19.3819" height="25.8924" rx="2" transform="matrix(-0.998756 -0.0498675 0.0498349 -0.998757 292.545 423.285)" fill="black"/>
<rect width="19.3819" height="25.8924" rx="2" transform="matrix(-0.998756 -0.0498675 0.0498349 -0.998757 389.227 428.036)" fill="black"/>
<rect width="19.3819" height="25.8924" rx="2" transform="matrix(-0.998756 -0.0498675 0.0498349 -0.998757 485.907 432.788)" fill="black"/>
<rect width="19.3819" height="25.8924" rx="2" transform="matrix(-0.998756 -0.0498675 0.0498349 -0.998757 582.589 437.539)" fill="black"/>
<rect x="-30.6821" y="590.087" width="177.759" height="227.545" transform="rotate(-87.1863 -30.6821 590.087)" fill="black"/>
<rect x="216.642" y="602.242" width="177.759" height="227.545" transform="rotate(-87.1863 216.642 602.242)" fill="black"/>
<rect x="463.967" y="614.398" width="177.759" height="227.545" transform="rotate(-87.1863 463.967 614.398)" fill="black"/>
<rect x="712.527" y="626.341" width="177.759" height="227.545" transform="rotate(-87.1863 712.527 626.341)" fill="black"/>
<rect x="959.851" y="638.496" width="177.759" height="227.545" transform="rotate(-87.1863 959.851 638.496)" fill="black"/>
<rect x="1207.18" y="650.651" width="177.759" height="227.545" transform="rotate(-87.1863 1207.18 650.651)" fill="black"/>
<rect x="-302.181" y="889.031" width="247.139" height="2248.16" transform="rotate(-90.7717 -302.181 889.031)" fill="white"/>
<rect width="19.4686" height="26.0083" rx="2" transform="matrix(-0.99992 0.0126876 -0.0127203 -0.999919 11.2346 882.444)" fill="black"/>
<rect width="19.4686" height="26.0083" rx="2" transform="matrix(-0.99992 0.0126876 -0.0127203 -0.999919 108.457 881.135)" fill="black"/>
<rect width="19.4686" height="26.0083" rx="2" transform="matrix(-0.99992 0.0126876 -0.0127203 -0.999919 205.679 879.826)" fill="black"/>
<rect width="19.4686" height="26.0083" rx="2" transform="matrix(-0.99992 0.0126876 -0.0127203 -0.999919 302.9 878.516)" fill="black"/>
<rect width="19.4686" height="26.0083" rx="2" transform="matrix(-0.99992 0.0126876 -0.0127203 -0.999919 400.122 877.206)" fill="black"/>
<rect width="19.4686" height="26.0083" rx="2" transform="matrix(-0.99992 0.0126876 -0.0127203 -0.999919 497.344 875.897)" fill="black"/>
<rect width="19.4686" height="26.0083" rx="2" transform="matrix(-0.99992 0.0126876 -0.0127203 -0.999919 594.566 874.588)" fill="black"/>
<rect width="19.4686" height="26.0083" rx="2" transform="matrix(-0.99992 0.0126876 -0.0127203 -0.999919 691.788 873.278)" fill="black"/>
<rect width="19.4686" height="26.0083" rx="2" transform="matrix(-0.99992 0.0126876 -0.0127203 -0.999919 35.5403 882.117)" fill="black"/>
<rect width="19.4686" height="26.0083" rx="2" transform="matrix(-0.99992 0.0126876 -0.0127203 -0.999919 132.762 880.807)" fill="black"/>
<rect width="19.4686" height="26.0083" rx="2" transform="matrix(-0.99992 0.0126876 -0.0127203 -0.999919 229.984 879.498)" fill="black"/>
<rect width="19.4686" height="26.0083" rx="2" transform="matrix(-0.99992 0.0126876 -0.0127203 -0.999919 327.206 878.188)" fill="black"/>
<rect width="19.4686" height="26.0083" rx="2" transform="matrix(-0.99992 0.0126876 -0.0127203 -0.999919 424.428 876.879)" fill="black"/>
<rect width="19.4686" height="26.0083" rx="2" transform="matrix(-0.99992 0.0126876 -0.0127203 -0.999919 521.65 875.569)" fill="black"/>
<rect width="19.4686" height="26.0083" rx="2" transform="matrix(-0.99992 0.0126876 -0.0127203 -0.999919 618.872 874.26)" fill="black"/>
<rect width="19.4686" height="26.0083" rx="2" transform="matrix(-0.99992 0.0126876 -0.0127203 -0.999919 716.094 872.95)" fill="black"/>
<rect width="19.4686" height="26.0083" rx="2" transform="matrix(-0.99992 0.0126876 -0.0127203 -0.999919 59.8457 881.79)" fill="black"/>
<rect width="19.4686" height="26.0083" rx="2" transform="matrix(-0.99992 0.0126876 -0.0127203 -0.999919 157.068 880.48)" fill="black"/>
<rect width="19.4686" height="26.0083" rx="2" transform="matrix(-0.99992 0.0126876 -0.0127203 -0.999919 254.29 879.17)" fill="black"/>
<rect width="19.4686" height="26.0083" rx="2" transform="matrix(-0.99992 0.0126876 -0.0127203 -0.999919 351.511 877.861)" fill="black"/>
<rect width="19.4686" height="26.0083" rx="2" transform="matrix(-0.99992 0.0126876 -0.0127203 -0.999919 448.734 876.552)" fill="black"/>
<rect width="19.4686" height="26.0083" rx="2" transform="matrix(-0.99992 0.0126876 -0.0127203 -0.999919 545.956 875.242)" fill="black"/>
<rect width="19.4686" height="26.0083" rx="2" transform="matrix(-0.99992 0.0126876 -0.0127203 -0.999919 643.177 873.932)" fill="black"/>
<rect width="19.4686" height="26.0083" rx="2" transform="matrix(-0.99992 0.0126876 -0.0127203 -0.999919 740.399 872.623)" fill="black"/>
<rect width="19.4686" height="26.0083" rx="2" transform="matrix(-0.99992 0.0126876 -0.0127203 -0.999919 84.1511 881.462)" fill="black"/>
<rect width="19.4686" height="26.0083" rx="2" transform="matrix(-0.99992 0.0126876 -0.0127203 -0.999919 181.373 880.153)" fill="black"/>
<rect width="19.4686" height="26.0083" rx="2" transform="matrix(-0.99992 0.0126876 -0.0127203 -0.999919 278.595 878.843)" fill="black"/>
<rect width="19.4686" height="26.0083" rx="2" transform="matrix(-0.99992 0.0126876 -0.0127203 -0.999919 375.817 877.534)" fill="black"/>
<rect width="19.4686" height="26.0083" rx="2" transform="matrix(-0.99992 0.0126876 -0.0127203 -0.999919 473.039 876.224)" fill="black"/>
<rect width="19.4686" height="26.0083" rx="2" transform="matrix(-0.99992 0.0126876 -0.0127203 -0.999919 570.26 874.915)" fill="black"/>
<rect width="19.4686" height="26.0083" rx="2" transform="matrix(-0.99992 0.0126876 -0.0127203 -0.999919 667.482 873.605)" fill="black"/>
<rect width="19.4686" height="26.0083" rx="2" transform="matrix(-0.99992 0.0126876 -0.0127203 -0.999919 764.705 872.296)" fill="black"/>
<rect width="19.4686" height="26.0083" rx="2" transform="matrix(-0.99992 0.0126876 -0.0127203 -0.999919 885.625 870.767)" fill="black"/>
<rect width="19.4686" height="26.0083" rx="2" transform="matrix(-0.99992 0.0126876 -0.0127203 -0.999919 982.847 869.458)" fill="black"/>
<rect width="19.4686" height="26.0083" rx="2" transform="matrix(-0.99992 0.0126876 -0.0127203 -0.999919 1080.07 868.148)" fill="black"/>
<rect width="19.4686" height="26.0083" rx="2" transform="matrix(-0.99992 0.0126876 -0.0127203 -0.999919 1177.29 866.839)" fill="black"/>
<rect width="19.4686" height="26.0083" rx="2" transform="matrix(-0.99992 0.0126876 -0.0127203 -0.999919 1274.51 865.529)" fill="black"/>
<rect width="19.4686" height="26.0083" rx="2" transform="matrix(-0.99992 0.0126876 -0.0127203 -0.999919 1371.73 864.219)" fill="black"/>
<rect width="19.4686" height="26.0083" rx="2" transform="matrix(-0.99992 0.0126876 -0.0127203 -0.999919 909.931 870.439)" fill="black"/>
<rect width="19.4686" height="26.0083" rx="2" transform="matrix(-0.99992 0.0126876 -0.0127203 -0.999919 1007.15 869.13)" fill="black"/>
<rect width="19.4686" height="26.0083" rx="2" transform="matrix(-0.99992 0.0126876 -0.0127203 -0.999919 1104.37 867.82)" fill="black"/>
<rect width="19.4686" height="26.0083" rx="2" transform="matrix(-0.99992 0.0126876 -0.0127203 -0.999919 1201.6 866.511)" fill="black"/>
<rect width="19.4686" height="26.0083" rx="2" transform="matrix(-0.99992 0.0126876 -0.0127203 -0.999919 1298.82 865.202)" fill="black"/>
<rect width="19.4686" height="26.0083" rx="2" transform="matrix(-0.99992 0.0126876 -0.0127203 -0.999919 1396.04 863.892)" fill="black"/>
<rect width="19.4686" height="26.0083" rx="2" transform="matrix(-0.99992 0.0126876 -0.0127203 -0.999919 934.236 870.112)" fill="black"/>
<rect width="19.4686" height="26.0083" rx="2" transform="matrix(-0.99992 0.0126876 -0.0127203 -0.999919 1031.46 868.802)" fill="black"/>
<rect width="19.4686" height="26.0083" rx="2" transform="matrix(-0.99992 0.0126876 -0.0127203 -0.999919 1128.68 867.493)" fill="black"/>
<rect width="19.4686" height="26.0083" rx="2" transform="matrix(-0.99992 0.0126876 -0.0127203 -0.999919 1225.9 866.183)" fill="black"/>
<rect width="19.4686" height="26.0083" rx="2" transform="matrix(-0.99992 0.0126876 -0.0127203 -0.999919 1323.12 864.874)" fill="black"/>
<rect width="19.4686" height="26.0083" rx="2" transform="matrix(-0.99992 0.0126876 -0.0127203 -0.999919 1420.35 863.565)" fill="black"/>
<rect width="19.4686" height="26.0083" rx="2" transform="matrix(-0.99992 0.0126876 -0.0127203 -0.999919 958.541 869.785)" fill="black"/>
<rect width="19.4686" height="26.0083" rx="2" transform="matrix(-0.99992 0.0126876 -0.0127203 -0.999919 1055.76 868.475)" fill="black"/>
<rect width="19.4686" height="26.0083" rx="2" transform="matrix(-0.99992 0.0126876 -0.0127203 -0.999919 1152.99 867.166)" fill="black"/>
<rect width="19.4686" height="26.0083" rx="2" transform="matrix(-0.99992 0.0126876 -0.0127203 -0.999919 1250.21 865.856)" fill="black"/>
<rect width="19.4686" height="26.0083" rx="2" transform="matrix(-0.99992 0.0126876 -0.0127203 -0.999919 1347.43 864.546)" fill="black"/>
<rect width="19.4686" height="26.0083" rx="2" transform="matrix(-0.99992 0.0126876 -0.0127203 -0.999919 1444.65 863.237)" fill="black"/>
<rect width="19.4686" height="26.0083" rx="2" transform="matrix(-0.99992 0.0126876 -0.0127203 -0.999919 788.404 872.076)" fill="black"/>
<rect width="19.4686" height="26.0083" rx="2" transform="matrix(-0.99992 0.0126876 -0.0127203 -0.999919 812.709 871.749)" fill="black"/>
<rect width="19.4686" height="26.0083" rx="2" transform="matrix(-0.99992 0.0126876 -0.0127203 -0.999919 837.014 871.422)" fill="black"/>
<rect width="19.4686" height="26.0083" rx="2" transform="matrix(-0.99992 0.0126876 -0.0127203 -0.999919 861.32 871.094)" fill="black"/>
<rect width="19.4686" height="26.0083" rx="2" transform="matrix(-0.99992 0.0126876 -0.0127203 -0.999919 867.139 655.617)" fill="black"/>
<rect width="19.4686" height="26.0083" rx="2" transform="matrix(-0.99992 0.0126876 -0.0127203 -0.999919 964.361 654.308)" fill="black"/>
<rect width="19.4686" height="26.0083" rx="2" transform="matrix(-0.99992 0.0126876 -0.0127203 -0.999919 1061.58 652.998)" fill="black"/>
<rect width="19.4686" height="26.0083" rx="2" transform="matrix(-0.99992 0.0126876 -0.0127203 -0.999919 1158.8 651.689)" fill="black"/>
<rect width="19.4686" height="26.0083" rx="2" transform="matrix(-0.99992 0.0126876 -0.0127203 -0.999919 1256.03 650.379)" fill="black"/>
<rect width="19.4686" height="26.0083" rx="2" transform="matrix(-0.99992 0.0126876 -0.0127203 -0.999919 1353.25 649.069)" fill="black"/>
<rect width="19.4686" height="26.0083" rx="2" transform="matrix(-0.99992 0.0126876 -0.0127203 -0.999919 1450.47 647.76)" fill="black"/>
<rect width="19.4686" height="26.0083" rx="2" transform="matrix(-0.99992 0.0126876 -0.0127203 -0.999919 891.445 655.29)" fill="black"/>
<rect width="19.4686" height="26.0083" rx="2" transform="matrix(-0.99992 0.0126876 -0.0127203 -0.999919 988.667 653.98)" fill="black"/>
<rect width="19.4686" height="26.0083" rx="2" transform="matrix(-0.99992 0.0126876 -0.0127203 -0.999919 1085.89 652.671)" fill="black"/>
<rect width="19.4686" height="26.0083" rx="2" transform="matrix(-0.99992 0.0126876 -0.0127203 -0.999919 1183.11 651.361)" fill="black"/>
<rect width="19.4686" height="26.0083" rx="2" transform="matrix(-0.99992 0.0126876 -0.0127203 -0.999919 1280.33 650.052)" fill="black"/>
<rect width="19.4686" height="26.0083" rx="2" transform="matrix(-0.99992 0.0126876 -0.0127203 -0.999919 1377.55 648.742)" fill="black"/>
<rect width="19.4686" height="26.0083" rx="2" transform="matrix(-0.99992 0.0126876 -0.0127203 -0.999919 915.75 654.962)" fill="black"/>
<rect width="19.4686" height="26.0083" rx="2" transform="matrix(-0.99992 0.0126876 -0.0127203 -0.999919 1012.97 653.653)" fill="black"/>
<rect width="19.4686" height="26.0083" rx="2" transform="matrix(-0.99992 0.0126876 -0.0127203 -0.999919 1110.19 652.343)" fill="black"/>
<rect width="19.4686" height="26.0083" rx="2" transform="matrix(-0.99992 0.0126876 -0.0127203 -0.999919 1207.42 651.034)" fill="black"/>
<rect width="19.4686" height="26.0083" rx="2" transform="matrix(-0.99992 0.0126876 -0.0127203 -0.999919 1304.64 649.724)" fill="black"/>
<rect width="19.4686" height="26.0083" rx="2" transform="matrix(-0.99992 0.0126876 -0.0127203 -0.999919 1401.86 648.415)" fill="black"/>
<rect width="19.4686" height="26.0083" rx="2" transform="matrix(-0.99992 0.0126876 -0.0127203 -0.999919 940.055 654.635)" fill="black"/>
<rect width="19.4686" height="26.0083" rx="2" transform="matrix(-0.99992 0.0126876 -0.0127203 -0.999919 1037.28 653.325)" fill="black"/>
<rect width="19.4686" height="26.0083" rx="2" transform="matrix(-0.99992 0.0126876 -0.0127203 -0.999919 1134.5 652.016)" fill="black"/>
<rect width="19.4686" height="26.0083" rx="2" transform="matrix(-0.99992 0.0126876 -0.0127203 -0.999919 1231.72 650.706)" fill="black"/>
<rect width="19.4686" height="26.0083" rx="2" transform="matrix(-0.99992 0.0126876 -0.0127203 -0.999919 1328.94 649.397)" fill="black"/>
<rect width="19.4686" height="26.0083" rx="2" transform="matrix(-0.99992 0.0126876 -0.0127203 -0.999919 1426.17 648.087)" fill="black"/>
<rect width="19.4686" height="26.0083" rx="2" transform="matrix(-0.99992 0.0126876 -0.0127203 -0.999919 769.917 656.927)" fill="black"/>
<rect width="19.4686" height="26.0083" rx="2" transform="matrix(-0.99992 0.0126876 -0.0127203 -0.999919 794.222 656.599)" fill="black"/>
<rect width="19.4686" height="26.0083" rx="2" transform="matrix(-0.99992 0.0126876 -0.0127203 -0.999919 818.528 656.272)" fill="black"/>
<rect width="19.4686" height="26.0083" rx="2" transform="matrix(-0.99992 0.0126876 -0.0127203 -0.999919 842.833 655.945)" fill="black"/>
<rect width="19.4686" height="26.0083" rx="2" transform="matrix(-0.99992 0.0126876 -0.0127203 -0.999919 90.5137 666.28)" fill="black"/>
<rect width="19.4686" height="26.0083" rx="2" transform="matrix(-0.99992 0.0126876 -0.0127203 -0.999919 187.735 664.97)" fill="black"/>
<rect width="19.4686" height="26.0083" rx="2" transform="matrix(-0.99992 0.0126876 -0.0127203 -0.999919 284.957 663.661)" fill="black"/>
<rect width="19.4686" height="26.0083" rx="2" transform="matrix(-0.99992 0.0126876 -0.0127203 -0.999919 382.179 662.351)" fill="black"/>
<rect width="19.4686" height="26.0083" rx="2" transform="matrix(-0.99992 0.0126876 -0.0127203 -0.999919 479.401 661.042)" fill="black"/>
<rect width="19.4686" height="26.0083" rx="2" transform="matrix(-0.99992 0.0126876 -0.0127203 -0.999919 576.623 659.732)" fill="black"/>
<rect width="19.4686" height="26.0083" rx="2" transform="matrix(-0.99992 0.0126876 -0.0127203 -0.999919 673.845 658.423)" fill="black"/>
<rect width="19.4686" height="26.0083" rx="2" transform="matrix(-0.99992 0.0126876 -0.0127203 -0.999919 17.5972 667.261)" fill="black"/>
<rect width="19.4686" height="26.0083" rx="2" transform="matrix(-0.99992 0.0126876 -0.0127203 -0.999919 114.819 665.953)" fill="black"/>
<rect width="19.4686" height="26.0083" rx="2" transform="matrix(-0.99992 0.0126876 -0.0127203 -0.999919 212.041 664.643)" fill="black"/>
<rect width="19.4686" height="26.0083" rx="2" transform="matrix(-0.99992 0.0126876 -0.0127203 -0.999919 309.262 663.333)" fill="black"/>
<rect width="19.4686" height="26.0083" rx="2" transform="matrix(-0.99992 0.0126876 -0.0127203 -0.999919 406.485 662.024)" fill="black"/>
<rect width="19.4686" height="26.0083" rx="2" transform="matrix(-0.99992 0.0126876 -0.0127203 -0.999919 503.706 660.714)" fill="black"/>
<rect width="19.4686" height="26.0083" rx="2" transform="matrix(-0.99992 0.0126876 -0.0127203 -0.999919 600.928 659.405)" fill="black"/>
<rect width="19.4686" height="26.0083" rx="2" transform="matrix(-0.99992 0.0126876 -0.0127203 -0.999919 698.15 658.095)" fill="black"/>
<rect width="19.4686" height="26.0083" rx="2" transform="matrix(-0.99992 0.0126876 -0.0127203 -0.999919 41.9023 666.935)" fill="black"/>
<rect width="19.4686" height="26.0083" rx="2" transform="matrix(-0.99992 0.0126876 -0.0127203 -0.999919 139.124 665.625)" fill="black"/>
<rect width="19.4686" height="26.0083" rx="2" transform="matrix(-0.99992 0.0126876 -0.0127203 -0.999919 236.346 664.316)" fill="black"/>
<rect width="19.4686" height="26.0083" rx="2" transform="matrix(-0.99992 0.0126876 -0.0127203 -0.999919 333.568 663.005)" fill="black"/>
<rect width="19.4686" height="26.0083" rx="2" transform="matrix(-0.99992 0.0126876 -0.0127203 -0.999919 430.79 661.697)" fill="black"/>
<rect width="19.4686" height="26.0083" rx="2" transform="matrix(-0.99992 0.0126876 -0.0127203 -0.999919 528.012 660.386)" fill="black"/>
<rect width="19.4686" height="26.0083" rx="2" transform="matrix(-0.99992 0.0126876 -0.0127203 -0.999919 625.234 659.078)" fill="black"/>
<rect width="19.4686" height="26.0083" rx="2" transform="matrix(-0.99992 0.0126876 -0.0127203 -0.999919 722.456 657.768)" fill="black"/>
<rect width="19.4686" height="26.0083" rx="2" transform="matrix(-0.99992 0.0126876 -0.0127203 -0.999919 66.2078 666.607)" fill="black"/>
<rect width="19.4686" height="26.0083" rx="2" transform="matrix(-0.99992 0.0126876 -0.0127203 -0.999919 163.43 665.298)" fill="black"/>
<rect width="19.4686" height="26.0083" rx="2" transform="matrix(-0.99992 0.0126876 -0.0127203 -0.999919 260.652 663.988)" fill="black"/>
<rect width="19.4686" height="26.0083" rx="2" transform="matrix(-0.99992 0.0126876 -0.0127203 -0.999919 357.874 662.679)" fill="black"/>
<rect width="19.4686" height="26.0083" rx="2" transform="matrix(-0.99992 0.0126876 -0.0127203 -0.999919 455.095 661.369)" fill="black"/>
<rect width="19.4686" height="26.0083" rx="2" transform="matrix(-0.99992 0.0126876 -0.0127203 -0.999919 552.318 660.06)" fill="black"/>
<rect width="19.4686" height="26.0083" rx="2" transform="matrix(-0.99992 0.0126876 -0.0127203 -0.999919 649.539 658.75)" fill="black"/>
<rect width="19.4686" height="26.0083" rx="2" transform="matrix(-0.99992 0.0126876 -0.0127203 -0.999919 746.761 657.441)" fill="black"/>
<rect x="-107.173" y="852.244" width="178.555" height="228.563" transform="rotate(-90.7717 -107.173 852.244)" fill="black"/>
<rect x="141.535" y="848.894" width="178.555" height="228.563" transform="rotate(-90.7717 141.535 848.894)" fill="black"/>
<rect x="390.243" y="845.544" width="178.555" height="228.563" transform="rotate(-90.7717 390.243 845.544)" fill="black"/>
<rect x="638.951" y="842.194" width="178.555" height="228.563" transform="rotate(-90.7717 638.951 842.194)" fill="black"/>
<rect x="888.885" y="838.553" width="178.555" height="228.563" transform="rotate(-90.7717 888.885 838.553)" fill="black"/>
<rect x="1137.59" y="835.204" width="178.555" height="228.563" transform="rotate(-90.7717 1137.59 835.204)" fill="black"/>
<rect x="1386.3" y="831.854" width="178.555" height="228.563" transform="rotate(-90.7717 1386.3 831.854)" fill="black"/>
<rect x="-140.023" y="738.706" width="256.253" height="2331.07" transform="rotate(-93.521 -140.023 738.706)" fill="white"/>
<rect width="20.1867" height="26.9675" rx="2" transform="matrix(-0.99816 0.0606343 -0.0606669 -0.998158 83.623 722.488)" fill="black"/>
<rect width="20.1867" height="26.9675" rx="2" transform="matrix(-0.99816 0.0606343 -0.0606669 -0.998158 184.25 716.296)" fill="black"/>
<rect width="20.1867" height="26.9675" rx="2" transform="matrix(-0.99816 0.0606343 -0.0606669 -0.998158 284.876 710.105)" fill="black"/>
<rect width="20.1867" height="26.9675" rx="2" transform="matrix(-0.99816 0.0606343 -0.0606669 -0.998158 385.502 703.913)" fill="black"/>
<rect width="20.1867" height="26.9675" rx="2" transform="matrix(-0.99816 0.0606343 -0.0606669 -0.998158 486.128 697.722)" fill="black"/>
<rect width="20.1867" height="26.9675" rx="2" transform="matrix(-0.99816 0.0606343 -0.0606669 -0.998158 586.755 691.53)" fill="black"/>
<rect width="20.1867" height="26.9675" rx="2" transform="matrix(-0.99816 0.0606343 -0.0606669 -0.998158 687.381 685.339)" fill="black"/>
<rect width="20.1867" height="26.9675" rx="2" transform="matrix(-0.99816 0.0606343 -0.0606669 -0.998158 788.008 679.147)" fill="black"/>
<rect width="20.1867" height="26.9675" rx="2" transform="matrix(-0.99816 0.0606343 -0.0606669 -0.998158 888.634 672.956)" fill="black"/>
<rect width="20.1867" height="26.9675" rx="2" transform="matrix(-0.99816 0.0606343 -0.0606669 -0.998158 8.15332 727.132)" fill="black"/>
<rect width="20.1867" height="26.9675" rx="2" transform="matrix(-0.99816 0.0606343 -0.0606669 -0.998158 108.78 720.94)" fill="black"/>
<rect width="20.1867" height="26.9675" rx="2" transform="matrix(-0.99816 0.0606343 -0.0606669 -0.998158 209.406 714.749)" fill="black"/>
<rect width="20.1867" height="26.9675" rx="2" transform="matrix(-0.99816 0.0606343 -0.0606669 -0.998158 310.032 708.557)" fill="black"/>
<rect width="20.1867" height="26.9675" rx="2" transform="matrix(-0.99816 0.0606343 -0.0606669 -0.998158 410.659 702.365)" fill="black"/>
<rect width="20.1867" height="26.9675" rx="2" transform="matrix(-0.99816 0.0606343 -0.0606669 -0.998158 511.285 696.174)" fill="black"/>
<rect width="20.1867" height="26.9675" rx="2" transform="matrix(-0.99816 0.0606343 -0.0606669 -0.998158 611.912 689.983)" fill="black"/>
<rect width="20.1867" height="26.9675" rx="2" transform="matrix(-0.99816 0.0606343 -0.0606669 -0.998158 712.538 683.791)" fill="black"/>
<rect width="20.1867" height="26.9675" rx="2" transform="matrix(-0.99816 0.0606343 -0.0606669 -0.998158 813.165 677.6)" fill="black"/>
<rect width="20.1867" height="26.9675" rx="2" transform="matrix(-0.99816 0.0606343 -0.0606669 -0.998158 913.791 671.408)" fill="black"/>
<rect width="20.1867" height="26.9675" rx="2" transform="matrix(-0.99816 0.0606343 -0.0606669 -0.998158 33.3098 725.584)" fill="black"/>
<rect width="20.1867" height="26.9675" rx="2" transform="matrix(-0.99816 0.0606343 -0.0606669 -0.998158 133.937 719.392)" fill="black"/>
<rect width="20.1867" height="26.9675" rx="2" transform="matrix(-0.99816 0.0606343 -0.0606669 -0.998158 234.563 713.201)" fill="black"/>
<rect width="20.1867" height="26.9675" rx="2" transform="matrix(-0.99816 0.0606343 -0.0606669 -0.998158 335.189 707.009)" fill="black"/>
<rect width="20.1867" height="26.9675" rx="2" transform="matrix(-0.99816 0.0606343 -0.0606669 -0.998158 435.816 700.817)" fill="black"/>
<rect width="20.1867" height="26.9675" rx="2" transform="matrix(-0.99816 0.0606343 -0.0606669 -0.998158 536.442 694.626)" fill="black"/>
<rect width="20.1867" height="26.9675" rx="2" transform="matrix(-0.99816 0.0606343 -0.0606669 -0.998158 637.068 688.434)" fill="black"/>
<rect width="20.1867" height="26.9675" rx="2" transform="matrix(-0.99816 0.0606343 -0.0606669 -0.998158 737.695 682.243)" fill="black"/>
<rect width="20.1867" height="26.9675" rx="2" transform="matrix(-0.99816 0.0606343 -0.0606669 -0.998158 838.321 676.051)" fill="black"/>
<rect width="20.1867" height="26.9675" rx="2" transform="matrix(-0.99816 0.0606343 -0.0606669 -0.998158 938.948 669.86)" fill="black"/>
<rect width="20.1867" height="26.9675" rx="2" transform="matrix(-0.99816 0.0606343 -0.0606669 -0.998158 58.4663 724.036)" fill="black"/>
<rect width="20.1867" height="26.9675" rx="2" transform="matrix(-0.99816 0.0606343 -0.0606669 -0.998158 159.093 717.844)" fill="black"/>
<rect width="20.1867" height="26.9675" rx="2" transform="matrix(-0.99816 0.0606343 -0.0606669 -0.998158 259.719 711.653)" fill="black"/>
<rect width="20.1867" height="26.9675" rx="2" transform="matrix(-0.99816 0.0606343 -0.0606669 -0.998158 360.346 705.461)" fill="black"/>
<rect width="20.1867" height="26.9675" rx="2" transform="matrix(-0.99816 0.0606343 -0.0606669 -0.998158 460.972 699.27)" fill="black"/>
<rect width="20.1867" height="26.9675" rx="2" transform="matrix(-0.99816 0.0606343 -0.0606669 -0.998158 561.598 693.079)" fill="black"/>
<rect width="20.1867" height="26.9675" rx="2" transform="matrix(-0.99816 0.0606343 -0.0606669 -0.998158 662.225 686.887)" fill="black"/>
<rect width="20.1867" height="26.9675" rx="2" transform="matrix(-0.99816 0.0606343 -0.0606669 -0.998158 762.851 680.696)" fill="black"/>
<rect width="20.1867" height="26.9675" rx="2" transform="matrix(-0.99816 0.0606343 -0.0606669 -0.998158 863.478 674.504)" fill="black"/>
<rect width="20.1867" height="26.9675" rx="2" transform="matrix(-0.99816 0.0606343 -0.0606669 -0.998158 964.104 668.312)" fill="black"/>
<rect width="20.1867" height="26.9675" rx="2" transform="matrix(-0.99816 0.0606343 -0.0606669 -0.998158 1089.26 660.715)" fill="black"/>
<rect width="20.1867" height="26.9675" rx="2" transform="matrix(-0.99816 0.0606343 -0.0606669 -0.998158 1189.89 654.524)" fill="black"/>
<rect width="20.1867" height="26.9675" rx="2" transform="matrix(-0.99816 0.0606343 -0.0606669 -0.998158 1290.52 648.332)" fill="black"/>
<rect width="20.1867" height="26.9675" rx="2" transform="matrix(-0.99816 0.0606343 -0.0606669 -0.998158 1391.14 642.141)" fill="black"/>
<rect width="20.1867" height="26.9675" rx="2" transform="matrix(-0.99816 0.0606343 -0.0606669 -0.998158 1114.42 659.167)" fill="black"/>
<rect width="20.1867" height="26.9675" rx="2" transform="matrix(-0.99816 0.0606343 -0.0606669 -0.998158 1215.05 652.976)" fill="black"/>
<rect width="20.1867" height="26.9675" rx="2" transform="matrix(-0.99816 0.0606343 -0.0606669 -0.998158 1315.67 646.784)" fill="black"/>
<rect width="20.1867" height="26.9675" rx="2" transform="matrix(-0.99816 0.0606343 -0.0606669 -0.998158 1416.3 640.593)" fill="black"/>
<rect width="20.1867" height="26.9675" rx="2" transform="matrix(-0.99816 0.0606343 -0.0606669 -0.998158 1139.58 657.619)" fill="black"/>
<rect width="20.1867" height="26.9675" rx="2" transform="matrix(-0.99816 0.0606343 -0.0606669 -0.998158 1240.2 651.428)" fill="black"/>
<rect width="20.1867" height="26.9675" rx="2" transform="matrix(-0.99816 0.0606343 -0.0606669 -0.998158 1340.83 645.236)" fill="black"/>
<rect width="20.1867" height="26.9675" rx="2" transform="matrix(-0.99816 0.0606343 -0.0606669 -0.998158 1441.46 639.045)" fill="black"/>
<rect width="20.1867" height="26.9675" rx="2" transform="matrix(-0.99816 0.0606343 -0.0606669 -0.998158 1164.73 656.071)" fill="black"/>
<rect width="20.1867" height="26.9675" rx="2" transform="matrix(-0.99816 0.0606343 -0.0606669 -0.998158 1265.36 649.88)" fill="black"/>
<rect width="20.1867" height="26.9675" rx="2" transform="matrix(-0.99816 0.0606343 -0.0606669 -0.998158 1365.99 643.688)" fill="black"/>
<rect width="20.1867" height="26.9675" rx="2" transform="matrix(-0.99816 0.0606343 -0.0606669 -0.998158 988.637 666.906)" fill="black"/>
<rect width="20.1867" height="26.9675" rx="2" transform="matrix(-0.99816 0.0606343 -0.0606669 -0.998158 1013.79 665.359)" fill="black"/>
<rect width="20.1867" height="26.9675" rx="2" transform="matrix(-0.99816 0.0606343 -0.0606669 -0.998158 1038.95 663.811)" fill="black"/>
<rect width="20.1867" height="26.9675" rx="2" transform="matrix(-0.99816 0.0606343 -0.0606669 -0.998158 1064.11 662.263)" fill="black"/>
<rect width="20.1867" height="26.9675" rx="2" transform="matrix(-0.99816 0.0606343 -0.0606669 -0.998158 1059.42 438.807)" fill="black"/>
<rect width="20.1867" height="26.9675" rx="2" transform="matrix(-0.99816 0.0606343 -0.0606669 -0.998158 1160.04 432.615)" fill="black"/>
<rect width="20.1867" height="26.9675" rx="2" transform="matrix(-0.99816 0.0606343 -0.0606669 -0.998158 1260.67 426.423)" fill="black"/>
<rect width="20.1867" height="26.9675" rx="2" transform="matrix(-0.99816 0.0606343 -0.0606669 -0.998158 1361.3 420.232)" fill="black"/>
<rect width="20.1867" height="26.9675" rx="2" transform="matrix(-0.99816 0.0606343 -0.0606669 -0.998158 1084.57 437.259)" fill="black"/>
<rect width="20.1867" height="26.9675" rx="2" transform="matrix(-0.99816 0.0606343 -0.0606669 -0.998158 1185.2 431.067)" fill="black"/>
<rect width="20.1867" height="26.9675" rx="2" transform="matrix(-0.99816 0.0606343 -0.0606669 -0.998158 1285.83 424.876)" fill="black"/>
<rect width="20.1867" height="26.9675" rx="2" transform="matrix(-0.99816 0.0606343 -0.0606669 -0.998158 1386.46 418.684)" fill="black"/>
<rect width="20.1867" height="26.9675" rx="2" transform="matrix(-0.99816 0.0606343 -0.0606669 -0.998158 1109.73 435.711)" fill="black"/>
<rect width="20.1867" height="26.9675" rx="2" transform="matrix(-0.99816 0.0606343 -0.0606669 -0.998158 1210.36 429.519)" fill="black"/>
<rect width="20.1867" height="26.9675" rx="2" transform="matrix(-0.99816 0.0606343 -0.0606669 -0.998158 1310.99 423.327)" fill="black"/>
<rect width="20.1867" height="26.9675" rx="2" transform="matrix(-0.99816 0.0606343 -0.0606669 -0.998158 1411.61 417.136)" fill="black"/>
<rect width="20.1867" height="26.9675" rx="2" transform="matrix(-0.99816 0.0606343 -0.0606669 -0.998158 1134.89 434.163)" fill="black"/>
<rect width="20.1867" height="26.9675" rx="2" transform="matrix(-0.99816 0.0606343 -0.0606669 -0.998158 1235.52 427.971)" fill="black"/>
<rect width="20.1867" height="26.9675" rx="2" transform="matrix(-0.99816 0.0606343 -0.0606669 -0.998158 1336.14 421.78)" fill="black"/>
<rect width="20.1867" height="26.9675" rx="2" transform="matrix(-0.99816 0.0606343 -0.0606669 -0.998158 1436.77 415.588)" fill="black"/>
<rect width="20.1867" height="26.9675" rx="2" transform="matrix(-0.99816 0.0606343 -0.0606669 -0.998158 958.791 444.998)" fill="black"/>
<rect width="20.1867" height="26.9675" rx="2" transform="matrix(-0.99816 0.0606343 -0.0606669 -0.998158 983.948 443.45)" fill="black"/>
<rect width="20.1867" height="26.9675" rx="2" transform="matrix(-0.99816 0.0606343 -0.0606669 -0.998158 1009.1 441.902)" fill="black"/>
<rect width="20.1867" height="26.9675" rx="2" transform="matrix(-0.99816 0.0606343 -0.0606669 -0.998158 1034.26 440.355)" fill="black"/>
<rect width="20.1867" height="26.9675" rx="2" transform="matrix(-0.99816 0.0606343 -0.0606669 -0.998158 54.354 500.857)" fill="black"/>
<rect width="20.1867" height="26.9675" rx="2" transform="matrix(-0.99816 0.0606343 -0.0606669 -0.998158 154.98 494.666)" fill="black"/>
<rect width="20.1867" height="26.9675" rx="2" transform="matrix(-0.99816 0.0606343 -0.0606669 -0.998158 255.607 488.474)" fill="black"/>
<rect width="20.1867" height="26.9675" rx="2" transform="matrix(-0.99816 0.0606343 -0.0606669 -0.998158 356.233 482.283)" fill="black"/>
<rect width="20.1867" height="26.9675" rx="2" transform="matrix(-0.99816 0.0606343 -0.0606669 -0.998158 456.86 476.091)" fill="black"/>
<rect width="20.1867" height="26.9675" rx="2" transform="matrix(-0.99816 0.0606343 -0.0606669 -0.998158 557.486 469.9)" fill="black"/>
<rect width="20.1867" height="26.9675" rx="2" transform="matrix(-0.99816 0.0606343 -0.0606669 -0.998158 658.113 463.708)" fill="black"/>
<rect width="20.1867" height="26.9675" rx="2" transform="matrix(-0.99816 0.0606343 -0.0606669 -0.998158 758.739 457.517)" fill="black"/>
<rect width="20.1867" height="26.9675" rx="2" transform="matrix(-0.99816 0.0606343 -0.0606669 -0.998158 859.365 451.325)" fill="black"/>
<rect width="20.1867" height="26.9675" rx="2" transform="matrix(-0.99816 0.0606343 -0.0606669 -0.998158 79.5107 499.31)" fill="black"/>
<rect width="20.1867" height="26.9675" rx="2" transform="matrix(-0.99816 0.0606343 -0.0606669 -0.998158 180.137 493.118)" fill="black"/>
<rect width="20.1867" height="26.9675" rx="2" transform="matrix(-0.99816 0.0606343 -0.0606669 -0.998158 280.763 486.927)" fill="black"/>
<rect width="20.1867" height="26.9675" rx="2" transform="matrix(-0.99816 0.0606343 -0.0606669 -0.998158 381.39 480.735)" fill="black"/>
<rect width="20.1867" height="26.9675" rx="2" transform="matrix(-0.99816 0.0606343 -0.0606669 -0.998158 482.016 474.544)" fill="black"/>
<rect width="20.1867" height="26.9675" rx="2" transform="matrix(-0.99816 0.0606343 -0.0606669 -0.998158 582.643 468.352)" fill="black"/>
<rect width="20.1867" height="26.9675" rx="2" transform="matrix(-0.99816 0.0606343 -0.0606669 -0.998158 683.268 462.161)" fill="black"/>
<rect width="20.1867" height="26.9675" rx="2" transform="matrix(-0.99816 0.0606343 -0.0606669 -0.998158 783.895 455.969)" fill="black"/>
<rect width="20.1867" height="26.9675" rx="2" transform="matrix(-0.99816 0.0606343 -0.0606669 -0.998158 884.522 449.778)" fill="black"/>
<rect width="20.1867" height="26.9675" rx="2" transform="matrix(-0.99816 0.0606343 -0.0606669 -0.998158 4.04077 503.953)" fill="black"/>
<rect width="20.1867" height="26.9675" rx="2" transform="matrix(-0.99816 0.0606343 -0.0606669 -0.998158 104.667 497.762)" fill="black"/>
<rect width="20.1867" height="26.9675" rx="2" transform="matrix(-0.99816 0.0606343 -0.0606669 -0.998158 205.293 491.57)" fill="black"/>
<rect width="20.1867" height="26.9675" rx="2" transform="matrix(-0.99816 0.0606343 -0.0606669 -0.998158 305.92 485.379)" fill="black"/>
<rect width="20.1867" height="26.9675" rx="2" transform="matrix(-0.99816 0.0606343 -0.0606669 -0.998158 406.546 479.187)" fill="black"/>
<rect width="20.1867" height="26.9675" rx="2" transform="matrix(-0.99816 0.0606343 -0.0606669 -0.998158 507.173 472.995)" fill="black"/>
<rect width="20.1867" height="26.9675" rx="2" transform="matrix(-0.99816 0.0606343 -0.0606669 -0.998158 607.8 466.804)" fill="black"/>
<rect width="20.1867" height="26.9675" rx="2" transform="matrix(-0.99816 0.0606343 -0.0606669 -0.998158 708.426 460.612)" fill="black"/>
<rect width="20.1867" height="26.9675" rx="2" transform="matrix(-0.99816 0.0606343 -0.0606669 -0.998158 809.052 454.421)" fill="black"/>
<rect width="20.1867" height="26.9675" rx="2" transform="matrix(-0.99816 0.0606343 -0.0606669 -0.998158 909.679 448.229)" fill="black"/>
<rect width="20.1867" height="26.9675" rx="2" transform="matrix(-0.99816 0.0606343 -0.0606669 -0.998158 29.1973 502.405)" fill="black"/>
<rect width="20.1867" height="26.9675" rx="2" transform="matrix(-0.99816 0.0606343 -0.0606669 -0.998158 129.824 496.213)" fill="black"/>
<rect width="20.1867" height="26.9675" rx="2" transform="matrix(-0.99816 0.0606343 -0.0606669 -0.998158 230.45 490.022)" fill="black"/>
<rect width="20.1867" height="26.9675" rx="2" transform="matrix(-0.99816 0.0606343 -0.0606669 -0.998158 331.076 483.831)" fill="black"/>
<rect width="20.1867" height="26.9675" rx="2" transform="matrix(-0.99816 0.0606343 -0.0606669 -0.998158 431.703 477.639)" fill="black"/>
<rect width="20.1867" height="26.9675" rx="2" transform="matrix(-0.99816 0.0606343 -0.0606669 -0.998158 532.329 471.448)" fill="black"/>
<rect width="20.1867" height="26.9675" rx="2" transform="matrix(-0.99816 0.0606343 -0.0606669 -0.998158 632.956 465.257)" fill="black"/>
<rect width="20.1867" height="26.9675" rx="2" transform="matrix(-0.99816 0.0606343 -0.0606669 -0.998158 733.582 459.065)" fill="black"/>
<rect width="20.1867" height="26.9675" rx="2" transform="matrix(-0.99816 0.0606343 -0.0606669 -0.998158 834.208 452.874)" fill="black"/>
<rect width="20.1867" height="26.9675" rx="2" transform="matrix(-0.99816 0.0606343 -0.0606669 -0.998158 934.835 446.682)" fill="black"/>
<rect x="-197.303" y="706.746" width="185.14" height="236.993" transform="rotate(-93.521 -197.303 706.746)" fill="black"/>
<rect x="60.1138" y="690.906" width="185.14" height="236.993" transform="rotate(-93.521 60.1138 690.906)" fill="black"/>
<rect x="317.531" y="675.068" width="185.14" height="236.993" transform="rotate(-93.521 317.531 675.068)" fill="black"/>
<rect x="574.949" y="659.229" width="185.14" height="236.993" transform="rotate(-93.521 574.949 659.229)" fill="black"/>
<rect x="832.366" y="643.39" width="185.14" height="236.993" transform="rotate(-93.521 832.366 643.39)" fill="black"/>
<rect x="1091.04" y="627.19" width="185.14" height="236.993" transform="rotate(-93.521 1091.04 627.19)" fill="black"/>
<rect x="1348.46" y="611.351" width="185.14" height="236.993" transform="rotate(-93.521 1348.46 611.351)" fill="black"/>
</svg>
