<svg width="339" height="518" viewBox="0 0 339 518" fill="none" xmlns="http://www.w3.org/2000/svg">
<mask id="mask0_605_4373" style="mask-type:alpha" maskUnits="userSpaceOnUse" x="27" y="0" width="312" height="121">
<path d="M27.9802 0.660767H182.487H338.822V120.426H27.9802V0.660767Z" fill="#D9D9D9"/>
</mask>
<g mask="url(#mask0_605_4373)">
<path d="M87.1769 97.9999C75.476 121.574 85.6533 119.516 95.404 124.194C140.501 122.79 237.094 128.684 271.831 124.194C306.568 119.703 286.458 107.355 275.031 97.9999C283.258 93.3224 294.868 81.9095 271.831 71.8063C284.172 61.0482 272.746 46.5481 248.521 54.9675C250.349 42.8061 235.968 14.2365 216.314 40.4302C201.322 19.4753 189.407 26.9399 183.618 37.2303C178.133 30.0582 164.018 10.6995 152.317 27.9125C139.518 14.8314 135.403 21.5186 124.433 49.1155C109.35 37.4219 95.6335 43.1627 90.6059 63.7434C75.9798 58.1305 57.9245 84.4353 87.1769 97.9999Z" fill="white"/>
<path d="M187.059 68.3222C189.192 61.6177 196.201 50.2202 207.172 58.2655C217.686 44.0947 226.371 48.2088 228.199 58.2655C238.256 48.6661 250.598 68.3222 235.513 72.4288" stroke="black"/>
<path d="M110.287 108.263C105.106 101.406 98.9502 88.1492 115.772 89.9777C115.772 64.379 145.942 81.7494 143.656 89.9777C152.342 71.2357 162.398 78.0925 168.341 84.0351C173.826 69.8644 195.768 79.0068 188.911 93.6347" stroke="black"/>
</g>
<path d="M257.331 473.005H109.596L89.7637 121.238H278.103L257.331 473.005Z" fill="white" stroke="black"/>
<path d="M136.15 121.238H96.7393L115.61 474.001H140.586L136.15 121.238Z" fill="black"/>
<path d="M181.442 121.238H142.578L146.564 474.001H181.442V121.238Z" fill="black"/>
<path d="M224.292 121.238H185.428L189.414 474.001H224.292V121.238Z" fill="black"/>
<path d="M231.716 121.238H271.128L252.257 474.001H227.281L231.716 121.238Z" fill="black"/>
<path d="M246.648 264.502C246.648 296.099 218.203 321.97 182.78 321.97C147.357 321.97 118.912 296.099 118.912 264.502C118.912 232.904 147.357 207.033 182.78 207.033C218.203 207.033 246.648 232.904 246.648 264.502Z" fill="white" stroke="black" stroke-width="3"/>
<path d="M13.7105 470.102C4.37709 465.851 3.27254 450.605 14.4114 446.987C25.5502 443.369 30.8499 444.942 32.1073 446.181C32.7562 437.647 37.8043 421.859 52.8056 426.974C67.0652 431.836 66.0688 438.018 63.5162 440.893C70.4336 433.854 84.079 424.034 86.4518 438.153C88.8723 452.555 81.1761 458.506 77.0254 459.68C80.7365 458.995 88.624 461.427 90.4853 476.635C92.3465 491.844 73.4696 488.751 63.7985 485.303C65.7352 491.003 66.2722 502.081 52.9259 500.799C39.5795 499.516 34.941 488.868 34.29 483.704C26.1312 489.388 11.2431 490.15 13.7105 470.102Z" fill="white"/>
<path d="M13.7105 470.102C4.37709 465.851 3.27254 450.605 14.4114 446.987C25.5502 443.369 30.8499 444.942 32.1073 446.181C32.7562 437.647 37.8043 421.859 52.8056 426.974C67.807 432.089 65.9239 438.665 63.1071 441.314C69.8802 434.259 84.0313 423.75 86.4518 438.153C88.8723 452.555 81.1761 458.506 77.0254 459.68C80.7365 458.995 88.624 461.427 90.4853 476.635C92.3465 491.844 73.4696 488.751 63.7985 485.303C65.7352 491.003 66.2722 502.081 52.9259 500.799C39.5795 499.516 34.941 488.868 34.29 483.704C26.1312 489.388 11.2431 490.15 13.7105 470.102Z" stroke="black"/>
<path d="M147.863 492.516C150.956 480.159 142.261 479.153 137.526 480.194C139.679 464.486 129.241 461.828 122.811 469.336C126.056 461.728 125.657 453.927 110.82 458.377C95.9826 462.827 100.378 474.28 104.431 479.45C100.256 480.254 92.217 484.781 93.4621 496.458C94.7071 508.135 108.829 503.386 115.734 499.551C112.574 503.249 109.224 511.707 121.106 515.962C132.989 520.216 134.051 506.371 133.097 498.917C136.73 501.931 144.769 504.872 147.863 492.516Z" fill="white" stroke="black"/>
</svg>
