<svg width="1528" height="247" viewBox="0 0 1528 247" fill="none" xmlns="http://www.w3.org/2000/svg">
<path d="M170.432 73.8338C170.432 52.1194 176.21 33.8071 189.095 20.9214C201.98 8.03632 222.05 0.500164 250.796 0.5C279.553 0.499836 299.976 7.42633 313.209 20.0071C326.438 32.5835 332.567 50.89 332.567 73.8338V245.609H170.432V73.8338Z" fill="white" stroke="black"/>
<path d="M342.013 73.8338C342.013 52.1194 347.791 33.8071 360.676 20.9214C373.561 8.03632 393.631 0.500164 422.377 0.5C451.134 0.499836 471.557 7.42633 484.79 20.0071C498.019 32.5835 504.148 50.89 504.148 73.8338V245.609H342.013V73.8338Z" fill="white" stroke="black"/>
<path d="M512.882 73.8338C512.882 52.1194 518.66 33.8071 531.546 20.9214C544.431 8.03632 564.5 0.500164 593.246 0.5C622.004 0.499836 642.426 7.42633 655.659 20.0071C668.888 32.5835 675.017 50.89 675.017 73.8338V245.609H512.882V73.8338Z" fill="white" stroke="black"/>
<path d="M683.752 73.8338C683.752 52.1194 689.53 33.8071 702.415 20.9214C715.3 8.03632 735.37 0.500164 764.116 0.5C792.873 0.499836 813.296 7.42633 826.529 20.0071C839.758 32.5835 845.886 50.89 845.886 73.8338V245.609H683.752V73.8338Z" fill="white" stroke="black"/>
<path d="M0.5 73.8338C0.5 52.1194 6.27776 33.8071 19.1632 20.9214C32.0483 8.03632 52.1178 0.500164 80.8641 0.5C109.621 0.499836 130.044 7.42633 143.277 20.0071C156.506 32.5835 162.635 50.89 162.635 73.8338V245.609H0.5V73.8338Z" fill="white" stroke="black"/>
<path d="M854.621 73.8338C854.621 52.1194 860.399 33.8071 873.284 20.9214C886.169 8.03632 906.239 0.500164 934.985 0.5C963.742 0.499836 984.165 7.42633 997.398 20.0071C1010.63 32.5835 1016.76 50.89 1016.76 73.8338V245.609H854.621V73.8338Z" fill="white" stroke="black"/>
<path d="M1365.37 73.8338C1365.37 52.1194 1371.14 33.8071 1384.03 20.9214C1396.91 8.03632 1416.98 0.500164 1445.73 0.5C1474.49 0.499836 1494.91 7.42633 1508.14 20.0071C1521.37 32.5835 1527.5 50.89 1527.5 73.8338V245.609H1365.37V73.8338Z" fill="white" stroke="black"/>
<path d="M1025.49 73.8338C1025.49 52.1194 1031.27 33.8071 1044.15 20.9214C1057.04 8.03632 1077.11 0.500164 1105.85 0.5C1134.61 0.499836 1155.03 7.42633 1168.27 20.0071C1181.5 32.5835 1187.62 50.89 1187.62 73.8338V245.609H1025.49V73.8338Z" fill="white" stroke="black"/>
<mask id="path-9-inside-1_591_4362" fill="white">
<path fill-rule="evenodd" clip-rule="evenodd" d="M111.153 39.4101C113.781 40.9569 113.781 44.7578 111.153 46.3046L84.2208 62.1559C83.5529 62.5491 82.8413 62.7231 82.1498 62.7145C81.4039 62.7571 80.628 62.5885 79.9034 62.1621L52.9711 46.3107C50.343 44.7639 50.343 40.9631 52.9711 39.4163L79.9034 23.5649C80.5714 23.1718 81.283 22.9978 81.9744 23.0064C82.7203 22.9638 83.4963 23.1324 84.2208 23.5588L111.153 39.4101Z"/>
</mask>
<path fill-rule="evenodd" clip-rule="evenodd" d="M111.153 39.4101C113.781 40.9569 113.781 44.7578 111.153 46.3046L84.2208 62.1559C83.5529 62.5491 82.8413 62.7231 82.1498 62.7145C81.4039 62.7571 80.628 62.5885 79.9034 62.1621L52.9711 46.3107C50.343 44.7639 50.343 40.9631 52.9711 39.4163L79.9034 23.5649C80.5714 23.1718 81.283 22.9978 81.9744 23.0064C82.7203 22.9638 83.4963 23.1324 84.2208 23.5588L111.153 39.4101Z" fill="white"/>
<path d="M111.153 46.3046L111.66 47.1664L111.153 46.3046ZM111.153 39.4101L111.66 38.5483L111.153 39.4101ZM84.2208 62.1559L83.7136 61.2941L84.2208 62.1559ZM82.1498 62.7145L82.1623 61.7145L82.1275 61.7141L82.0927 61.7161L82.1498 62.7145ZM79.9034 62.1621L80.4106 61.3002L80.4106 61.3002L79.9034 62.1621ZM52.9711 46.3107L52.4639 47.1726H52.4639L52.9711 46.3107ZM52.9711 39.4163L53.4783 40.2781H53.4783L52.9711 39.4163ZM79.9034 23.5649L79.3962 22.7031V22.7031L79.9034 23.5649ZM81.9744 23.0064L81.962 24.0063L81.9968 24.0068L82.0315 24.0048L81.9744 23.0064ZM84.2208 23.5588L83.7136 24.4206V24.4206L84.2208 23.5588ZM111.66 47.1664C114.946 45.2329 114.946 40.4818 111.66 38.5483L110.646 40.272C112.617 41.4321 112.617 44.2827 110.646 45.4428L111.66 47.1664ZM84.7281 63.0178L111.66 47.1664L110.646 45.4428L83.7136 61.2941L84.7281 63.0178ZM82.1374 63.7144C83.0082 63.7252 83.9 63.5051 84.7281 63.0178L83.7136 61.2941C83.2058 61.593 82.6744 61.7209 82.1623 61.7145L82.1374 63.7144ZM82.0927 61.7161C81.5398 61.7477 80.9609 61.6241 80.4106 61.3002L79.3962 63.0239C80.2951 63.5529 81.2681 63.7665 82.2069 63.7128L82.0927 61.7161ZM80.4106 61.3002L53.4783 45.4489L52.4639 47.1726L79.3962 63.0239L80.4106 61.3002ZM53.4783 45.4489C51.5072 44.2888 51.5072 41.4382 53.4783 40.2781L52.4639 38.5544C49.1787 40.4879 49.1787 45.239 52.4639 47.1726L53.4783 45.4489ZM53.4783 40.2781L80.4107 24.4267L79.3962 22.7031L52.4639 38.5544L53.4783 40.2781ZM80.4107 24.4267C80.9184 24.1279 81.4498 24 81.962 24.0063L81.9869 22.0065C81.1161 21.9956 80.2243 22.2157 79.3962 22.7031L80.4107 24.4267ZM84.7281 22.697C83.8292 22.168 82.8562 21.9544 81.9173 22.008L82.0315 24.0048C82.5845 23.9732 83.1634 24.0968 83.7136 24.4206L84.7281 22.697ZM111.66 38.5483L84.7281 22.697L83.7136 24.4206L110.646 40.272L111.66 38.5483Z" fill="black" mask="url(#path-9-inside-1_591_4362)"/>
<circle cx="56.4991" cy="42.8248" r="2.26251" transform="rotate(-19.9235 56.4991 42.8248)" fill="white" stroke="black" stroke-width="0.5"/>
<rect x="55.4696" y="40.698" width="0.324195" height="4.70083" transform="rotate(-19.9235 55.4696 40.698)" fill="white" stroke="black" stroke-width="0.324195"/>
<circle cx="107.559" cy="42.4281" r="2.26251" transform="rotate(23.9795 107.559 42.4281)" fill="white" stroke="black" stroke-width="0.5"/>
<rect x="108.292" y="40.1818" width="0.324195" height="4.70083" transform="rotate(23.9795 108.292 40.1818)" fill="white" stroke="black" stroke-width="0.324195"/>
<path d="M1196.36 73.8338C1196.36 52.1194 1202.14 33.8071 1215.02 20.9214C1227.91 8.03632 1247.98 0.500164 1276.72 0.5C1305.48 0.499836 1325.9 7.42633 1339.14 20.0071C1352.37 32.5835 1358.49 50.89 1358.49 73.8338V245.609H1196.36V73.8338Z" fill="white" stroke="black"/>
<mask id="path-16-inside-2_591_4362" fill="white">
<path fill-rule="evenodd" clip-rule="evenodd" d="M280.153 39.4101C282.781 40.9569 282.781 44.7578 280.153 46.3046L253.221 62.1559C252.553 62.5491 251.841 62.7231 251.15 62.7145C250.404 62.7571 249.628 62.5885 248.903 62.1621L221.971 46.3107C219.343 44.7639 219.343 40.9631 221.971 39.4163L248.903 23.5649C249.571 23.1718 250.283 22.9978 250.974 23.0064C251.72 22.9638 252.496 23.1324 253.221 23.5588L280.153 39.4101Z"/>
</mask>
<path fill-rule="evenodd" clip-rule="evenodd" d="M280.153 39.4101C282.781 40.9569 282.781 44.7578 280.153 46.3046L253.221 62.1559C252.553 62.5491 251.841 62.7231 251.15 62.7145C250.404 62.7571 249.628 62.5885 248.903 62.1621L221.971 46.3107C219.343 44.7639 219.343 40.9631 221.971 39.4163L248.903 23.5649C249.571 23.1718 250.283 22.9978 250.974 23.0064C251.72 22.9638 252.496 23.1324 253.221 23.5588L280.153 39.4101Z" fill="white"/>
<path d="M280.153 46.3046L280.66 47.1664L280.153 46.3046ZM280.153 39.4101L280.66 38.5483L280.153 39.4101ZM253.221 62.1559L252.714 61.2941L253.221 62.1559ZM251.15 62.7145L251.162 61.7145L251.127 61.7141L251.093 61.7161L251.15 62.7145ZM248.903 62.1621L249.411 61.3002L249.411 61.3002L248.903 62.1621ZM221.971 46.3107L221.464 47.1726H221.464L221.971 46.3107ZM221.971 39.4163L222.478 40.2781H222.478L221.971 39.4163ZM248.903 23.5649L248.396 22.7031V22.7031L248.903 23.5649ZM250.974 23.0064L250.962 24.0063L250.997 24.0068L251.032 24.0048L250.974 23.0064ZM253.221 23.5588L252.714 24.4206V24.4206L253.221 23.5588ZM280.66 47.1664C283.946 45.2329 283.946 40.4818 280.66 38.5483L279.646 40.272C281.617 41.4321 281.617 44.2827 279.646 45.4428L280.66 47.1664ZM253.728 63.0178L280.66 47.1664L279.646 45.4428L252.714 61.2941L253.728 63.0178ZM251.137 63.7144C252.008 63.7252 252.9 63.5051 253.728 63.0178L252.714 61.2941C252.206 61.593 251.674 61.7209 251.162 61.7145L251.137 63.7144ZM251.093 61.7161C250.54 61.7477 249.961 61.6241 249.411 61.3002L248.396 63.0239C249.295 63.5529 250.268 63.7665 251.207 63.7128L251.093 61.7161ZM249.411 61.3002L222.478 45.4489L221.464 47.1726L248.396 63.0239L249.411 61.3002ZM222.478 45.4489C220.507 44.2888 220.507 41.4382 222.478 40.2781L221.464 38.5544C218.179 40.4879 218.179 45.239 221.464 47.1726L222.478 45.4489ZM222.478 40.2781L249.411 24.4267L248.396 22.7031L221.464 38.5544L222.478 40.2781ZM249.411 24.4267C249.918 24.1279 250.45 24 250.962 24.0063L250.987 22.0065C250.116 21.9956 249.224 22.2157 248.396 22.7031L249.411 24.4267ZM253.728 22.697C252.829 22.168 251.856 21.9544 250.917 22.008L251.032 24.0048C251.584 23.9732 252.163 24.0968 252.714 24.4206L253.728 22.697ZM280.66 38.5483L253.728 22.697L252.714 24.4206L279.646 40.272L280.66 38.5483Z" fill="black" mask="url(#path-16-inside-2_591_4362)"/>
<circle cx="225.499" cy="42.8246" r="2.26251" transform="rotate(-19.9235 225.499 42.8246)" fill="white" stroke="black" stroke-width="0.5"/>
<rect x="224.47" y="40.6975" width="0.324195" height="4.70083" transform="rotate(-19.9235 224.47 40.6975)" fill="white" stroke="black" stroke-width="0.324195"/>
<circle cx="276.559" cy="42.4281" r="2.26251" transform="rotate(23.9795 276.559 42.4281)" fill="white" stroke="black" stroke-width="0.5"/>
<rect x="277.292" y="40.1818" width="0.324195" height="4.70083" transform="rotate(23.9795 277.292 40.1818)" fill="white" stroke="black" stroke-width="0.324195"/>
<mask id="path-22-inside-3_591_4362" fill="white">
<path fill-rule="evenodd" clip-rule="evenodd" d="M452.153 39.4101C454.781 40.9569 454.781 44.7578 452.153 46.3046L425.221 62.1559C424.553 62.5491 423.841 62.7231 423.15 62.7145C422.404 62.7571 421.628 62.5885 420.903 62.1621L393.971 46.3107C391.343 44.7639 391.343 40.9631 393.971 39.4163L420.903 23.5649C421.571 23.1718 422.283 22.9978 422.974 23.0064C423.72 22.9638 424.496 23.1324 425.221 23.5588L452.153 39.4101Z"/>
</mask>
<path fill-rule="evenodd" clip-rule="evenodd" d="M452.153 39.4101C454.781 40.9569 454.781 44.7578 452.153 46.3046L425.221 62.1559C424.553 62.5491 423.841 62.7231 423.15 62.7145C422.404 62.7571 421.628 62.5885 420.903 62.1621L393.971 46.3107C391.343 44.7639 391.343 40.9631 393.971 39.4163L420.903 23.5649C421.571 23.1718 422.283 22.9978 422.974 23.0064C423.72 22.9638 424.496 23.1324 425.221 23.5588L452.153 39.4101Z" fill="white"/>
<path d="M452.153 46.3046L452.66 47.1664L452.153 46.3046ZM452.153 39.4101L452.66 38.5483L452.153 39.4101ZM425.221 62.1559L424.714 61.2941L425.221 62.1559ZM423.15 62.7145L423.162 61.7145L423.127 61.7141L423.093 61.7161L423.15 62.7145ZM420.903 62.1621L421.411 61.3002L421.411 61.3002L420.903 62.1621ZM393.971 46.3107L393.464 47.1726H393.464L393.971 46.3107ZM393.971 39.4163L394.478 40.2781H394.478L393.971 39.4163ZM420.903 23.5649L420.396 22.7031V22.7031L420.903 23.5649ZM422.974 23.0064L422.962 24.0063L422.997 24.0068L423.032 24.0048L422.974 23.0064ZM425.221 23.5588L424.714 24.4206V24.4206L425.221 23.5588ZM452.66 47.1664C455.946 45.2329 455.946 40.4818 452.66 38.5483L451.646 40.272C453.617 41.4321 453.617 44.2827 451.646 45.4428L452.66 47.1664ZM425.728 63.0178L452.66 47.1664L451.646 45.4428L424.714 61.2941L425.728 63.0178ZM423.137 63.7144C424.008 63.7252 424.9 63.5051 425.728 63.0178L424.714 61.2941C424.206 61.593 423.674 61.7209 423.162 61.7145L423.137 63.7144ZM423.093 61.7161C422.54 61.7477 421.961 61.6241 421.411 61.3002L420.396 63.0239C421.295 63.5529 422.268 63.7665 423.207 63.7128L423.093 61.7161ZM421.411 61.3002L394.478 45.4489L393.464 47.1726L420.396 63.0239L421.411 61.3002ZM394.478 45.4489C392.507 44.2888 392.507 41.4382 394.478 40.2781L393.464 38.5544C390.179 40.4879 390.179 45.239 393.464 47.1726L394.478 45.4489ZM394.478 40.2781L421.411 24.4267L420.396 22.7031L393.464 38.5544L394.478 40.2781ZM421.411 24.4267C421.918 24.1279 422.45 24 422.962 24.0063L422.987 22.0065C422.116 21.9956 421.224 22.2157 420.396 22.7031L421.411 24.4267ZM425.728 22.697C424.829 22.168 423.856 21.9544 422.917 22.008L423.032 24.0048C423.584 23.9732 424.163 24.0968 424.714 24.4206L425.728 22.697ZM452.66 38.5483L425.728 22.697L424.714 24.4206L451.646 40.272L452.66 38.5483Z" fill="black" mask="url(#path-22-inside-3_591_4362)"/>
<circle cx="397.499" cy="42.8246" r="2.26251" transform="rotate(-19.9235 397.499 42.8246)" fill="white" stroke="black" stroke-width="0.5"/>
<rect x="396.47" y="40.6975" width="0.324195" height="4.70083" transform="rotate(-19.9235 396.47 40.6975)" fill="white" stroke="black" stroke-width="0.324195"/>
<circle cx="448.559" cy="42.4281" r="2.26251" transform="rotate(23.9795 448.559 42.4281)" fill="white" stroke="black" stroke-width="0.5"/>
<rect x="449.292" y="40.1818" width="0.324195" height="4.70083" transform="rotate(23.9795 449.292 40.1818)" fill="white" stroke="black" stroke-width="0.324195"/>
<mask id="path-28-inside-4_591_4362" fill="white">
<path fill-rule="evenodd" clip-rule="evenodd" d="M623.153 39.4101C625.781 40.9569 625.781 44.7578 623.153 46.3046L596.221 62.1559C595.553 62.5491 594.841 62.7231 594.15 62.7145C593.404 62.7571 592.628 62.5885 591.903 62.1621L564.971 46.3107C562.343 44.7639 562.343 40.9631 564.971 39.4163L591.903 23.5649C592.571 23.1718 593.283 22.9978 593.974 23.0064C594.72 22.9638 595.496 23.1324 596.221 23.5588L623.153 39.4101Z"/>
</mask>
<path fill-rule="evenodd" clip-rule="evenodd" d="M623.153 39.4101C625.781 40.9569 625.781 44.7578 623.153 46.3046L596.221 62.1559C595.553 62.5491 594.841 62.7231 594.15 62.7145C593.404 62.7571 592.628 62.5885 591.903 62.1621L564.971 46.3107C562.343 44.7639 562.343 40.9631 564.971 39.4163L591.903 23.5649C592.571 23.1718 593.283 22.9978 593.974 23.0064C594.72 22.9638 595.496 23.1324 596.221 23.5588L623.153 39.4101Z" fill="white"/>
<path d="M623.153 46.3046L623.66 47.1664L623.153 46.3046ZM623.153 39.4101L623.66 38.5483L623.153 39.4101ZM596.221 62.1559L595.714 61.2941L596.221 62.1559ZM594.15 62.7145L594.162 61.7145L594.127 61.7141L594.093 61.7161L594.15 62.7145ZM591.903 62.1621L592.411 61.3002L592.411 61.3002L591.903 62.1621ZM564.971 46.3107L564.464 47.1726H564.464L564.971 46.3107ZM564.971 39.4163L565.478 40.2781H565.478L564.971 39.4163ZM591.903 23.5649L591.396 22.7031V22.7031L591.903 23.5649ZM593.974 23.0064L593.962 24.0063L593.997 24.0068L594.032 24.0048L593.974 23.0064ZM596.221 23.5588L595.714 24.4206V24.4206L596.221 23.5588ZM623.66 47.1664C626.946 45.2329 626.946 40.4818 623.66 38.5483L622.646 40.272C624.617 41.4321 624.617 44.2827 622.646 45.4428L623.66 47.1664ZM596.728 63.0178L623.66 47.1664L622.646 45.4428L595.714 61.2941L596.728 63.0178ZM594.137 63.7144C595.008 63.7252 595.9 63.5051 596.728 63.0178L595.714 61.2941C595.206 61.593 594.674 61.7209 594.162 61.7145L594.137 63.7144ZM594.093 61.7161C593.54 61.7477 592.961 61.6241 592.411 61.3002L591.396 63.0239C592.295 63.5529 593.268 63.7665 594.207 63.7128L594.093 61.7161ZM592.411 61.3002L565.478 45.4489L564.464 47.1726L591.396 63.0239L592.411 61.3002ZM565.478 45.4489C563.507 44.2888 563.507 41.4382 565.478 40.2781L564.464 38.5544C561.179 40.4879 561.179 45.239 564.464 47.1726L565.478 45.4489ZM565.478 40.2781L592.411 24.4267L591.396 22.7031L564.464 38.5544L565.478 40.2781ZM592.411 24.4267C592.918 24.1279 593.45 24 593.962 24.0063L593.987 22.0065C593.116 21.9956 592.224 22.2157 591.396 22.7031L592.411 24.4267ZM596.728 22.697C595.829 22.168 594.856 21.9544 593.917 22.008L594.032 24.0048C594.584 23.9732 595.163 24.0968 595.714 24.4206L596.728 22.697ZM623.66 38.5483L596.728 22.697L595.714 24.4206L622.646 40.272L623.66 38.5483Z" fill="black" mask="url(#path-28-inside-4_591_4362)"/>
<circle cx="568.499" cy="42.8248" r="2.26251" transform="rotate(-19.9235 568.499 42.8248)" fill="white" stroke="black" stroke-width="0.5"/>
<rect x="567.47" y="40.698" width="0.324195" height="4.70083" transform="rotate(-19.9235 567.47 40.698)" fill="white" stroke="black" stroke-width="0.324195"/>
<circle cx="619.559" cy="42.4281" r="2.26251" transform="rotate(23.9795 619.559 42.4281)" fill="white" stroke="black" stroke-width="0.5"/>
<rect x="620.292" y="40.1818" width="0.324195" height="4.70083" transform="rotate(23.9795 620.292 40.1818)" fill="white" stroke="black" stroke-width="0.324195"/>
<mask id="path-34-inside-5_591_4362" fill="white">
<path fill-rule="evenodd" clip-rule="evenodd" d="M794.153 39.4101C796.781 40.9569 796.781 44.7578 794.153 46.3046L767.221 62.1559C766.553 62.5491 765.841 62.7231 765.15 62.7145C764.404 62.7571 763.628 62.5885 762.903 62.1621L735.971 46.3107C733.343 44.7639 733.343 40.9631 735.971 39.4163L762.903 23.5649C763.571 23.1718 764.283 22.9978 764.974 23.0064C765.72 22.9638 766.496 23.1324 767.221 23.5588L794.153 39.4101Z"/>
</mask>
<path fill-rule="evenodd" clip-rule="evenodd" d="M794.153 39.4101C796.781 40.9569 796.781 44.7578 794.153 46.3046L767.221 62.1559C766.553 62.5491 765.841 62.7231 765.15 62.7145C764.404 62.7571 763.628 62.5885 762.903 62.1621L735.971 46.3107C733.343 44.7639 733.343 40.9631 735.971 39.4163L762.903 23.5649C763.571 23.1718 764.283 22.9978 764.974 23.0064C765.72 22.9638 766.496 23.1324 767.221 23.5588L794.153 39.4101Z" fill="white"/>
<path d="M794.153 46.3046L794.66 47.1664L794.153 46.3046ZM794.153 39.4101L794.66 38.5483L794.153 39.4101ZM767.221 62.1559L766.714 61.2941L767.221 62.1559ZM765.15 62.7145L765.162 61.7145L765.127 61.7141L765.093 61.7161L765.15 62.7145ZM762.903 62.1621L763.411 61.3002L763.411 61.3002L762.903 62.1621ZM735.971 46.3107L735.464 47.1726H735.464L735.971 46.3107ZM735.971 39.4163L736.478 40.2781H736.478L735.971 39.4163ZM762.903 23.5649L762.396 22.7031V22.7031L762.903 23.5649ZM764.974 23.0064L764.962 24.0063L764.997 24.0068L765.032 24.0048L764.974 23.0064ZM767.221 23.5588L766.714 24.4206V24.4206L767.221 23.5588ZM794.66 47.1664C797.946 45.2329 797.946 40.4818 794.66 38.5483L793.646 40.272C795.617 41.4321 795.617 44.2827 793.646 45.4428L794.66 47.1664ZM767.728 63.0178L794.66 47.1664L793.646 45.4428L766.714 61.2941L767.728 63.0178ZM765.137 63.7144C766.008 63.7252 766.9 63.5051 767.728 63.0178L766.714 61.2941C766.206 61.593 765.674 61.7209 765.162 61.7145L765.137 63.7144ZM765.093 61.7161C764.54 61.7477 763.961 61.6241 763.411 61.3002L762.396 63.0239C763.295 63.5529 764.268 63.7665 765.207 63.7128L765.093 61.7161ZM763.411 61.3002L736.478 45.4489L735.464 47.1726L762.396 63.0239L763.411 61.3002ZM736.478 45.4489C734.507 44.2888 734.507 41.4382 736.478 40.2781L735.464 38.5544C732.179 40.4879 732.179 45.239 735.464 47.1726L736.478 45.4489ZM736.478 40.2781L763.411 24.4267L762.396 22.7031L735.464 38.5544L736.478 40.2781ZM763.411 24.4267C763.918 24.1279 764.45 24 764.962 24.0063L764.987 22.0065C764.116 21.9956 763.224 22.2157 762.396 22.7031L763.411 24.4267ZM767.728 22.697C766.829 22.168 765.856 21.9544 764.917 22.008L765.032 24.0048C765.584 23.9732 766.163 24.0968 766.714 24.4206L767.728 22.697ZM794.66 38.5483L767.728 22.697L766.714 24.4206L793.646 40.272L794.66 38.5483Z" fill="black" mask="url(#path-34-inside-5_591_4362)"/>
<circle cx="739.499" cy="42.8246" r="2.26251" transform="rotate(-19.9235 739.499 42.8246)" fill="white" stroke="black" stroke-width="0.5"/>
<rect x="738.47" y="40.6975" width="0.324195" height="4.70083" transform="rotate(-19.9235 738.47 40.6975)" fill="white" stroke="black" stroke-width="0.324195"/>
<circle cx="790.559" cy="42.4281" r="2.26251" transform="rotate(23.9795 790.559 42.4281)" fill="white" stroke="black" stroke-width="0.5"/>
<rect x="791.292" y="40.1818" width="0.324195" height="4.70083" transform="rotate(23.9795 791.292 40.1818)" fill="white" stroke="black" stroke-width="0.324195"/>
<mask id="path-40-inside-6_591_4362" fill="white">
<path fill-rule="evenodd" clip-rule="evenodd" d="M965.153 39.4101C967.781 40.9569 967.781 44.7578 965.153 46.3046L938.221 62.1559C937.553 62.5491 936.841 62.7231 936.15 62.7145C935.404 62.7571 934.628 62.5885 933.903 62.1621L906.971 46.3107C904.343 44.7639 904.343 40.9631 906.971 39.4163L933.903 23.5649C934.571 23.1718 935.283 22.9978 935.974 23.0064C936.72 22.9638 937.496 23.1324 938.221 23.5588L965.153 39.4101Z"/>
</mask>
<path fill-rule="evenodd" clip-rule="evenodd" d="M965.153 39.4101C967.781 40.9569 967.781 44.7578 965.153 46.3046L938.221 62.1559C937.553 62.5491 936.841 62.7231 936.15 62.7145C935.404 62.7571 934.628 62.5885 933.903 62.1621L906.971 46.3107C904.343 44.7639 904.343 40.9631 906.971 39.4163L933.903 23.5649C934.571 23.1718 935.283 22.9978 935.974 23.0064C936.72 22.9638 937.496 23.1324 938.221 23.5588L965.153 39.4101Z" fill="white"/>
<path d="M965.153 46.3046L965.66 47.1664L965.153 46.3046ZM965.153 39.4101L965.66 38.5483L965.153 39.4101ZM938.221 62.1559L937.714 61.2941L938.221 62.1559ZM936.15 62.7145L936.162 61.7145L936.127 61.7141L936.093 61.7161L936.15 62.7145ZM933.903 62.1621L934.411 61.3002L934.411 61.3002L933.903 62.1621ZM906.971 46.3107L906.464 47.1726H906.464L906.971 46.3107ZM906.971 39.4163L907.478 40.2781H907.478L906.971 39.4163ZM933.903 23.5649L933.396 22.7031V22.7031L933.903 23.5649ZM935.974 23.0064L935.962 24.0063L935.997 24.0068L936.032 24.0048L935.974 23.0064ZM938.221 23.5588L937.714 24.4206V24.4206L938.221 23.5588ZM965.66 47.1664C968.946 45.2329 968.946 40.4818 965.66 38.5483L964.646 40.272C966.617 41.4321 966.617 44.2827 964.646 45.4428L965.66 47.1664ZM938.728 63.0178L965.66 47.1664L964.646 45.4428L937.714 61.2941L938.728 63.0178ZM936.137 63.7144C937.008 63.7252 937.9 63.5051 938.728 63.0178L937.714 61.2941C937.206 61.593 936.674 61.7209 936.162 61.7145L936.137 63.7144ZM936.093 61.7161C935.54 61.7477 934.961 61.6241 934.411 61.3002L933.396 63.0239C934.295 63.5529 935.268 63.7665 936.207 63.7128L936.093 61.7161ZM934.411 61.3002L907.478 45.4489L906.464 47.1726L933.396 63.0239L934.411 61.3002ZM907.478 45.4489C905.507 44.2888 905.507 41.4382 907.478 40.2781L906.464 38.5544C903.179 40.4879 903.179 45.239 906.464 47.1726L907.478 45.4489ZM907.478 40.2781L934.411 24.4267L933.396 22.7031L906.464 38.5544L907.478 40.2781ZM934.411 24.4267C934.918 24.1279 935.45 24 935.962 24.0063L935.987 22.0065C935.116 21.9956 934.224 22.2157 933.396 22.7031L934.411 24.4267ZM938.728 22.697C937.829 22.168 936.856 21.9544 935.917 22.008L936.032 24.0048C936.584 23.9732 937.163 24.0968 937.714 24.4206L938.728 22.697ZM965.66 38.5483L938.728 22.697L937.714 24.4206L964.646 40.272L965.66 38.5483Z" fill="black" mask="url(#path-40-inside-6_591_4362)"/>
<circle cx="910.499" cy="42.8246" r="2.26251" transform="rotate(-19.9235 910.499 42.8246)" fill="white" stroke="black" stroke-width="0.5"/>
<rect x="909.47" y="40.6975" width="0.324195" height="4.70083" transform="rotate(-19.9235 909.47 40.6975)" fill="white" stroke="black" stroke-width="0.324195"/>
<circle cx="961.559" cy="42.4281" r="2.26251" transform="rotate(23.9795 961.559 42.4281)" fill="white" stroke="black" stroke-width="0.5"/>
<rect x="962.292" y="40.1818" width="0.324195" height="4.70083" transform="rotate(23.9795 962.292 40.1818)" fill="white" stroke="black" stroke-width="0.324195"/>
<mask id="path-46-inside-7_591_4362" fill="white">
<path fill-rule="evenodd" clip-rule="evenodd" d="M1136.15 39.4101C1138.78 40.9569 1138.78 44.7578 1136.15 46.3046L1109.22 62.1559C1108.55 62.5491 1107.84 62.7231 1107.15 62.7145C1106.4 62.7571 1105.63 62.5885 1104.9 62.1621L1077.97 46.3107C1075.34 44.7639 1075.34 40.9631 1077.97 39.4163L1104.9 23.5649C1105.57 23.1718 1106.28 22.9978 1106.97 23.0064C1107.72 22.9638 1108.5 23.1324 1109.22 23.5588L1136.15 39.4101Z"/>
</mask>
<path fill-rule="evenodd" clip-rule="evenodd" d="M1136.15 39.4101C1138.78 40.9569 1138.78 44.7578 1136.15 46.3046L1109.22 62.1559C1108.55 62.5491 1107.84 62.7231 1107.15 62.7145C1106.4 62.7571 1105.63 62.5885 1104.9 62.1621L1077.97 46.3107C1075.34 44.7639 1075.34 40.9631 1077.97 39.4163L1104.9 23.5649C1105.57 23.1718 1106.28 22.9978 1106.97 23.0064C1107.72 22.9638 1108.5 23.1324 1109.22 23.5588L1136.15 39.4101Z" fill="white"/>
<path d="M1136.15 46.3046L1136.66 47.1664L1136.15 46.3046ZM1136.15 39.4101L1136.66 38.5483L1136.15 39.4101ZM1109.22 62.1559L1108.71 61.2941L1109.22 62.1559ZM1107.15 62.7145L1107.16 61.7145L1107.13 61.7141L1107.09 61.7161L1107.15 62.7145ZM1104.9 62.1621L1105.41 61.3002L1105.41 61.3002L1104.9 62.1621ZM1077.97 46.3107L1077.46 47.1726H1077.46L1077.97 46.3107ZM1077.97 39.4163L1078.48 40.2781H1078.48L1077.97 39.4163ZM1104.9 23.5649L1104.4 22.7031V22.7031L1104.9 23.5649ZM1106.97 23.0064L1106.96 24.0063L1107 24.0068L1107.03 24.0048L1106.97 23.0064ZM1109.22 23.5588L1108.71 24.4206V24.4206L1109.22 23.5588ZM1136.66 47.1664C1139.95 45.2329 1139.95 40.4818 1136.66 38.5483L1135.65 40.272C1137.62 41.4321 1137.62 44.2827 1135.65 45.4428L1136.66 47.1664ZM1109.73 63.0178L1136.66 47.1664L1135.65 45.4428L1108.71 61.2941L1109.73 63.0178ZM1107.14 63.7144C1108.01 63.7252 1108.9 63.5051 1109.73 63.0178L1108.71 61.2941C1108.21 61.593 1107.67 61.7209 1107.16 61.7145L1107.14 63.7144ZM1107.09 61.7161C1106.54 61.7477 1105.96 61.6241 1105.41 61.3002L1104.4 63.0239C1105.3 63.5529 1106.27 63.7665 1107.21 63.7128L1107.09 61.7161ZM1105.41 61.3002L1078.48 45.4489L1077.46 47.1726L1104.4 63.0239L1105.41 61.3002ZM1078.48 45.4489C1076.51 44.2888 1076.51 41.4382 1078.48 40.2781L1077.46 38.5544C1074.18 40.4879 1074.18 45.239 1077.46 47.1726L1078.48 45.4489ZM1078.48 40.2781L1105.41 24.4267L1104.4 22.7031L1077.46 38.5544L1078.48 40.2781ZM1105.41 24.4267C1105.92 24.1279 1106.45 24 1106.96 24.0063L1106.99 22.0065C1106.12 21.9956 1105.22 22.2157 1104.4 22.7031L1105.41 24.4267ZM1109.73 22.697C1108.83 22.168 1107.86 21.9544 1106.92 22.008L1107.03 24.0048C1107.58 23.9732 1108.16 24.0968 1108.71 24.4206L1109.73 22.697ZM1136.66 38.5483L1109.73 22.697L1108.71 24.4206L1135.65 40.272L1136.66 38.5483Z" fill="black" mask="url(#path-46-inside-7_591_4362)"/>
<circle cx="1081.5" cy="42.8246" r="2.26251" transform="rotate(-19.9235 1081.5 42.8246)" fill="white" stroke="black" stroke-width="0.5"/>
<rect x="1080.47" y="40.6975" width="0.324195" height="4.70083" transform="rotate(-19.9235 1080.47 40.6975)" fill="white" stroke="black" stroke-width="0.324195"/>
<circle cx="1132.56" cy="42.4281" r="2.26251" transform="rotate(23.9795 1132.56 42.4281)" fill="white" stroke="black" stroke-width="0.5"/>
<rect x="1133.29" y="40.1818" width="0.324195" height="4.70083" transform="rotate(23.9795 1133.29 40.1818)" fill="white" stroke="black" stroke-width="0.324195"/>
<mask id="path-52-inside-8_591_4362" fill="white">
<path fill-rule="evenodd" clip-rule="evenodd" d="M1306.15 39.4101C1308.78 40.9569 1308.78 44.7578 1306.15 46.3046L1279.22 62.1559C1278.55 62.5491 1277.84 62.7231 1277.15 62.7145C1276.4 62.7571 1275.63 62.5885 1274.9 62.1621L1247.97 46.3107C1245.34 44.7639 1245.34 40.9631 1247.97 39.4163L1274.9 23.5649C1275.57 23.1718 1276.28 22.9978 1276.97 23.0064C1277.72 22.9638 1278.5 23.1324 1279.22 23.5588L1306.15 39.4101Z"/>
</mask>
<path fill-rule="evenodd" clip-rule="evenodd" d="M1306.15 39.4101C1308.78 40.9569 1308.78 44.7578 1306.15 46.3046L1279.22 62.1559C1278.55 62.5491 1277.84 62.7231 1277.15 62.7145C1276.4 62.7571 1275.63 62.5885 1274.9 62.1621L1247.97 46.3107C1245.34 44.7639 1245.34 40.9631 1247.97 39.4163L1274.9 23.5649C1275.57 23.1718 1276.28 22.9978 1276.97 23.0064C1277.72 22.9638 1278.5 23.1324 1279.22 23.5588L1306.15 39.4101Z" fill="white"/>
<path d="M1306.15 46.3046L1306.66 47.1664L1306.15 46.3046ZM1306.15 39.4101L1306.66 38.5483L1306.15 39.4101ZM1279.22 62.1559L1278.71 61.2941L1279.22 62.1559ZM1277.15 62.7145L1277.16 61.7145L1277.13 61.7141L1277.09 61.7161L1277.15 62.7145ZM1274.9 62.1621L1275.41 61.3002L1275.41 61.3002L1274.9 62.1621ZM1247.97 46.3107L1247.46 47.1726H1247.46L1247.97 46.3107ZM1247.97 39.4163L1248.48 40.2781H1248.48L1247.97 39.4163ZM1274.9 23.5649L1274.4 22.7031V22.7031L1274.9 23.5649ZM1276.97 23.0064L1276.96 24.0063L1277 24.0068L1277.03 24.0048L1276.97 23.0064ZM1279.22 23.5588L1278.71 24.4206V24.4206L1279.22 23.5588ZM1306.66 47.1664C1309.95 45.2329 1309.95 40.4818 1306.66 38.5483L1305.65 40.272C1307.62 41.4321 1307.62 44.2827 1305.65 45.4428L1306.66 47.1664ZM1279.73 63.0178L1306.66 47.1664L1305.65 45.4428L1278.71 61.2941L1279.73 63.0178ZM1277.14 63.7144C1278.01 63.7252 1278.9 63.5051 1279.73 63.0178L1278.71 61.2941C1278.21 61.593 1277.67 61.7209 1277.16 61.7145L1277.14 63.7144ZM1277.09 61.7161C1276.54 61.7477 1275.96 61.6241 1275.41 61.3002L1274.4 63.0239C1275.3 63.5529 1276.27 63.7665 1277.21 63.7128L1277.09 61.7161ZM1275.41 61.3002L1248.48 45.4489L1247.46 47.1726L1274.4 63.0239L1275.41 61.3002ZM1248.48 45.4489C1246.51 44.2888 1246.51 41.4382 1248.48 40.2781L1247.46 38.5544C1244.18 40.4879 1244.18 45.239 1247.46 47.1726L1248.48 45.4489ZM1248.48 40.2781L1275.41 24.4267L1274.4 22.7031L1247.46 38.5544L1248.48 40.2781ZM1275.41 24.4267C1275.92 24.1279 1276.45 24 1276.96 24.0063L1276.99 22.0065C1276.12 21.9956 1275.22 22.2157 1274.4 22.7031L1275.41 24.4267ZM1279.73 22.697C1278.83 22.168 1277.86 21.9544 1276.92 22.008L1277.03 24.0048C1277.58 23.9732 1278.16 24.0968 1278.71 24.4206L1279.73 22.697ZM1306.66 38.5483L1279.73 22.697L1278.71 24.4206L1305.65 40.272L1306.66 38.5483Z" fill="black" mask="url(#path-52-inside-8_591_4362)"/>
<circle cx="1251.5" cy="42.8248" r="2.26251" transform="rotate(-19.9235 1251.5 42.8248)" fill="white" stroke="black" stroke-width="0.5"/>
<rect x="1250.47" y="40.698" width="0.324195" height="4.70083" transform="rotate(-19.9235 1250.47 40.698)" fill="white" stroke="black" stroke-width="0.324195"/>
<circle cx="1302.56" cy="42.4281" r="2.26251" transform="rotate(23.9795 1302.56 42.4281)" fill="white" stroke="black" stroke-width="0.5"/>
<rect x="1303.29" y="40.1818" width="0.324195" height="4.70083" transform="rotate(23.9795 1303.29 40.1818)" fill="white" stroke="black" stroke-width="0.324195"/>
<mask id="path-58-inside-9_591_4362" fill="white">
<path fill-rule="evenodd" clip-rule="evenodd" d="M1475.15 39.4101C1477.78 40.9569 1477.78 44.7578 1475.15 46.3046L1448.22 62.1559C1447.55 62.5491 1446.84 62.7231 1446.15 62.7145C1445.4 62.7571 1444.63 62.5885 1443.9 62.1621L1416.97 46.3107C1414.34 44.7639 1414.34 40.9631 1416.97 39.4162L1443.9 23.5649C1444.57 23.1718 1445.28 22.9978 1445.97 23.0064C1446.72 22.9638 1447.5 23.1324 1448.22 23.5588L1475.15 39.4101Z"/>
</mask>
<path fill-rule="evenodd" clip-rule="evenodd" d="M1475.15 39.4101C1477.78 40.9569 1477.78 44.7578 1475.15 46.3046L1448.22 62.1559C1447.55 62.5491 1446.84 62.7231 1446.15 62.7145C1445.4 62.7571 1444.63 62.5885 1443.9 62.1621L1416.97 46.3107C1414.34 44.7639 1414.34 40.9631 1416.97 39.4162L1443.9 23.5649C1444.57 23.1718 1445.28 22.9978 1445.97 23.0064C1446.72 22.9638 1447.5 23.1324 1448.22 23.5588L1475.15 39.4101Z" fill="white"/>
<path d="M1475.15 46.3046L1475.66 47.1664L1475.15 46.3046ZM1475.15 39.4101L1475.66 38.5483L1475.15 39.4101ZM1448.22 62.1559L1447.71 61.2941L1448.22 62.1559ZM1446.15 62.7145L1446.16 61.7145L1446.13 61.7141L1446.09 61.7161L1446.15 62.7145ZM1443.9 62.1621L1444.41 61.3002H1444.41L1443.9 62.1621ZM1416.97 46.3107L1416.46 47.1726H1416.46L1416.97 46.3107ZM1416.97 39.4162L1417.48 40.2781H1417.48L1416.97 39.4162ZM1443.9 23.5649L1443.4 22.7031V22.7031L1443.9 23.5649ZM1445.97 23.0064L1445.96 24.0063L1446 24.0068L1446.03 24.0048L1445.97 23.0064ZM1448.22 23.5588L1448.73 22.697V22.697L1448.22 23.5588ZM1475.66 47.1664C1478.95 45.2329 1478.95 40.4818 1475.66 38.5483L1474.65 40.272C1476.62 41.4321 1476.62 44.2827 1474.65 45.4428L1475.66 47.1664ZM1448.73 63.0178L1475.66 47.1664L1474.65 45.4428L1447.71 61.2941L1448.73 63.0178ZM1446.14 63.7144C1447.01 63.7253 1447.9 63.5052 1448.73 63.0178L1447.71 61.2941C1447.21 61.593 1446.67 61.7209 1446.16 61.7145L1446.14 63.7144ZM1446.09 61.7161C1445.54 61.7477 1444.96 61.6241 1444.41 61.3002L1443.4 63.0239C1444.3 63.5529 1445.27 63.7665 1446.21 63.7128L1446.09 61.7161ZM1444.41 61.3002L1417.48 45.4489L1416.46 47.1726L1443.4 63.0239L1444.41 61.3002ZM1417.48 45.4489C1415.51 44.2888 1415.51 41.4382 1417.48 40.2781L1416.46 38.5544C1413.18 40.4879 1413.18 45.239 1416.46 47.1726L1417.48 45.4489ZM1417.48 40.2781L1444.41 24.4267L1443.4 22.7031L1416.46 38.5544L1417.48 40.2781ZM1444.41 24.4267C1444.92 24.1279 1445.45 23.9999 1445.96 24.0063L1445.99 22.0065C1445.12 21.9956 1444.22 22.2157 1443.4 22.7031L1444.41 24.4267ZM1448.73 22.697C1447.83 22.168 1446.86 21.9544 1445.92 22.008L1446.03 24.0048C1446.58 23.9732 1447.16 24.0968 1447.71 24.4206L1448.73 22.697ZM1475.66 38.5483L1448.73 22.697L1447.71 24.4206L1474.65 40.272L1475.66 38.5483Z" fill="black" mask="url(#path-58-inside-9_591_4362)"/>
<circle cx="1420.5" cy="42.8248" r="2.26251" transform="rotate(-19.9235 1420.5 42.8248)" fill="white" stroke="black" stroke-width="0.5"/>
<rect x="1419.47" y="40.698" width="0.324195" height="4.70083" transform="rotate(-19.9235 1419.47 40.698)" fill="white" stroke="black" stroke-width="0.324195"/>
<circle cx="1471.56" cy="42.4281" r="2.26251" transform="rotate(23.9795 1471.56 42.4281)" fill="white" stroke="black" stroke-width="0.5"/>
<rect x="1472.29" y="40.1818" width="0.324195" height="4.70083" transform="rotate(23.9795 1472.29 40.1818)" fill="white" stroke="black" stroke-width="0.324195"/>
</svg>
