<svg width="1494" height="271" viewBox="0 0 1494 271" fill="none" xmlns="http://www.w3.org/2000/svg">
<path d="M375.953 81.6683C375.953 57.7957 382.305 37.6559 396.478 23.4824C410.651 9.30937 432.722 1.02484 464.323 1.02466C495.934 1.02448 518.393 8.63843 532.949 22.4766C547.501 36.3105 554.238 56.4445 554.238 81.6683V270.5H375.953V81.6683Z" fill="white" stroke="black"/>
<path d="M0.5 81.1436C0.5 57.271 6.85209 37.1313 21.0255 22.9578C35.1984 8.78471 57.2694 0.50018 88.87 0.5C120.481 0.499819 142.94 8.11377 157.496 21.952C172.048 35.7858 178.786 55.9198 178.786 81.1436V269.975H0.5V81.1436Z" fill="white" stroke="black"/>
<mask id="path-3-inside-1_591_4364" fill="white">
<path fill-rule="evenodd" clip-rule="evenodd" d="M123.264 46.7783C125.892 48.3251 125.892 52.1259 123.264 53.6727L91.1362 72.5821C90.4478 72.9872 89.7131 73.1597 89.0018 73.1393C88.2454 73.1892 87.4567 73.022 86.7211 72.589L54.5929 53.6797C51.9648 52.1329 51.9648 48.332 54.5929 46.7852L86.7211 27.8758C87.4094 27.4707 88.1441 27.2982 88.8554 27.3186C89.6118 27.2687 90.4004 27.4359 91.1361 27.8689L123.264 46.7783Z"/>
</mask>
<path fill-rule="evenodd" clip-rule="evenodd" d="M123.264 46.7783C125.892 48.3251 125.892 52.1259 123.264 53.6727L91.1362 72.5821C90.4478 72.9872 89.7131 73.1597 89.0018 73.1393C88.2454 73.1892 87.4567 73.022 86.7211 72.589L54.5929 53.6797C51.9648 52.1329 51.9648 48.332 54.5929 46.7852L86.7211 27.8758C87.4094 27.4707 88.1441 27.2982 88.8554 27.3186C89.6118 27.2687 90.4004 27.4359 91.1361 27.8689L123.264 46.7783Z" fill="white"/>
<path d="M123.264 53.6727L123.772 54.5346L123.264 53.6727ZM123.264 46.7783L122.757 47.6401L123.264 46.7783ZM91.1362 72.5821L91.6434 73.4439V73.4439L91.1362 72.5821ZM89.0018 73.1393L89.0304 72.1397L88.9832 72.1384L88.936 72.1415L89.0018 73.1393ZM86.7211 72.589L86.2138 73.4508L86.2138 73.4508L86.7211 72.589ZM54.5929 53.6797L55.1001 52.8179H55.1001L54.5929 53.6797ZM54.5929 46.7852L54.0857 45.9234H54.0857L54.5929 46.7852ZM86.7211 27.8758L87.2283 28.7376V28.7376L86.7211 27.8758ZM88.8554 27.3186L88.8268 28.3182L88.874 28.3195L88.9212 28.3164L88.8554 27.3186ZM91.1361 27.8689L90.6289 28.7307V28.7307L91.1361 27.8689ZM123.772 54.5346C127.057 52.6011 127.057 47.8499 123.772 45.9164L122.757 47.6401C124.728 48.8002 124.728 51.6508 122.757 52.8109L123.772 54.5346ZM91.6434 73.4439L123.772 54.5346L122.757 52.8109L90.6289 71.7203L91.6434 73.4439ZM88.9732 74.1389C89.8688 74.1645 90.7898 73.9463 91.6434 73.4439L90.6289 71.7203C90.1058 72.0282 89.5574 72.1548 89.0304 72.1397L88.9732 74.1389ZM88.936 72.1415C88.3751 72.1785 87.7869 72.056 87.2283 71.7272L86.2138 73.4508C87.1266 73.9881 88.1157 74.2 89.0676 74.1372L88.936 72.1415ZM87.2283 71.7272L55.1001 52.8179L54.0857 54.5415L86.2138 73.4508L87.2283 71.7272ZM55.1001 52.8179C53.1291 51.6578 53.1291 48.8071 55.1001 47.647L54.0857 45.9234C50.8005 47.8569 50.8005 52.608 54.0857 54.5415L55.1001 52.8179ZM55.1001 47.647L87.2283 28.7376L86.2138 27.014L54.0857 45.9234L55.1001 47.647ZM87.2283 28.7376C87.7514 28.4297 88.2998 28.3031 88.8268 28.3182L88.884 26.319C87.9884 26.2934 87.0674 26.5116 86.2138 27.014L87.2283 28.7376ZM91.6434 27.0071C90.7306 26.4698 89.7415 26.258 88.7896 26.3208L88.9212 28.3164C89.4821 28.2794 90.0703 28.4019 90.6289 28.7307L91.6434 27.0071ZM123.772 45.9164L91.6434 27.0071L90.6289 28.7307L122.757 47.6401L123.772 45.9164Z" fill="black" mask="url(#path-3-inside-1_591_4364)"/>
<circle cx="59.3769" cy="50.1885" r="2.59881" transform="rotate(-19.9235 59.3769 50.1885)" fill="white" stroke="black" stroke-width="0.5"/>
<rect x="58.2095" y="47.7769" width="0.367589" height="5.33003" transform="rotate(-19.9235 58.2095 47.7769)" fill="white" stroke="black" stroke-width="0.367589"/>
<circle cx="119.539" cy="49.7387" r="2.59881" transform="rotate(23.9795 119.539 49.7387)" fill="white" stroke="black" stroke-width="0.5"/>
<rect x="120.37" y="47.1918" width="0.367589" height="5.33003" transform="rotate(23.9795 120.37 47.1918)" fill="white" stroke="black" stroke-width="0.367589"/>
<path d="M188.167 81.6683C188.167 57.7957 194.519 37.6559 208.692 23.4824C222.865 9.30937 244.936 1.02484 276.536 1.02466C308.148 1.02448 330.607 8.63843 345.163 22.4766C359.714 36.3105 366.452 56.4445 366.452 81.6683V270.5H188.167V81.6683Z" fill="white" stroke="black"/>
<path d="M563.739 81.6683C563.739 57.7957 570.091 37.6559 584.264 23.4824C598.437 9.30937 620.508 1.02484 652.109 1.02466C683.72 1.02448 706.179 8.63843 720.735 22.4766C735.287 36.3105 742.024 56.4445 742.024 81.6683V270.5H563.739V81.6683Z" fill="white" stroke="black"/>
<path d="M751.525 81.6683C751.525 57.7957 757.877 37.6559 772.05 23.4824C786.223 9.30937 808.294 1.02484 839.895 1.02466C871.506 1.02448 893.965 8.63843 908.521 22.4766C923.073 36.3105 929.81 56.4445 929.81 81.6683V270.5H751.525V81.6683Z" fill="white" stroke="black"/>
<path d="M939.311 81.6683C939.311 57.7957 945.663 37.6559 959.837 23.4824C974.009 9.30937 996.08 1.02484 1027.68 1.02466C1059.29 1.02448 1081.75 8.63843 1096.31 22.4766C1110.86 36.3105 1117.6 56.4445 1117.6 81.6683V270.5H939.311V81.6683Z" fill="white" stroke="black"/>
<path d="M1127.1 81.6683C1127.1 57.7957 1133.45 37.6559 1147.63 23.4824C1161.8 9.30937 1183.87 1.02484 1215.47 1.02466C1247.08 1.02448 1269.54 8.63843 1284.1 22.4766C1298.65 36.3105 1305.39 56.4445 1305.39 81.6683V270.5H1127.1V81.6683Z" fill="white" stroke="black"/>
<path d="M1314.88 81.6683C1314.88 57.7957 1321.24 37.6559 1335.41 23.4824C1349.58 9.30937 1371.65 1.02484 1403.25 1.02466C1434.87 1.02448 1457.32 8.63843 1471.88 22.4766C1486.43 36.3105 1493.17 56.4445 1493.17 81.6683V270.5H1314.88V81.6683Z" fill="white" stroke="black"/>
<mask id="path-15-inside-2_591_4364" fill="white">
<path fill-rule="evenodd" clip-rule="evenodd" d="M311.668 46.7783C314.296 48.3251 314.296 52.1259 311.668 53.6727L279.539 72.5821C278.851 72.9872 278.116 73.1597 277.405 73.1393C276.649 73.1892 275.86 73.022 275.124 72.589L242.996 53.6797C240.368 52.1329 240.368 48.332 242.996 46.7852L275.124 27.8758C275.813 27.4707 276.547 27.2982 277.259 27.3186C278.015 27.2687 278.804 27.4359 279.539 27.8689L311.668 46.7783Z"/>
</mask>
<path fill-rule="evenodd" clip-rule="evenodd" d="M311.668 46.7783C314.296 48.3251 314.296 52.1259 311.668 53.6727L279.539 72.5821C278.851 72.9872 278.116 73.1597 277.405 73.1393C276.649 73.1892 275.86 73.022 275.124 72.589L242.996 53.6797C240.368 52.1329 240.368 48.332 242.996 46.7852L275.124 27.8758C275.813 27.4707 276.547 27.2982 277.259 27.3186C278.015 27.2687 278.804 27.4359 279.539 27.8689L311.668 46.7783Z" fill="white"/>
<path d="M311.668 53.6727L312.175 54.5346L311.668 53.6727ZM311.668 46.7783L311.16 47.6401L311.668 46.7783ZM279.539 72.5821L279.032 71.7203L279.539 72.5821ZM277.405 73.1393L277.434 72.1397L277.386 72.1384L277.339 72.1415L277.405 73.1393ZM275.124 72.589L274.617 73.4508V73.4508L275.124 72.589ZM242.996 53.6797L243.503 52.8179H243.503L242.996 53.6797ZM242.996 46.7852L242.489 45.9234H242.489L242.996 46.7852ZM275.124 27.8758L275.632 28.7376V28.7376L275.124 27.8758ZM277.259 27.3186L277.23 28.3182L277.277 28.3195L277.325 28.3164L277.259 27.3186ZM279.539 27.8689L279.032 28.7307V28.7307L279.539 27.8689ZM312.175 54.5346C315.46 52.6011 315.46 47.8499 312.175 45.9164L311.16 47.6401C313.131 48.8002 313.131 51.6508 311.16 52.8109L312.175 54.5346ZM280.047 73.4439L312.175 54.5346L311.16 52.8109L279.032 71.7203L280.047 73.4439ZM277.377 74.1389C278.272 74.1645 279.193 73.9463 280.047 73.4439L279.032 71.7203C278.509 72.0282 277.961 72.1548 277.434 72.1397L277.377 74.1389ZM277.339 72.1415C276.778 72.1785 276.19 72.056 275.632 71.7272L274.617 73.4508C275.53 73.9881 276.519 74.2 277.471 74.1372L277.339 72.1415ZM275.632 71.7272L243.503 52.8179L242.489 54.5415L274.617 73.4508L275.632 71.7272ZM243.503 52.8179C241.532 51.6578 241.532 48.8071 243.503 47.647L242.489 45.9234C239.204 47.8569 239.204 52.608 242.489 54.5415L243.503 52.8179ZM243.503 47.647L275.632 28.7376L274.617 27.014L242.489 45.9234L243.503 47.647ZM275.632 28.7376C276.155 28.4297 276.703 28.3031 277.23 28.3182L277.287 26.319C276.392 26.2934 275.471 26.5116 274.617 27.014L275.632 28.7376ZM280.047 27.0071C279.134 26.4698 278.145 26.258 277.193 26.3208L277.325 28.3164C277.885 28.2794 278.474 28.4019 279.032 28.7307L280.047 27.0071ZM312.175 45.9164L280.047 27.0071L279.032 28.7307L311.16 47.6401L312.175 45.9164Z" fill="black" mask="url(#path-15-inside-2_591_4364)"/>
<circle cx="247.78" cy="50.1885" r="2.59881" transform="rotate(-19.9235 247.78 50.1885)" fill="white" stroke="black" stroke-width="0.5"/>
<rect x="246.613" y="47.7769" width="0.367589" height="5.33003" transform="rotate(-19.9235 246.613 47.7769)" fill="white" stroke="black" stroke-width="0.367589"/>
<circle cx="307.942" cy="49.7387" r="2.59881" transform="rotate(23.9795 307.942 49.7387)" fill="white" stroke="black" stroke-width="0.5"/>
<rect x="308.773" y="47.1918" width="0.367589" height="5.33003" transform="rotate(23.9795 308.773 47.1918)" fill="white" stroke="black" stroke-width="0.367589"/>
<mask id="path-21-inside-3_591_4364" fill="white">
<path fill-rule="evenodd" clip-rule="evenodd" d="M499.058 45.7653C501.687 47.3121 501.687 51.113 499.058 52.6598L466.93 71.5692C466.242 71.9743 465.507 72.1467 464.796 72.1264C464.04 72.1763 463.251 72.0091 462.515 71.5761L430.387 52.6667C427.759 51.1199 427.759 47.319 430.387 45.7722L462.515 26.8629C463.204 26.4578 463.938 26.2853 464.65 26.3056C465.406 26.2557 466.195 26.4229 466.93 26.8559L499.058 45.7653Z"/>
</mask>
<path fill-rule="evenodd" clip-rule="evenodd" d="M499.058 45.7653C501.687 47.3121 501.687 51.113 499.058 52.6598L466.93 71.5692C466.242 71.9743 465.507 72.1467 464.796 72.1264C464.04 72.1763 463.251 72.0091 462.515 71.5761L430.387 52.6667C427.759 51.1199 427.759 47.319 430.387 45.7722L462.515 26.8629C463.204 26.4578 463.938 26.2853 464.65 26.3056C465.406 26.2557 466.195 26.4229 466.93 26.8559L499.058 45.7653Z" fill="white"/>
<path d="M499.058 52.6598L499.566 53.5216L499.058 52.6598ZM499.058 45.7653L498.551 46.6271H498.551L499.058 45.7653ZM466.93 71.5692L467.438 72.431L467.438 72.431L466.93 71.5692ZM464.796 72.1264L464.825 71.1268L464.777 71.1255L464.73 71.1286L464.796 72.1264ZM462.515 71.5761L462.008 72.4379V72.4379L462.515 71.5761ZM430.387 52.6667L430.894 51.8049H430.894L430.387 52.6667ZM430.387 45.7722L429.88 44.9104H429.88L430.387 45.7722ZM462.515 26.8629L462.008 26.0011V26.0011L462.515 26.8629ZM464.65 26.3056L464.621 27.3052L464.668 27.3066L464.715 27.3035L464.65 26.3056ZM466.93 26.8559L466.423 27.7178V27.7178L466.93 26.8559ZM499.566 53.5216C502.851 51.5881 502.851 46.837 499.566 44.9035L498.551 46.6271C500.522 47.7872 500.522 50.6379 498.551 51.798L499.566 53.5216ZM467.438 72.431L499.566 53.5216L498.551 51.798L466.423 70.7074L467.438 72.431ZM464.767 73.126C465.663 73.1516 466.584 72.9334 467.438 72.431L466.423 70.7074C465.9 71.0152 465.352 71.1419 464.825 71.1268L464.767 73.126ZM464.73 71.1286C464.169 71.1656 463.581 71.043 463.022 70.7143L462.008 72.4379C462.921 72.9752 463.91 73.187 464.862 73.1242L464.73 71.1286ZM463.022 70.7143L430.894 51.8049L429.88 53.5285L462.008 72.4379L463.022 70.7143ZM430.894 51.8049C428.923 50.6448 428.923 47.7942 430.894 46.6341L429.88 44.9104C426.595 46.8439 426.595 51.595 429.88 53.5285L430.894 51.8049ZM430.894 46.6341L463.022 27.7247L462.008 26.0011L429.88 44.9104L430.894 46.6341ZM463.022 27.7247C463.546 27.4168 464.094 27.2902 464.621 27.3052L464.678 25.3061C463.783 25.2805 462.862 25.4987 462.008 26.0011L463.022 27.7247ZM467.438 25.9941C466.525 25.4569 465.536 25.245 464.584 25.3078L464.715 27.3035C465.276 27.2665 465.865 27.389 466.423 27.7178L467.438 25.9941ZM499.566 44.9035L467.438 25.9941L466.423 27.7178L498.551 46.6271L499.566 44.9035Z" fill="black" mask="url(#path-21-inside-3_591_4364)"/>
<circle cx="435.171" cy="49.1755" r="2.59881" transform="rotate(-19.9235 435.171 49.1755)" fill="white" stroke="black" stroke-width="0.5"/>
<rect x="434.004" y="46.764" width="0.367589" height="5.33003" transform="rotate(-19.9235 434.004 46.764)" fill="white" stroke="black" stroke-width="0.367589"/>
<circle cx="495.333" cy="48.7258" r="2.59881" transform="rotate(23.9795 495.333 48.7258)" fill="white" stroke="black" stroke-width="0.5"/>
<rect x="496.164" y="46.1789" width="0.367589" height="5.33003" transform="rotate(23.9795 496.164 46.1789)" fill="white" stroke="black" stroke-width="0.367589"/>
<mask id="path-27-inside-4_591_4364" fill="white">
<path fill-rule="evenodd" clip-rule="evenodd" d="M687.462 46.7783C690.09 48.3251 690.09 52.1259 687.462 53.6727L655.334 72.5821C654.646 72.9872 653.911 73.1597 653.2 73.1393C652.443 73.1892 651.655 73.022 650.919 72.589L618.791 53.6797C616.163 52.1329 616.163 48.332 618.791 46.7852L650.919 27.8758C651.607 27.4707 652.342 27.2982 653.053 27.3186C653.81 27.2687 654.598 27.4359 655.334 27.8689L687.462 46.7783Z"/>
</mask>
<path fill-rule="evenodd" clip-rule="evenodd" d="M687.462 46.7783C690.09 48.3251 690.09 52.1259 687.462 53.6727L655.334 72.5821C654.646 72.9872 653.911 73.1597 653.2 73.1393C652.443 73.1892 651.655 73.022 650.919 72.589L618.791 53.6797C616.163 52.1329 616.163 48.332 618.791 46.7852L650.919 27.8758C651.607 27.4707 652.342 27.2982 653.053 27.3186C653.81 27.2687 654.598 27.4359 655.334 27.8689L687.462 46.7783Z" fill="white"/>
<path d="M687.462 53.6727L687.97 54.5346L687.462 53.6727ZM687.462 46.7783L686.955 47.6401L687.462 46.7783ZM655.334 72.5821L655.841 73.4439L655.841 73.4439L655.334 72.5821ZM653.2 73.1393L653.228 72.1397L653.181 72.1384L653.134 72.1415L653.2 73.1393ZM650.919 72.589L650.412 73.4508V73.4508L650.919 72.589ZM618.791 53.6797L619.298 52.8179H619.298L618.791 53.6797ZM618.791 46.7852L618.284 45.9234H618.284L618.791 46.7852ZM650.919 27.8758L651.426 28.7376L650.919 27.8758ZM653.053 27.3186L653.025 28.3182L653.072 28.3195L653.119 28.3164L653.053 27.3186ZM655.334 27.8689L654.827 28.7307V28.7307L655.334 27.8689ZM687.97 54.5346C691.255 52.6011 691.255 47.8499 687.97 45.9164L686.955 47.6401C688.926 48.8002 688.926 51.6508 686.955 52.8109L687.97 54.5346ZM655.841 73.4439L687.97 54.5346L686.955 52.8109L654.827 71.7203L655.841 73.4439ZM653.171 74.1389C654.067 74.1645 654.988 73.9463 655.841 73.4439L654.827 71.7203C654.304 72.0282 653.755 72.1548 653.228 72.1397L653.171 74.1389ZM653.134 72.1415C652.573 72.1785 651.985 72.056 651.426 71.7272L650.412 73.4508C651.325 73.9881 652.314 74.2 653.266 74.1372L653.134 72.1415ZM651.426 71.7272L619.298 52.8179L618.284 54.5415L650.412 73.4508L651.426 71.7272ZM619.298 52.8179C617.327 51.6578 617.327 48.8071 619.298 47.647L618.284 45.9234C614.999 47.8569 614.999 52.608 618.284 54.5415L619.298 52.8179ZM619.298 47.647L651.426 28.7376L650.412 27.014L618.284 45.9234L619.298 47.647ZM651.426 28.7376C651.949 28.4297 652.498 28.3031 653.025 28.3182L653.082 26.319C652.186 26.2934 651.265 26.5116 650.412 27.014L651.426 28.7376ZM655.841 27.0071C654.929 26.4698 653.94 26.258 652.988 26.3208L653.119 28.3164C653.68 28.2794 654.268 28.4019 654.827 28.7307L655.841 27.0071ZM687.97 45.9164L655.841 27.0071L654.827 28.7307L686.955 47.6401L687.97 45.9164Z" fill="black" mask="url(#path-27-inside-4_591_4364)"/>
<circle cx="623.575" cy="50.1885" r="2.59881" transform="rotate(-19.9235 623.575 50.1885)" fill="white" stroke="black" stroke-width="0.5"/>
<rect x="622.408" y="47.7769" width="0.367589" height="5.33003" transform="rotate(-19.9235 622.408 47.7769)" fill="white" stroke="black" stroke-width="0.367589"/>
<circle cx="683.737" cy="49.7387" r="2.59881" transform="rotate(23.9795 683.737 49.7387)" fill="white" stroke="black" stroke-width="0.5"/>
<rect x="684.568" y="47.1918" width="0.367589" height="5.33003" transform="rotate(23.9795 684.568 47.1918)" fill="white" stroke="black" stroke-width="0.367589"/>
<mask id="path-33-inside-5_591_4364" fill="white">
<path fill-rule="evenodd" clip-rule="evenodd" d="M874.853 46.7783C877.481 48.3251 877.481 52.1259 874.853 53.6727L842.725 72.5821C842.036 72.9872 841.302 73.1597 840.59 73.1393C839.834 73.1892 839.045 73.022 838.31 72.589L806.182 53.6797C803.553 52.1329 803.553 48.332 806.182 46.7852L838.31 27.8758C838.998 27.4707 839.733 27.2982 840.444 27.3186C841.2 27.2687 841.989 27.4359 842.725 27.8689L874.853 46.7783Z"/>
</mask>
<path fill-rule="evenodd" clip-rule="evenodd" d="M874.853 46.7783C877.481 48.3251 877.481 52.1259 874.853 53.6727L842.725 72.5821C842.036 72.9872 841.302 73.1597 840.59 73.1393C839.834 73.1892 839.045 73.022 838.31 72.589L806.182 53.6797C803.553 52.1329 803.553 48.332 806.182 46.7852L838.31 27.8758C838.998 27.4707 839.733 27.2982 840.444 27.3186C841.2 27.2687 841.989 27.4359 842.725 27.8689L874.853 46.7783Z" fill="white"/>
<path d="M874.853 53.6727L875.36 54.5346L874.853 53.6727ZM874.853 46.7783L874.346 47.6401L874.853 46.7783ZM842.725 72.5821L842.218 71.7203H842.218L842.725 72.5821ZM840.59 73.1393L840.619 72.1397L840.572 72.1384L840.525 72.1415L840.59 73.1393ZM838.31 72.589L837.802 73.4508V73.4508L838.31 72.589ZM806.182 53.6797L806.689 52.8179H806.689L806.182 53.6797ZM806.182 46.7852L805.674 45.9234H805.674L806.182 46.7852ZM838.31 27.8758L837.802 27.014L837.802 27.014L838.31 27.8758ZM840.444 27.3186L840.415 28.3182L840.463 28.3195L840.51 28.3164L840.444 27.3186ZM842.725 27.8689L842.218 28.7307V28.7307L842.725 27.8689ZM875.36 54.5346C878.645 52.6011 878.645 47.8499 875.36 45.9164L874.346 47.6401C876.317 48.8002 876.317 51.6508 874.346 52.8109L875.36 54.5346ZM843.232 73.4439L875.36 54.5346L874.346 52.8109L842.218 71.7203L843.232 73.4439ZM840.562 74.1389C841.457 74.1645 842.378 73.9463 843.232 73.4439L842.218 71.7203C841.694 72.0282 841.146 72.1548 840.619 72.1397L840.562 74.1389ZM840.525 72.1415C839.964 72.1785 839.375 72.056 838.817 71.7272L837.802 73.4508C838.715 73.9881 839.704 74.2 840.656 74.1372L840.525 72.1415ZM838.817 71.7272L806.689 52.8179L805.674 54.5415L837.802 73.4508L838.817 71.7272ZM806.689 52.8179C804.718 51.6578 804.718 48.8071 806.689 47.647L805.674 45.9234C802.389 47.8569 802.389 52.608 805.674 54.5415L806.689 52.8179ZM806.689 47.647L838.817 28.7376L837.802 27.014L805.674 45.9234L806.689 47.647ZM838.817 28.7376C839.34 28.4297 839.888 28.3031 840.415 28.3182L840.473 26.319C839.577 26.2934 838.656 26.5116 837.802 27.014L838.817 28.7376ZM843.232 27.0071C842.319 26.4698 841.33 26.258 840.378 26.3208L840.51 28.3164C841.071 28.2794 841.659 28.4019 842.218 28.7307L843.232 27.0071ZM875.36 45.9164L843.232 27.0071L842.218 28.7307L874.346 47.6401L875.36 45.9164Z" fill="black" mask="url(#path-33-inside-5_591_4364)"/>
<circle cx="810.966" cy="50.1885" r="2.59881" transform="rotate(-19.9235 810.966 50.1885)" fill="white" stroke="black" stroke-width="0.5"/>
<rect x="809.798" y="47.7769" width="0.367589" height="5.33003" transform="rotate(-19.9235 809.798 47.7769)" fill="white" stroke="black" stroke-width="0.367589"/>
<circle cx="871.128" cy="49.7387" r="2.59881" transform="rotate(23.9795 871.128 49.7387)" fill="white" stroke="black" stroke-width="0.5"/>
<rect x="871.959" y="47.1918" width="0.367589" height="5.33003" transform="rotate(23.9795 871.959 47.1918)" fill="white" stroke="black" stroke-width="0.367589"/>
<mask id="path-39-inside-6_591_4364" fill="white">
<path fill-rule="evenodd" clip-rule="evenodd" d="M1062.24 47.7914C1064.87 49.3382 1064.87 53.1391 1062.24 54.6859L1030.12 73.5953C1029.43 74.0004 1028.69 74.1729 1027.98 74.1525C1027.22 74.2024 1026.44 74.0352 1025.7 73.6022L993.572 54.6929C990.944 53.1461 990.944 49.3452 993.572 47.7984L1025.7 28.889C1026.39 28.4839 1027.12 28.3114 1027.83 28.3318C1028.59 28.2819 1029.38 28.4491 1030.12 28.8821L1062.24 47.7914Z"/>
</mask>
<path fill-rule="evenodd" clip-rule="evenodd" d="M1062.24 47.7914C1064.87 49.3382 1064.87 53.1391 1062.24 54.6859L1030.12 73.5953C1029.43 74.0004 1028.69 74.1729 1027.98 74.1525C1027.22 74.2024 1026.44 74.0352 1025.7 73.6022L993.572 54.6929C990.944 53.1461 990.944 49.3452 993.572 47.7984L1025.7 28.889C1026.39 28.4839 1027.12 28.3114 1027.83 28.3318C1028.59 28.2819 1029.38 28.4491 1030.12 28.8821L1062.24 47.7914Z" fill="white"/>
<path d="M1062.24 54.6859L1062.75 55.5477L1062.24 54.6859ZM1062.24 47.7914L1061.74 48.6532L1062.24 47.7914ZM1030.12 73.5953L1029.61 72.7335L1030.12 73.5953ZM1027.98 74.1525L1028.01 73.1529L1027.96 73.1516L1027.92 73.1547L1027.98 74.1525ZM1025.7 73.6022L1025.19 74.464L1025.19 74.464L1025.7 73.6022ZM993.572 54.6929L994.079 53.831H994.079L993.572 54.6929ZM993.572 47.7984L993.065 46.9366H993.065L993.572 47.7984ZM1025.7 28.889L1025.19 28.0272V28.0272L1025.7 28.889ZM1027.83 28.3318L1027.81 29.3314L1027.85 29.3327L1027.9 29.3296L1027.83 28.3318ZM1030.12 28.8821L1029.61 29.7439V29.7439L1030.12 28.8821ZM1062.75 55.5477C1066.04 53.6142 1066.04 48.8631 1062.75 46.9296L1061.74 48.6532C1063.71 49.8134 1063.71 52.664 1061.74 53.8241L1062.75 55.5477ZM1030.62 74.4571L1062.75 55.5477L1061.74 53.8241L1029.61 72.7335L1030.62 74.4571ZM1027.95 75.1521C1028.85 75.1777 1029.77 74.9595 1030.62 74.4571L1029.61 72.7335C1029.09 73.0414 1028.54 73.168 1028.01 73.1529L1027.95 75.1521ZM1027.92 73.1547C1027.35 73.1917 1026.77 73.0692 1026.21 72.7404L1025.19 74.464C1026.11 75.0013 1027.09 75.2132 1028.05 75.1503L1027.92 73.1547ZM1026.21 72.7404L994.079 53.831L993.065 55.5547L1025.19 74.464L1026.21 72.7404ZM994.079 53.831C992.108 52.6709 992.108 49.8203 994.079 48.6602L993.065 46.9366C989.78 48.8701 989.78 53.6212 993.065 55.5547L994.079 53.831ZM994.079 48.6602L1026.21 29.7508L1025.19 28.0272L993.065 46.9366L994.079 48.6602ZM1026.21 29.7508C1026.73 29.4429 1027.28 29.3163 1027.81 29.3314L1027.86 27.3322C1026.97 27.3066 1026.05 27.5248 1025.19 28.0272L1026.21 29.7508ZM1030.62 28.0203C1029.71 27.483 1028.72 27.2711 1027.77 27.3339L1027.9 29.3296C1028.46 29.2926 1029.05 29.4151 1029.61 29.7439L1030.62 28.0203ZM1062.75 46.9296L1030.62 28.0203L1029.61 29.7439L1061.74 48.6532L1062.75 46.9296Z" fill="black" mask="url(#path-39-inside-6_591_4364)"/>
<circle cx="998.356" cy="51.2017" r="2.59881" transform="rotate(-19.9235 998.356 51.2017)" fill="white" stroke="black" stroke-width="0.5"/>
<rect x="997.189" y="48.7899" width="0.367589" height="5.33003" transform="rotate(-19.9235 997.189 48.7899)" fill="white" stroke="black" stroke-width="0.367589"/>
<circle cx="1058.52" cy="50.7519" r="2.59881" transform="rotate(23.9795 1058.52 50.7519)" fill="white" stroke="black" stroke-width="0.5"/>
<rect x="1059.35" y="48.2048" width="0.367589" height="5.33003" transform="rotate(23.9795 1059.35 48.2048)" fill="white" stroke="black" stroke-width="0.367589"/>
<mask id="path-45-inside-7_591_4364" fill="white">
<path fill-rule="evenodd" clip-rule="evenodd" d="M1250.65 45.7653C1253.27 47.3121 1253.27 51.113 1250.65 52.6598L1218.52 71.5692C1217.83 71.9743 1217.1 72.1467 1216.38 72.1264C1215.63 72.1763 1214.84 72.0091 1214.1 71.5761L1181.98 52.6667C1179.35 51.1199 1179.35 47.319 1181.98 45.7722L1214.1 26.8629C1214.79 26.4578 1215.53 26.2853 1216.24 26.3056C1216.99 26.2557 1217.78 26.4229 1218.52 26.8559L1250.65 45.7653Z"/>
</mask>
<path fill-rule="evenodd" clip-rule="evenodd" d="M1250.65 45.7653C1253.27 47.3121 1253.27 51.113 1250.65 52.6598L1218.52 71.5692C1217.83 71.9743 1217.1 72.1467 1216.38 72.1264C1215.63 72.1763 1214.84 72.0091 1214.1 71.5761L1181.98 52.6667C1179.35 51.1199 1179.35 47.319 1181.98 45.7722L1214.1 26.8629C1214.79 26.4578 1215.53 26.2853 1216.24 26.3056C1216.99 26.2557 1217.78 26.4229 1218.52 26.8559L1250.65 45.7653Z" fill="white"/>
<path d="M1250.65 52.6598L1251.15 53.5216L1250.65 52.6598ZM1250.65 45.7653L1250.14 46.6271L1250.65 45.7653ZM1218.52 71.5692L1219.03 72.431L1219.03 72.431L1218.52 71.5692ZM1216.38 72.1264L1216.41 71.1268L1216.37 71.1255L1216.32 71.1286L1216.38 72.1264ZM1214.1 71.5761L1213.6 72.4379V72.4379L1214.1 71.5761ZM1181.98 52.6667L1182.48 51.8049H1182.48L1181.98 52.6667ZM1181.98 45.7722L1181.47 44.9104H1181.47L1181.98 45.7722ZM1214.1 26.8629L1213.6 26.0011V26.0011L1214.1 26.8629ZM1216.24 26.3056L1216.21 27.3052L1216.26 27.3066L1216.3 27.3035L1216.24 26.3056ZM1218.52 26.8559L1218.01 27.7178L1218.01 27.7178L1218.52 26.8559ZM1251.15 53.5216C1254.44 51.5881 1254.44 46.837 1251.15 44.9035L1250.14 46.6271C1252.11 47.7872 1252.11 50.6379 1250.14 51.798L1251.15 53.5216ZM1219.03 72.431L1251.15 53.5216L1250.14 51.798L1218.01 70.7074L1219.03 72.431ZM1216.36 73.126C1217.25 73.1516 1218.17 72.9334 1219.03 72.431L1218.01 70.7074C1217.49 71.0152 1216.94 71.1419 1216.41 71.1268L1216.36 73.126ZM1216.32 71.1286C1215.76 71.1656 1215.17 71.043 1214.61 70.7143L1213.6 72.4379C1214.51 72.9752 1215.5 73.187 1216.45 73.1242L1216.32 71.1286ZM1214.61 70.7143L1182.48 51.8049L1181.47 53.5285L1213.6 72.4379L1214.61 70.7143ZM1182.48 51.8049C1180.51 50.6448 1180.51 47.7942 1182.48 46.6341L1181.47 44.9104C1178.18 46.8439 1178.18 51.595 1181.47 53.5285L1182.48 51.8049ZM1182.48 46.6341L1214.61 27.7247L1213.6 26.0011L1181.47 44.9104L1182.48 46.6341ZM1214.61 27.7247C1215.13 27.4168 1215.68 27.2902 1216.21 27.3052L1216.27 25.3061C1215.37 25.2805 1214.45 25.4987 1213.6 26.0011L1214.61 27.7247ZM1219.03 25.9941C1218.11 25.4569 1217.12 25.245 1216.17 25.3078L1216.3 27.3035C1216.86 27.2665 1217.45 27.389 1218.01 27.7178L1219.03 25.9941ZM1251.15 44.9035L1219.03 25.9941L1218.01 27.7178L1250.14 46.6271L1251.15 44.9035Z" fill="black" mask="url(#path-45-inside-7_591_4364)"/>
<circle cx="1186.76" cy="49.1755" r="2.59881" transform="rotate(-19.9235 1186.76 49.1755)" fill="white" stroke="black" stroke-width="0.5"/>
<rect x="1185.59" y="46.764" width="0.367589" height="5.33003" transform="rotate(-19.9235 1185.59 46.764)" fill="white" stroke="black" stroke-width="0.367589"/>
<circle cx="1246.92" cy="48.7258" r="2.59881" transform="rotate(23.9795 1246.92 48.7258)" fill="white" stroke="black" stroke-width="0.5"/>
<rect x="1247.75" y="46.1789" width="0.367589" height="5.33003" transform="rotate(23.9795 1247.75 46.1789)" fill="white" stroke="black" stroke-width="0.367589"/>
<mask id="path-51-inside-8_591_4364" fill="white">
<path fill-rule="evenodd" clip-rule="evenodd" d="M1438.04 44.7524C1440.67 46.2992 1440.67 50.1001 1438.04 51.6469L1405.91 70.5562C1405.22 70.9614 1404.49 71.1338 1403.78 71.1135C1403.02 71.1634 1402.23 70.9962 1401.49 70.5632L1369.37 51.6538C1366.74 50.107 1366.74 46.3061 1369.37 44.7593L1401.49 25.8499C1402.18 25.4448 1402.92 25.2724 1403.63 25.2927C1404.38 25.2428 1405.17 25.41 1405.91 25.843L1438.04 44.7524Z"/>
</mask>
<path fill-rule="evenodd" clip-rule="evenodd" d="M1438.04 44.7524C1440.67 46.2992 1440.67 50.1001 1438.04 51.6469L1405.91 70.5562C1405.22 70.9614 1404.49 71.1338 1403.78 71.1135C1403.02 71.1634 1402.23 70.9962 1401.49 70.5632L1369.37 51.6538C1366.74 50.107 1366.74 46.3061 1369.37 44.7593L1401.49 25.8499C1402.18 25.4448 1402.92 25.2724 1403.63 25.2927C1404.38 25.2428 1405.17 25.41 1405.91 25.843L1438.04 44.7524Z" fill="white"/>
<path d="M1438.04 51.6469L1438.54 52.5087L1438.04 51.6469ZM1438.04 44.7524L1437.53 45.6142L1438.04 44.7524ZM1405.91 70.5562L1406.42 71.418V71.418L1405.91 70.5562ZM1403.78 71.1135L1403.8 70.1139L1403.76 70.1125L1403.71 70.1156L1403.78 71.1135ZM1401.49 70.5632L1400.99 71.425L1400.99 71.425L1401.49 70.5632ZM1369.37 51.6538L1369.87 50.792H1369.87L1369.37 51.6538ZM1369.37 44.7593L1368.86 43.8975H1368.86L1369.37 44.7593ZM1401.49 25.8499L1400.99 24.9881V24.9881L1401.49 25.8499ZM1403.63 25.2927L1403.6 26.2923L1403.65 26.2937L1403.69 26.2905L1403.63 25.2927ZM1405.91 25.843L1405.4 26.7048V26.7048L1405.91 25.843ZM1438.54 52.5087C1441.83 50.5752 1441.83 45.8241 1438.54 43.8906L1437.53 45.6142C1439.5 46.7743 1439.5 49.625 1437.53 50.7851L1438.54 52.5087ZM1406.42 71.418L1438.54 52.5087L1437.53 50.7851L1405.4 69.6944L1406.42 71.418ZM1403.75 72.113C1404.64 72.1386 1405.56 71.9204 1406.42 71.418L1405.4 69.6944C1404.88 70.0023 1404.33 70.1289 1403.8 70.1139L1403.75 72.113ZM1403.71 70.1156C1403.15 70.1526 1402.56 70.0301 1402 69.7013L1400.99 71.425C1401.9 71.9622 1402.89 72.1741 1403.84 72.1113L1403.71 70.1156ZM1402 69.7013L1369.87 50.792L1368.86 52.5156L1400.99 71.425L1402 69.7013ZM1369.87 50.792C1367.9 49.6319 1367.9 46.7812 1369.87 45.6211L1368.86 43.8975C1365.57 45.831 1365.57 50.5821 1368.86 52.5156L1369.87 50.792ZM1369.87 45.6211L1402 26.7117L1400.99 24.9881L1368.86 43.8975L1369.87 45.6211ZM1402 26.7117C1402.52 26.4039 1403.07 26.2772 1403.6 26.2923L1403.66 24.2931C1402.76 24.2675 1401.84 24.4857 1400.99 24.9881L1402 26.7117ZM1406.42 24.9812C1405.5 24.4439 1404.51 24.2321 1403.56 24.2949L1403.69 26.2905C1404.26 26.2535 1404.84 26.3761 1405.4 26.7048L1406.42 24.9812ZM1438.54 43.8906L1406.42 24.9812L1405.4 26.7048L1437.53 45.6142L1438.54 43.8906Z" fill="black" mask="url(#path-51-inside-8_591_4364)"/>
<circle cx="1374.15" cy="48.1626" r="2.59881" transform="rotate(-19.9235 1374.15 48.1626)" fill="white" stroke="black" stroke-width="0.5"/>
<rect x="1372.98" y="45.751" width="0.367589" height="5.33003" transform="rotate(-19.9235 1372.98 45.751)" fill="white" stroke="black" stroke-width="0.367589"/>
<circle cx="1434.31" cy="47.7129" r="2.59881" transform="rotate(23.9795 1434.31 47.7129)" fill="white" stroke="black" stroke-width="0.5"/>
<rect x="1435.14" y="45.1657" width="0.367589" height="5.33003" transform="rotate(23.9795 1435.14 45.1657)" fill="white" stroke="black" stroke-width="0.367589"/>
</svg>
