<svg width="1783" height="290" viewBox="0 0 1783 290" fill="none" xmlns="http://www.w3.org/2000/svg">
<path d="M400.583 87.4528C400.583 62.0128 407.352 40.5457 422.461 25.4367C437.569 10.3283 461.094 1.50019 494.767 1.5C528.452 1.49981 552.39 9.61306 567.907 24.3646C583.419 39.1117 590.599 60.5731 590.599 87.4528V288.672H400.583V87.4528Z" fill="white" stroke="black"/>
<mask id="path-2-inside-1_591_4368" fill="white">
<path fill-rule="evenodd" clip-rule="evenodd" d="M532.236 49.2895C534.864 50.8363 534.864 54.6372 532.236 56.184L498.713 75.9147C497.877 76.4062 496.974 76.5552 496.127 76.433C495.267 76.5676 494.345 76.4223 493.495 75.9217L459.971 56.191C457.343 54.6442 457.343 50.8434 459.971 49.2966L493.495 29.5659C494.33 29.0743 495.233 28.9253 496.08 29.0476C496.941 28.9129 497.862 29.0582 498.713 29.5588L532.236 49.2895Z"/>
</mask>
<path fill-rule="evenodd" clip-rule="evenodd" d="M532.236 49.2895C534.864 50.8363 534.864 54.6372 532.236 56.184L498.713 75.9147C497.877 76.4062 496.974 76.5552 496.127 76.433C495.267 76.5676 494.345 76.4223 493.495 75.9217L459.971 56.191C457.343 54.6442 457.343 50.8434 459.971 49.2966L493.495 29.5659C494.33 29.0743 495.233 28.9253 496.08 29.0476C496.941 28.9129 497.862 29.0582 498.713 29.5588L532.236 49.2895Z" fill="white"/>
<path d="M532.236 56.184L532.743 57.0458L532.743 57.0458L532.236 56.184ZM532.236 49.2895L531.729 50.1513L532.236 49.2895ZM498.713 75.9147L498.205 75.0529L498.713 75.9147ZM496.127 76.433L496.27 75.4432L496.121 75.4218L495.972 75.445L496.127 76.433ZM493.495 75.9217L494.002 75.0599L493.495 75.9217ZM459.971 56.191L459.464 57.0529L459.464 57.0529L459.971 56.191ZM459.971 49.2966L460.478 50.1584H460.478L459.971 49.2966ZM493.495 29.5659L494.002 30.4277V30.4277L493.495 29.5659ZM496.08 29.0476L495.937 30.0373L496.086 30.0588L496.235 30.0355L496.08 29.0476ZM498.713 29.5588L498.205 30.4206L498.713 29.5588ZM532.743 57.0458C536.028 55.1123 536.028 50.3612 532.743 48.4277L531.729 50.1513C533.7 51.3114 533.7 54.1621 531.729 55.3222L532.743 57.0458ZM499.22 76.7765L532.743 57.0458L531.729 55.3222L498.205 75.0529L499.22 76.7765ZM495.984 77.4227C497.049 77.5763 498.182 77.3871 499.22 76.7765L498.205 75.0529C497.572 75.4253 496.899 75.5341 496.27 75.4432L495.984 77.4227ZM495.972 75.445C495.333 75.5451 494.646 75.4391 494.002 75.0599L492.987 76.7835C494.044 77.4055 495.201 77.5901 496.282 77.421L495.972 75.445ZM494.002 75.0599L460.478 55.3292L459.464 57.0529L492.987 76.7835L494.002 75.0599ZM460.478 55.3292C458.507 54.1691 458.507 51.3185 460.478 50.1584L459.464 48.4347C456.179 50.3683 456.179 55.1194 459.464 57.0529L460.478 55.3292ZM460.478 50.1584L494.002 30.4277L492.987 28.7041L459.464 48.4347L460.478 50.1584ZM494.002 30.4277C494.635 30.0552 495.308 29.9465 495.937 30.0373L496.223 28.0578C495.159 27.9042 494.025 28.0935 492.987 28.7041L494.002 30.4277ZM499.22 28.697C498.163 28.075 497.007 27.8904 495.926 28.0596L496.235 30.0355C496.875 29.9354 497.561 30.0414 498.205 30.4206L499.22 28.697ZM532.743 48.4277L499.22 28.697L498.205 30.4206L531.729 50.1513L532.743 48.4277Z" fill="black" mask="url(#path-2-inside-1_591_4368)"/>
<circle cx="465.092" cy="52.6984" r="2.68913" transform="rotate(-19.9235 465.092 52.6984)" fill="white" stroke="black" stroke-width="0.5"/>
<rect x="463.888" y="50.2103" width="0.379243" height="5.49902" transform="rotate(-19.9235 463.888 50.2103)" fill="white" stroke="black" stroke-width="0.379243"/>
<circle cx="527.162" cy="52.2344" r="2.68913" transform="rotate(23.9795 527.162 52.2344)" fill="white" stroke="black" stroke-width="0.5"/>
<rect x="528.019" y="49.6065" width="0.379243" height="5.49902" transform="rotate(23.9795 528.019 49.6065)" fill="white" stroke="black" stroke-width="0.379243"/>
<path d="M600.656 87.4528C600.656 62.0128 607.425 40.5457 622.534 25.4367C637.642 10.3283 661.167 1.50019 694.84 1.5C728.525 1.49981 752.463 9.61306 767.98 24.3646C783.492 39.1117 790.672 60.5731 790.672 87.4528V288.672H600.656V87.4528Z" fill="white" stroke="black"/>
<mask id="path-9-inside-2_591_4368" fill="white">
<path fill-rule="evenodd" clip-rule="evenodd" d="M732.236 49.2895C734.864 50.8363 734.864 54.6372 732.236 56.184L698.713 75.9147C697.877 76.4062 696.974 76.5552 696.127 76.433C695.267 76.5676 694.345 76.4223 693.495 75.9217L659.971 56.191C657.343 54.6442 657.343 50.8434 659.971 49.2966L693.495 29.5659C694.33 29.0743 695.233 28.9253 696.08 29.0476C696.941 28.9129 697.862 29.0582 698.713 29.5588L732.236 49.2895Z"/>
</mask>
<path fill-rule="evenodd" clip-rule="evenodd" d="M732.236 49.2895C734.864 50.8363 734.864 54.6372 732.236 56.184L698.713 75.9147C697.877 76.4062 696.974 76.5552 696.127 76.433C695.267 76.5676 694.345 76.4223 693.495 75.9217L659.971 56.191C657.343 54.6442 657.343 50.8434 659.971 49.2966L693.495 29.5659C694.33 29.0743 695.233 28.9253 696.08 29.0476C696.941 28.9129 697.862 29.0582 698.713 29.5588L732.236 49.2895Z" fill="white"/>
<path d="M732.236 56.184L732.743 57.0458L732.743 57.0458L732.236 56.184ZM732.236 49.2895L731.729 50.1513L732.236 49.2895ZM698.713 75.9147L698.205 75.0529L698.713 75.9147ZM696.127 76.433L696.27 75.4432L696.121 75.4218L695.972 75.445L696.127 76.433ZM693.495 75.9217L694.002 75.0599L693.495 75.9217ZM659.971 56.191L659.464 57.0529L659.464 57.0529L659.971 56.191ZM659.971 49.2966L660.478 50.1584H660.478L659.971 49.2966ZM693.495 29.5659L694.002 30.4277V30.4277L693.495 29.5659ZM696.08 29.0476L695.937 30.0373L696.086 30.0588L696.235 30.0355L696.08 29.0476ZM698.713 29.5588L698.205 30.4206L698.713 29.5588ZM732.743 57.0458C736.028 55.1123 736.028 50.3612 732.743 48.4277L731.729 50.1513C733.7 51.3114 733.7 54.1621 731.729 55.3222L732.743 57.0458ZM699.22 76.7765L732.743 57.0458L731.729 55.3222L698.205 75.0529L699.22 76.7765ZM695.984 77.4227C697.049 77.5763 698.182 77.3871 699.22 76.7765L698.205 75.0529C697.572 75.4253 696.899 75.5341 696.27 75.4432L695.984 77.4227ZM695.972 75.445C695.333 75.5451 694.646 75.4391 694.002 75.0599L692.987 76.7835C694.044 77.4055 695.201 77.5901 696.282 77.421L695.972 75.445ZM694.002 75.0599L660.478 55.3292L659.464 57.0529L692.987 76.7835L694.002 75.0599ZM660.478 55.3292C658.507 54.1691 658.507 51.3185 660.478 50.1584L659.464 48.4347C656.179 50.3683 656.179 55.1194 659.464 57.0529L660.478 55.3292ZM660.478 50.1584L694.002 30.4277L692.987 28.7041L659.464 48.4347L660.478 50.1584ZM694.002 30.4277C694.635 30.0552 695.308 29.9465 695.937 30.0373L696.223 28.0578C695.159 27.9042 694.025 28.0935 692.987 28.7041L694.002 30.4277ZM699.22 28.697C698.163 28.075 697.007 27.8904 695.926 28.0596L696.235 30.0355C696.875 29.9354 697.561 30.0414 698.205 30.4206L699.22 28.697ZM732.743 48.4277L699.22 28.697L698.205 30.4206L731.729 50.1513L732.743 48.4277Z" fill="black" mask="url(#path-9-inside-2_591_4368)"/>
<circle cx="665.092" cy="52.6984" r="2.68913" transform="rotate(-19.9235 665.092 52.6984)" fill="white" stroke="black" stroke-width="0.5"/>
<rect x="663.888" y="50.2103" width="0.379243" height="5.49902" transform="rotate(-19.9235 663.888 50.2103)" fill="white" stroke="black" stroke-width="0.379243"/>
<circle cx="727.162" cy="52.2344" r="2.68913" transform="rotate(23.9795 727.162 52.2344)" fill="white" stroke="black" stroke-width="0.5"/>
<rect x="728.019" y="49.6065" width="0.379243" height="5.49902" transform="rotate(23.9795 728.019 49.6065)" fill="white" stroke="black" stroke-width="0.379243"/>
<path d="M800.729 87.4528C800.729 62.0128 807.498 40.5457 822.607 25.4367C837.715 10.3283 861.24 1.50019 894.913 1.5C928.598 1.49981 952.535 9.61306 968.052 24.3646C983.565 39.1117 990.745 60.5731 990.745 87.4528V288.672H800.729V87.4528Z" fill="white" stroke="black"/>
<mask id="path-16-inside-3_591_4368" fill="white">
<path fill-rule="evenodd" clip-rule="evenodd" d="M932.236 49.2895C934.864 50.8363 934.864 54.6372 932.236 56.184L898.713 75.9147C897.877 76.4062 896.974 76.5552 896.127 76.433C895.267 76.5676 894.345 76.4223 893.495 75.9217L859.971 56.191C857.343 54.6442 857.343 50.8434 859.971 49.2966L893.495 29.5659C894.33 29.0743 895.233 28.9253 896.08 29.0476C896.941 28.9129 897.862 29.0582 898.713 29.5588L932.236 49.2895Z"/>
</mask>
<path fill-rule="evenodd" clip-rule="evenodd" d="M932.236 49.2895C934.864 50.8363 934.864 54.6372 932.236 56.184L898.713 75.9147C897.877 76.4062 896.974 76.5552 896.127 76.433C895.267 76.5676 894.345 76.4223 893.495 75.9217L859.971 56.191C857.343 54.6442 857.343 50.8434 859.971 49.2966L893.495 29.5659C894.33 29.0743 895.233 28.9253 896.08 29.0476C896.941 28.9129 897.862 29.0582 898.713 29.5588L932.236 49.2895Z" fill="white"/>
<path d="M932.236 56.184L932.743 57.0458L932.743 57.0458L932.236 56.184ZM932.236 49.2895L931.729 50.1513L932.236 49.2895ZM898.713 75.9147L899.22 76.7765L898.713 75.9147ZM896.127 76.433L896.27 75.4432L896.121 75.4218L895.972 75.445L896.127 76.433ZM893.495 75.9217L892.987 76.7835L893.495 75.9217ZM859.971 56.191L859.464 57.0529L859.464 57.0529L859.971 56.191ZM859.971 49.2966L860.478 50.1584H860.478L859.971 49.2966ZM893.495 29.5659L894.002 30.4277V30.4277L893.495 29.5659ZM896.08 29.0476L895.937 30.0373L896.086 30.0588L896.235 30.0356L896.08 29.0476ZM898.713 29.5588L898.205 30.4206V30.4206L898.713 29.5588ZM932.743 57.0458C936.029 55.1123 936.029 50.3612 932.743 48.4277L931.729 50.1513C933.7 51.3114 933.7 54.1621 931.729 55.3222L932.743 57.0458ZM899.22 76.7765L932.743 57.0458L931.729 55.3222L898.205 75.0529L899.22 76.7765ZM895.984 77.4227C897.049 77.5763 898.182 77.3871 899.22 76.7765L898.205 75.0529C897.572 75.4253 896.899 75.5341 896.27 75.4432L895.984 77.4227ZM895.972 75.445C895.333 75.5451 894.646 75.4391 894.002 75.0599L892.987 76.7835C894.044 77.4055 895.201 77.5901 896.282 77.421L895.972 75.445ZM894.002 75.0599L860.478 55.3292L859.464 57.0529L892.987 76.7835L894.002 75.0599ZM860.478 55.3292C858.507 54.1691 858.507 51.3185 860.478 50.1584L859.464 48.4347C856.179 50.3683 856.179 55.1194 859.464 57.0529L860.478 55.3292ZM860.478 50.1584L894.002 30.4277L892.987 28.7041L859.464 48.4347L860.478 50.1584ZM894.002 30.4277C894.635 30.0552 895.308 29.9465 895.937 30.0373L896.223 28.0578C895.159 27.9042 894.025 28.0935 892.987 28.7041L894.002 30.4277ZM899.22 28.697C898.163 28.075 897.007 27.8904 895.926 28.0596L896.235 30.0356C896.875 29.9354 897.561 30.0414 898.205 30.4206L899.22 28.697ZM932.743 48.4277L899.22 28.697L898.205 30.4206L931.729 50.1513L932.743 48.4277Z" fill="black" mask="url(#path-16-inside-3_591_4368)"/>
<circle cx="865.092" cy="52.6984" r="2.68913" transform="rotate(-19.9235 865.092 52.6984)" fill="white" stroke="black" stroke-width="0.5"/>
<rect x="863.888" y="50.2103" width="0.379243" height="5.49902" transform="rotate(-19.9235 863.888 50.2103)" fill="white" stroke="black" stroke-width="0.379243"/>
<circle cx="927.162" cy="52.2344" r="2.68913" transform="rotate(23.9795 927.162 52.2344)" fill="white" stroke="black" stroke-width="0.5"/>
<rect x="928.019" y="49.6065" width="0.379243" height="5.49902" transform="rotate(23.9795 928.019 49.6065)" fill="white" stroke="black" stroke-width="0.379243"/>
<path d="M1000.8 87.4528C1000.8 62.0128 1007.57 40.5457 1022.68 25.4367C1037.79 10.3283 1061.31 1.50019 1094.99 1.5C1128.67 1.49981 1152.61 9.61306 1168.13 24.3646C1183.64 39.1117 1190.82 60.5731 1190.82 87.4528V288.672H1000.8V87.4528Z" fill="white" stroke="black"/>
<mask id="path-23-inside-4_591_4368" fill="white">
<path fill-rule="evenodd" clip-rule="evenodd" d="M1132.24 49.2895C1134.86 50.8363 1134.86 54.6372 1132.24 56.184L1098.71 75.9147C1097.88 76.4062 1096.97 76.5552 1096.13 76.433C1095.27 76.5676 1094.35 76.4223 1093.49 75.9217L1059.97 56.191C1057.34 54.6442 1057.34 50.8434 1059.97 49.2966L1093.49 29.5659C1094.33 29.0743 1095.23 28.9253 1096.08 29.0476C1096.94 28.9129 1097.86 29.0582 1098.71 29.5588L1132.24 49.2895Z"/>
</mask>
<path fill-rule="evenodd" clip-rule="evenodd" d="M1132.24 49.2895C1134.86 50.8363 1134.86 54.6372 1132.24 56.184L1098.71 75.9147C1097.88 76.4062 1096.97 76.5552 1096.13 76.433C1095.27 76.5676 1094.35 76.4223 1093.49 75.9217L1059.97 56.191C1057.34 54.6442 1057.34 50.8434 1059.97 49.2966L1093.49 29.5659C1094.33 29.0743 1095.23 28.9253 1096.08 29.0476C1096.94 28.9129 1097.86 29.0582 1098.71 29.5588L1132.24 49.2895Z" fill="white"/>
<path d="M1132.24 56.184L1132.74 57.0458L1132.74 57.0458L1132.24 56.184ZM1132.24 49.2895L1131.73 50.1513L1132.24 49.2895ZM1098.71 75.9147L1098.21 75.0529L1098.71 75.9147ZM1096.13 76.433L1096.27 75.4432L1096.12 75.4218L1095.97 75.445L1096.13 76.433ZM1093.49 75.9217L1094 75.0599L1093.49 75.9217ZM1059.97 56.191L1059.46 57.0529L1059.46 57.0529L1059.97 56.191ZM1059.97 49.2966L1060.48 50.1584H1060.48L1059.97 49.2966ZM1093.49 29.5659L1094 30.4277V30.4277L1093.49 29.5659ZM1096.08 29.0476L1095.94 30.0373L1096.09 30.0588L1096.23 30.0355L1096.08 29.0476ZM1098.71 29.5588L1098.21 30.4206L1098.71 29.5588ZM1132.74 57.0458C1136.03 55.1123 1136.03 50.3612 1132.74 48.4277L1131.73 50.1513C1133.7 51.3114 1133.7 54.1621 1131.73 55.3222L1132.74 57.0458ZM1099.22 76.7765L1132.74 57.0458L1131.73 55.3222L1098.21 75.0529L1099.22 76.7765ZM1095.98 77.4227C1097.05 77.5763 1098.18 77.3871 1099.22 76.7765L1098.21 75.0529C1097.57 75.4253 1096.9 75.5341 1096.27 75.4432L1095.98 77.4227ZM1095.97 75.445C1095.33 75.5451 1094.65 75.4391 1094 75.0599L1092.99 76.7835C1094.04 77.4055 1095.2 77.5901 1096.28 77.421L1095.97 75.445ZM1094 75.0599L1060.48 55.3292L1059.46 57.0529L1092.99 76.7835L1094 75.0599ZM1060.48 55.3292C1058.51 54.1691 1058.51 51.3185 1060.48 50.1584L1059.46 48.4347C1056.18 50.3683 1056.18 55.1194 1059.46 57.0529L1060.48 55.3292ZM1060.48 50.1584L1094 30.4277L1092.99 28.7041L1059.46 48.4347L1060.48 50.1584ZM1094 30.4277C1094.63 30.0552 1095.31 29.9465 1095.94 30.0373L1096.22 28.0578C1095.16 27.9042 1094.02 28.0935 1092.99 28.7041L1094 30.4277ZM1099.22 28.697C1098.16 28.075 1097.01 27.8904 1095.93 28.0596L1096.23 30.0355C1096.87 29.9354 1097.56 30.0414 1098.21 30.4206L1099.22 28.697ZM1132.74 48.4277L1099.22 28.697L1098.21 30.4206L1131.73 50.1513L1132.74 48.4277Z" fill="black" mask="url(#path-23-inside-4_591_4368)"/>
<circle cx="1065.09" cy="52.6984" r="2.68913" transform="rotate(-19.9235 1065.09 52.6984)" fill="white" stroke="black" stroke-width="0.5"/>
<rect x="1063.89" y="50.2103" width="0.379243" height="5.49902" transform="rotate(-19.9235 1063.89 50.2103)" fill="white" stroke="black" stroke-width="0.379243"/>
<circle cx="1127.16" cy="52.2344" r="2.68913" transform="rotate(23.9795 1127.16 52.2344)" fill="white" stroke="black" stroke-width="0.5"/>
<rect x="1128.02" y="49.6065" width="0.379243" height="5.49902" transform="rotate(23.9795 1128.02 49.6065)" fill="white" stroke="black" stroke-width="0.379243"/>
<path d="M1200.88 87.4528C1200.88 62.0128 1207.64 40.5457 1222.75 25.4367C1237.86 10.3283 1261.39 1.50019 1295.06 1.5C1328.74 1.49981 1352.68 9.61306 1368.2 24.3646C1383.71 39.1117 1390.89 60.5731 1390.89 87.4528V288.672H1200.88V87.4528Z" fill="white" stroke="black"/>
<mask id="path-30-inside-5_591_4368" fill="white">
<path fill-rule="evenodd" clip-rule="evenodd" d="M1332.24 49.2895C1334.86 50.8363 1334.86 54.6372 1332.24 56.184L1298.71 75.9147C1297.88 76.4062 1296.97 76.5552 1296.13 76.433C1295.27 76.5676 1294.35 76.4223 1293.49 75.9217L1259.97 56.191C1257.34 54.6442 1257.34 50.8434 1259.97 49.2966L1293.49 29.5659C1294.33 29.0743 1295.23 28.9253 1296.08 29.0476C1296.94 28.9129 1297.86 29.0582 1298.71 29.5588L1332.24 49.2895Z"/>
</mask>
<path fill-rule="evenodd" clip-rule="evenodd" d="M1332.24 49.2895C1334.86 50.8363 1334.86 54.6372 1332.24 56.184L1298.71 75.9147C1297.88 76.4062 1296.97 76.5552 1296.13 76.433C1295.27 76.5676 1294.35 76.4223 1293.49 75.9217L1259.97 56.191C1257.34 54.6442 1257.34 50.8434 1259.97 49.2966L1293.49 29.5659C1294.33 29.0743 1295.23 28.9253 1296.08 29.0476C1296.94 28.9129 1297.86 29.0582 1298.71 29.5588L1332.24 49.2895Z" fill="white"/>
<path d="M1332.24 56.184L1332.74 57.0458L1332.74 57.0458L1332.24 56.184ZM1332.24 49.2895L1331.73 50.1513L1332.24 49.2895ZM1298.71 75.9147L1298.21 75.0529L1298.71 75.9147ZM1296.13 76.433L1296.27 75.4432L1296.12 75.4218L1295.97 75.445L1296.13 76.433ZM1293.49 75.9217L1294 75.0599L1293.49 75.9217ZM1259.97 56.191L1259.46 57.0529L1259.46 57.0529L1259.97 56.191ZM1259.97 49.2966L1260.48 50.1584H1260.48L1259.97 49.2966ZM1293.49 29.5659L1294 30.4277V30.4277L1293.49 29.5659ZM1296.08 29.0476L1295.94 30.0373L1296.09 30.0588L1296.23 30.0355L1296.08 29.0476ZM1298.71 29.5588L1298.21 30.4206L1298.71 29.5588ZM1332.74 57.0458C1336.03 55.1123 1336.03 50.3612 1332.74 48.4277L1331.73 50.1513C1333.7 51.3114 1333.7 54.1621 1331.73 55.3222L1332.74 57.0458ZM1299.22 76.7765L1332.74 57.0458L1331.73 55.3222L1298.21 75.0529L1299.22 76.7765ZM1295.98 77.4227C1297.05 77.5763 1298.18 77.3871 1299.22 76.7765L1298.21 75.0529C1297.57 75.4253 1296.9 75.5341 1296.27 75.4432L1295.98 77.4227ZM1295.97 75.445C1295.33 75.5451 1294.65 75.4391 1294 75.0599L1292.99 76.7835C1294.04 77.4055 1295.2 77.5901 1296.28 77.421L1295.97 75.445ZM1294 75.0599L1260.48 55.3292L1259.46 57.0529L1292.99 76.7835L1294 75.0599ZM1260.48 55.3292C1258.51 54.1691 1258.51 51.3185 1260.48 50.1584L1259.46 48.4347C1256.18 50.3683 1256.18 55.1194 1259.46 57.0529L1260.48 55.3292ZM1260.48 50.1584L1294 30.4277L1292.99 28.7041L1259.46 48.4347L1260.48 50.1584ZM1294 30.4277C1294.63 30.0552 1295.31 29.9465 1295.94 30.0373L1296.22 28.0578C1295.16 27.9042 1294.02 28.0935 1292.99 28.7041L1294 30.4277ZM1299.22 28.697C1298.16 28.075 1297.01 27.8904 1295.93 28.0596L1296.23 30.0355C1296.87 29.9354 1297.56 30.0414 1298.21 30.4206L1299.22 28.697ZM1332.74 48.4277L1299.22 28.697L1298.21 30.4206L1331.73 50.1513L1332.74 48.4277Z" fill="black" mask="url(#path-30-inside-5_591_4368)"/>
<circle cx="1265.09" cy="52.6984" r="2.68913" transform="rotate(-19.9235 1265.09 52.6984)" fill="white" stroke="black" stroke-width="0.5"/>
<rect x="1263.89" y="50.2103" width="0.379243" height="5.49902" transform="rotate(-19.9235 1263.89 50.2103)" fill="white" stroke="black" stroke-width="0.379243"/>
<circle cx="1327.16" cy="52.2344" r="2.68913" transform="rotate(23.9795 1327.16 52.2344)" fill="white" stroke="black" stroke-width="0.5"/>
<rect x="1328.02" y="49.6065" width="0.379243" height="5.49902" transform="rotate(23.9795 1328.02 49.6065)" fill="white" stroke="black" stroke-width="0.379243"/>
<path d="M200.5 87.4714C200.5 62.0313 207.269 40.5643 222.378 25.4553C237.486 10.3468 261.011 1.51875 294.685 1.51855C328.369 1.51836 352.307 9.63162 367.824 24.3831C383.336 39.1303 390.516 60.5916 390.516 87.4714V288.691H200.5V87.4714Z" fill="white" stroke="black"/>
<mask id="path-37-inside-6_591_4368" fill="white">
<path fill-rule="evenodd" clip-rule="evenodd" d="M332.236 49.2895C334.864 50.8363 334.864 54.6372 332.236 56.184L298.713 75.9147C297.877 76.4062 296.974 76.5552 296.127 76.433C295.267 76.5676 294.345 76.4223 293.495 75.9217L259.971 56.191C257.343 54.6442 257.343 50.8434 259.971 49.2966L293.495 29.5659C294.33 29.0743 295.233 28.9253 296.08 29.0476C296.941 28.9129 297.862 29.0582 298.713 29.5588L332.236 49.2895Z"/>
</mask>
<path fill-rule="evenodd" clip-rule="evenodd" d="M332.236 49.2895C334.864 50.8363 334.864 54.6372 332.236 56.184L298.713 75.9147C297.877 76.4062 296.974 76.5552 296.127 76.433C295.267 76.5676 294.345 76.4223 293.495 75.9217L259.971 56.191C257.343 54.6442 257.343 50.8434 259.971 49.2966L293.495 29.5659C294.33 29.0743 295.233 28.9253 296.08 29.0476C296.941 28.9129 297.862 29.0582 298.713 29.5588L332.236 49.2895Z" fill="white"/>
<path d="M332.236 56.184L332.743 57.0458L332.743 57.0458L332.236 56.184ZM332.236 49.2895L331.729 50.1513L332.236 49.2895ZM298.713 75.9147L299.22 76.7765L298.713 75.9147ZM296.127 76.433L296.27 75.4432L296.121 75.4218L295.972 75.445L296.127 76.433ZM293.495 75.9217L292.987 76.7835L293.495 75.9217ZM259.971 56.191L259.464 57.0529L259.464 57.0529L259.971 56.191ZM259.971 49.2966L260.478 50.1584H260.478L259.971 49.2966ZM293.495 29.5659L294.002 30.4277V30.4277L293.495 29.5659ZM296.08 29.0476L295.937 30.0373L296.086 30.0588L296.235 30.0356L296.08 29.0476ZM298.713 29.5588L298.205 30.4206V30.4206L298.713 29.5588ZM332.743 57.0458C336.029 55.1123 336.029 50.3612 332.743 48.4277L331.729 50.1513C333.7 51.3114 333.7 54.1621 331.729 55.3222L332.743 57.0458ZM299.22 76.7765L332.743 57.0458L331.729 55.3222L298.205 75.0529L299.22 76.7765ZM295.984 77.4227C297.049 77.5763 298.182 77.3871 299.22 76.7765L298.205 75.0529C297.572 75.4253 296.899 75.5341 296.27 75.4432L295.984 77.4227ZM295.972 75.445C295.333 75.5451 294.646 75.4391 294.002 75.0599L292.987 76.7835C294.044 77.4055 295.201 77.5901 296.282 77.421L295.972 75.445ZM294.002 75.0599L260.478 55.3292L259.464 57.0529L292.987 76.7835L294.002 75.0599ZM260.478 55.3292C258.507 54.1691 258.507 51.3185 260.478 50.1584L259.464 48.4347C256.179 50.3683 256.179 55.1194 259.464 57.0529L260.478 55.3292ZM260.478 50.1584L294.002 30.4277L292.987 28.7041L259.464 48.4347L260.478 50.1584ZM294.002 30.4277C294.635 30.0552 295.308 29.9465 295.937 30.0373L296.223 28.0578C295.159 27.9042 294.025 28.0935 292.987 28.7041L294.002 30.4277ZM299.22 28.697C298.163 28.075 297.007 27.8904 295.926 28.0596L296.235 30.0356C296.875 29.9354 297.561 30.0414 298.205 30.4206L299.22 28.697ZM332.743 48.4277L299.22 28.697L298.205 30.4206L331.729 50.1513L332.743 48.4277Z" fill="black" mask="url(#path-37-inside-6_591_4368)"/>
<circle cx="265.092" cy="52.6984" r="2.68913" transform="rotate(-19.9235 265.092 52.6984)" fill="white" stroke="black" stroke-width="0.5"/>
<rect x="263.888" y="50.2103" width="0.379243" height="5.49902" transform="rotate(-19.9235 263.888 50.2103)" fill="white" stroke="black" stroke-width="0.379243"/>
<circle cx="327.162" cy="52.2344" r="2.68913" transform="rotate(23.9795 327.162 52.2344)" fill="white" stroke="black" stroke-width="0.5"/>
<rect x="328.019" y="49.6065" width="0.379243" height="5.49902" transform="rotate(23.9795 328.019 49.6065)" fill="white" stroke="black" stroke-width="0.379243"/>
<path d="M1400.95 87.4528C1400.95 62.0128 1407.72 40.5457 1422.83 25.4367C1437.93 10.3283 1461.46 1.50019 1495.13 1.5C1528.82 1.49981 1552.75 9.61306 1568.27 24.3646C1583.78 39.1117 1590.96 60.5731 1590.96 87.4528V288.672H1400.95V87.4528Z" fill="white" stroke="black"/>
<mask id="path-44-inside-7_591_4368" fill="white">
<path fill-rule="evenodd" clip-rule="evenodd" d="M1532.24 49.2895C1534.86 50.8363 1534.86 54.6372 1532.24 56.184L1498.71 75.9147C1497.88 76.4062 1496.97 76.5552 1496.13 76.433C1495.27 76.5676 1494.35 76.4223 1493.49 75.9217L1459.97 56.191C1457.34 54.6442 1457.34 50.8434 1459.97 49.2966L1493.49 29.5659C1494.33 29.0743 1495.23 28.9253 1496.08 29.0476C1496.94 28.9129 1497.86 29.0582 1498.71 29.5588L1532.24 49.2895Z"/>
</mask>
<path fill-rule="evenodd" clip-rule="evenodd" d="M1532.24 49.2895C1534.86 50.8363 1534.86 54.6372 1532.24 56.184L1498.71 75.9147C1497.88 76.4062 1496.97 76.5552 1496.13 76.433C1495.27 76.5676 1494.35 76.4223 1493.49 75.9217L1459.97 56.191C1457.34 54.6442 1457.34 50.8434 1459.97 49.2966L1493.49 29.5659C1494.33 29.0743 1495.23 28.9253 1496.08 29.0476C1496.94 28.9129 1497.86 29.0582 1498.71 29.5588L1532.24 49.2895Z" fill="white"/>
<path d="M1532.24 56.184L1532.74 57.0458L1532.74 57.0458L1532.24 56.184ZM1532.24 49.2895L1531.73 50.1513L1532.24 49.2895ZM1498.71 75.9147L1499.22 76.7765L1498.71 75.9147ZM1496.13 76.433L1496.27 75.4432L1496.12 75.4218L1495.97 75.445L1496.13 76.433ZM1493.49 75.9217L1492.99 76.7835L1493.49 75.9217ZM1459.97 56.191L1459.46 57.0529L1459.46 57.0529L1459.97 56.191ZM1459.97 49.2966L1460.48 50.1584H1460.48L1459.97 49.2966ZM1493.49 29.5659L1494 30.4277V30.4277L1493.49 29.5659ZM1496.08 29.0476L1495.94 30.0373L1496.09 30.0588L1496.23 30.0356L1496.08 29.0476ZM1498.71 29.5588L1498.21 30.4206V30.4206L1498.71 29.5588ZM1532.74 57.0458C1536.03 55.1123 1536.03 50.3612 1532.74 48.4277L1531.73 50.1513C1533.7 51.3114 1533.7 54.1621 1531.73 55.3222L1532.74 57.0458ZM1499.22 76.7765L1532.74 57.0458L1531.73 55.3222L1498.21 75.0529L1499.22 76.7765ZM1495.98 77.4227C1497.05 77.5763 1498.18 77.3871 1499.22 76.7765L1498.21 75.0529C1497.57 75.4253 1496.9 75.5341 1496.27 75.4432L1495.98 77.4227ZM1495.97 75.445C1495.33 75.5451 1494.65 75.4391 1494 75.0599L1492.99 76.7835C1494.04 77.4055 1495.2 77.5901 1496.28 77.421L1495.97 75.445ZM1494 75.0599L1460.48 55.3292L1459.46 57.0529L1492.99 76.7835L1494 75.0599ZM1460.48 55.3292C1458.51 54.1691 1458.51 51.3185 1460.48 50.1584L1459.46 48.4347C1456.18 50.3683 1456.18 55.1194 1459.46 57.0529L1460.48 55.3292ZM1460.48 50.1584L1494 30.4277L1492.99 28.7041L1459.46 48.4347L1460.48 50.1584ZM1494 30.4277C1494.63 30.0552 1495.31 29.9465 1495.94 30.0373L1496.22 28.0578C1495.16 27.9042 1494.02 28.0935 1492.99 28.7041L1494 30.4277ZM1499.22 28.697C1498.16 28.075 1497.01 27.8904 1495.93 28.0596L1496.23 30.0356C1496.87 29.9354 1497.56 30.0414 1498.21 30.4206L1499.22 28.697ZM1532.74 48.4277L1499.22 28.697L1498.21 30.4206L1531.73 50.1513L1532.74 48.4277Z" fill="black" mask="url(#path-44-inside-7_591_4368)"/>
<circle cx="1465.09" cy="52.6984" r="2.68913" transform="rotate(-19.9235 1465.09 52.6984)" fill="white" stroke="black" stroke-width="0.5"/>
<rect x="1463.89" y="50.2103" width="0.379243" height="5.49902" transform="rotate(-19.9235 1463.89 50.2103)" fill="white" stroke="black" stroke-width="0.379243"/>
<circle cx="1527.16" cy="52.2344" r="2.68913" transform="rotate(23.9795 1527.16 52.2344)" fill="white" stroke="black" stroke-width="0.5"/>
<rect x="1528.02" y="49.6065" width="0.379243" height="5.49902" transform="rotate(23.9795 1528.02 49.6065)" fill="white" stroke="black" stroke-width="0.379243"/>
<path d="M1601.5 87.4011C1601.5 61.9703 1607.95 40.5129 1622.35 25.4138C1636.74 10.3193 1659.14 1.50019 1691.22 1.5C1723.3 1.49981 1746.1 9.60513 1760.88 24.3425C1775.66 39.0796 1782.5 60.5311 1782.5 87.4011V288.5H1601.5V87.4011Z" fill="white" stroke="black"/>
<path d="M0.5 86.4528C0.5 61.0128 7.26924 39.5457 22.378 24.4367C37.4864 9.32828 61.0111 0.500192 94.6847 0.5C128.369 0.499808 152.307 8.61306 167.824 23.3646C183.336 38.1117 190.516 59.5731 190.516 86.4528V287.672H0.5V86.4528Z" fill="white" stroke="black"/>
<mask id="path-52-inside-8_591_4368" fill="white">
<path fill-rule="evenodd" clip-rule="evenodd" d="M132.236 48.271C134.864 49.8178 134.864 53.6186 132.236 55.1655L98.7125 74.8961C97.8774 75.3877 96.974 75.5367 96.127 75.4144C95.2666 75.5491 94.3452 75.4038 93.4947 74.9032L59.9711 55.1725C57.343 53.6257 57.343 49.8248 59.9711 48.278L93.4947 28.5473C94.3298 28.0558 95.2332 27.9068 96.0802 28.029C96.9406 27.8944 97.862 28.0397 98.7125 28.5403L132.236 48.271Z"/>
</mask>
<path fill-rule="evenodd" clip-rule="evenodd" d="M132.236 48.271C134.864 49.8178 134.864 53.6186 132.236 55.1655L98.7125 74.8961C97.8774 75.3877 96.974 75.5367 96.127 75.4144C95.2666 75.5491 94.3452 75.4038 93.4947 74.9032L59.9711 55.1725C57.343 53.6257 57.343 49.8248 59.9711 48.278L93.4947 28.5473C94.3298 28.0558 95.2332 27.9068 96.0802 28.029C96.9406 27.8944 97.862 28.0397 98.7125 28.5403L132.236 48.271Z" fill="white"/>
<path d="M132.236 55.1655L132.743 56.0273L132.743 56.0273L132.236 55.1655ZM132.236 48.271L131.729 49.1328L132.236 48.271ZM98.7125 74.8961L99.2197 75.7579L98.7125 74.8961ZM96.127 75.4144L96.2699 74.4247L96.121 74.4032L95.9724 74.4265L96.127 75.4144ZM93.4947 74.9032L92.9875 75.765L93.4947 74.9032ZM59.9711 55.1725L59.4639 56.0343L59.4639 56.0343L59.9711 55.1725ZM59.9711 48.278L60.4783 49.1398H60.4783L59.9711 48.278ZM93.4947 28.5473L94.0019 29.4091V29.4091L93.4947 28.5473ZM96.0802 28.029L95.9374 29.0188L96.0862 29.0403L96.2348 29.017L96.0802 28.029ZM98.7125 28.5403L98.2053 29.4021V29.4021L98.7125 28.5403ZM132.743 56.0273C136.029 54.0938 136.029 49.3427 132.743 47.4091L131.729 49.1328C133.7 50.2929 133.7 53.1435 131.729 54.3036L132.743 56.0273ZM99.2197 75.7579L132.743 56.0273L131.729 54.3036L98.2053 74.0343L99.2197 75.7579ZM95.9842 76.4042C97.0486 76.5578 98.1823 76.3685 99.2197 75.7579L98.2053 74.0343C97.5725 74.4068 96.8994 74.5155 96.2699 74.4247L95.9842 76.4042ZM95.9724 74.4265C95.3325 74.5266 94.6462 74.4206 94.0019 74.0414L92.9875 75.765C94.0443 76.387 95.2006 76.5716 96.2816 76.4024L95.9724 74.4265ZM94.0019 74.0414L60.4783 54.3107L59.4639 56.0343L92.9875 75.765L94.0019 74.0414ZM60.4783 54.3107C58.5072 53.1506 58.5072 50.2999 60.4783 49.1398L59.4639 47.4162C56.1787 49.3497 56.1787 54.1008 59.4639 56.0343L60.4783 54.3107ZM60.4783 49.1398L94.0019 29.4091L92.9875 27.6855L59.4639 47.4162L60.4783 49.1398ZM94.0019 29.4091C94.6348 29.0367 95.3078 28.9279 95.9374 29.0188L96.223 27.0393C95.1586 26.8857 94.0249 27.0749 92.9875 27.6855L94.0019 29.4091ZM99.2197 27.6785C98.163 27.0565 97.0066 26.8719 95.9256 27.041L96.2348 29.017C96.8747 28.9169 97.561 29.0229 98.2053 29.4021L99.2197 27.6785ZM132.743 47.4092L99.2197 27.6785L98.2053 29.4021L131.729 49.1328L132.743 47.4092Z" fill="black" mask="url(#path-52-inside-8_591_4368)"/>
<circle cx="65.0924" cy="51.6799" r="2.68913" transform="rotate(-19.9235 65.0924 51.6799)" fill="white" stroke="black" stroke-width="0.5"/>
<rect x="63.8884" y="49.1918" width="0.379243" height="5.49902" transform="rotate(-19.9235 63.8884 49.1918)" fill="white" stroke="black" stroke-width="0.379243"/>
<circle cx="127.162" cy="51.2159" r="2.68913" transform="rotate(23.9795 127.162 51.2159)" fill="white" stroke="black" stroke-width="0.5"/>
<rect x="128.019" y="48.588" width="0.379243" height="5.49902" transform="rotate(23.9795 128.019 48.588)" fill="white" stroke="black" stroke-width="0.379243"/>
</svg>
