<svg width="473" height="140" viewBox="0 0 473 140" fill="none" xmlns="http://www.w3.org/2000/svg">
<mask id="path-1-inside-1_587_4293" fill="white">
<path fill-rule="evenodd" clip-rule="evenodd" d="M472.077 23.1005C471.249 23.236 470.403 23.306 469.544 23.306C459.497 23.306 451.353 13.7375 451.353 1.93404C451.353 1.29587 451.377 0.664229 451.423 0.0402832L256.936 0.0402832C256.983 0.664229 257.007 1.29587 257.007 1.93404C257.007 13.7375 248.862 23.306 238.816 23.306C238.115 23.306 237.423 23.2595 236.743 23.1688L236.743 116.506C237.423 116.416 238.115 116.369 238.816 116.369C248.862 116.369 257.007 125.938 257.007 137.741C257.007 138.379 256.983 139.011 256.936 139.635L451.423 139.635C451.377 139.011 451.353 138.379 451.353 137.741C451.353 125.938 459.497 116.369 469.544 116.369C470.403 116.369 471.249 116.439 472.077 116.575V23.1005Z"/>
</mask>
<path fill-rule="evenodd" clip-rule="evenodd" d="M472.077 23.1005C471.249 23.236 470.403 23.306 469.544 23.306C459.497 23.306 451.353 13.7375 451.353 1.93404C451.353 1.29587 451.377 0.664229 451.423 0.0402832L256.936 0.0402832C256.983 0.664229 257.007 1.29587 257.007 1.93404C257.007 13.7375 248.862 23.306 238.816 23.306C238.115 23.306 237.423 23.2595 236.743 23.1688L236.743 116.506C237.423 116.416 238.115 116.369 238.816 116.369C248.862 116.369 257.007 125.938 257.007 137.741C257.007 138.379 256.983 139.011 256.936 139.635L451.423 139.635C451.377 139.011 451.353 138.379 451.353 137.741C451.353 125.938 459.497 116.369 469.544 116.369C470.403 116.369 471.249 116.439 472.077 116.575V23.1005Z" fill="white"/>
<path d="M472.077 23.1005H477.077V17.2158L471.269 18.1662L472.077 23.1005ZM451.423 0.0402832L456.409 0.412921L456.811 -4.95972L451.423 -4.95972V0.0402832ZM256.936 0.0402832V-4.95972L251.549 -4.95972L251.95 0.412906L256.936 0.0402832ZM236.743 23.1688L237.403 18.2126L231.743 17.4584V23.1688H236.743ZM236.743 116.506H231.743V122.217L237.403 121.462L236.743 116.506ZM256.936 139.635L251.95 139.262L251.549 144.635H256.936V139.635ZM451.423 139.635V144.635H456.811L456.409 139.262L451.423 139.635ZM472.077 116.575L471.269 121.509L477.077 122.459V116.575H472.077ZM469.544 28.306C470.676 28.306 471.791 28.2138 472.884 28.0349L471.269 18.1662C470.707 18.2582 470.131 18.306 469.544 18.306V28.306ZM446.353 1.93404C446.353 15.713 456.011 28.306 469.544 28.306V18.306C462.984 18.306 456.353 11.7619 456.353 1.93404L446.353 1.93404ZM446.437 -0.332355C446.381 0.415584 446.353 1.17152 446.353 1.93404L456.353 1.93404C456.353 1.42021 456.372 0.912875 456.409 0.412921L446.437 -0.332355ZM256.936 5.04028L451.423 5.04028V-4.95972L256.936 -4.95972V5.04028ZM262.007 1.93404C262.007 1.1715 261.978 0.415569 261.922 -0.332339L251.95 0.412906C251.988 0.91289 252.007 1.42023 252.007 1.93404L262.007 1.93404ZM238.816 28.306C252.349 28.306 262.007 15.713 262.007 1.93404L252.007 1.93404C252.007 11.7619 245.376 18.306 238.816 18.306V28.306ZM236.082 28.125C236.981 28.2447 237.893 28.306 238.816 28.306V18.306C238.337 18.306 237.866 18.2742 237.403 18.2126L236.082 28.125ZM241.743 116.506L241.743 23.1688H231.743L231.743 116.506H241.743ZM237.403 121.462C237.866 121.401 238.337 121.369 238.816 121.369V111.369C237.893 111.369 236.981 111.43 236.083 111.55L237.403 121.462ZM238.816 121.369C245.376 121.369 252.007 127.913 252.007 137.741H262.007C262.007 123.962 252.349 111.369 238.816 111.369V121.369ZM252.007 137.741C252.007 138.255 251.988 138.762 251.95 139.262L261.922 140.007C261.978 139.259 262.007 138.503 262.007 137.741H252.007ZM451.423 134.635L256.936 134.635V144.635L451.423 144.635V134.635ZM446.353 137.741C446.353 138.503 446.381 139.259 446.437 140.007L456.409 139.262C456.372 138.762 456.353 138.255 456.353 137.741H446.353ZM469.544 111.369C456.011 111.369 446.353 123.962 446.353 137.741H456.353C456.353 127.913 462.984 121.369 469.544 121.369V111.369ZM472.884 111.64C471.791 111.461 470.676 111.369 469.544 111.369V121.369C470.131 121.369 470.707 121.417 471.269 121.509L472.884 111.64ZM467.077 23.1005V116.575H477.077V23.1005L467.077 23.1005Z" fill="black" mask="url(#path-1-inside-1_587_4293)"/>
<mask id="path-3-inside-2_587_4293" fill="white">
<path fill-rule="evenodd" clip-rule="evenodd" d="M235.507 23.1005C234.679 23.236 233.834 23.306 232.974 23.306C222.928 23.306 214.783 13.7375 214.783 1.93404C214.783 1.29587 214.807 0.664229 214.854 0.0402832L20.3669 0.0402832C20.4135 0.664229 20.4373 1.29587 20.4373 1.93404C20.4373 13.7375 12.2929 23.306 2.24616 23.306C1.54534 23.306 0.853774 23.2595 0.173584 23.1688L0.173584 116.506C0.853774 116.416 1.54534 116.369 2.24616 116.369C12.2929 116.369 20.4373 125.938 20.4373 137.741C20.4373 138.379 20.4135 139.011 20.3669 139.635L214.854 139.635C214.807 139.011 214.783 138.379 214.783 137.741C214.783 125.938 222.928 116.369 232.974 116.369C233.834 116.369 234.679 116.439 235.507 116.575L235.507 23.1005Z"/>
</mask>
<path fill-rule="evenodd" clip-rule="evenodd" d="M235.507 23.1005C234.679 23.236 233.834 23.306 232.974 23.306C222.928 23.306 214.783 13.7375 214.783 1.93404C214.783 1.29587 214.807 0.664229 214.854 0.0402832L20.3669 0.0402832C20.4135 0.664229 20.4373 1.29587 20.4373 1.93404C20.4373 13.7375 12.2929 23.306 2.24616 23.306C1.54534 23.306 0.853774 23.2595 0.173584 23.1688L0.173584 116.506C0.853774 116.416 1.54534 116.369 2.24616 116.369C12.2929 116.369 20.4373 125.938 20.4373 137.741C20.4373 138.379 20.4135 139.011 20.3669 139.635L214.854 139.635C214.807 139.011 214.783 138.379 214.783 137.741C214.783 125.938 222.928 116.369 232.974 116.369C233.834 116.369 234.679 116.439 235.507 116.575L235.507 23.1005Z" fill="white"/>
<path d="M235.507 23.1005H240.507V17.2156L234.7 18.1661L235.507 23.1005ZM214.854 0.0402832L219.84 0.412921L220.241 -4.95972L214.854 -4.95972V0.0402832ZM20.3669 0.0402832V-4.95972L14.9793 -4.95972L15.3808 0.412906L20.3669 0.0402832ZM0.173584 23.1688L0.833969 18.2126L-4.82642 17.4584L-4.82642 23.1688H0.173584ZM0.173584 116.506H-4.82642L-4.82642 122.217L0.833956 121.462L0.173584 116.506ZM20.3669 139.635L15.3808 139.262L14.9793 144.635H20.3669L20.3669 139.635ZM214.854 139.635V144.635H220.241L219.84 139.262L214.854 139.635ZM235.507 116.575L234.7 121.509L240.507 122.459V116.575H235.507ZM232.974 28.306C234.106 28.306 235.222 28.2137 236.315 28.0348L234.7 18.1661C234.137 18.2582 233.562 18.306 232.974 18.306V28.306ZM209.783 1.93404C209.783 15.713 219.441 28.306 232.974 28.306V18.306C226.414 18.306 219.783 11.7619 219.783 1.93404L209.783 1.93404ZM209.867 -0.332355C209.812 0.415584 209.783 1.17152 209.783 1.93404L219.783 1.93404C219.783 1.42021 219.802 0.912875 219.84 0.412921L209.867 -0.332355ZM20.3669 5.04028L214.854 5.04028V-4.95972L20.3669 -4.95972V5.04028ZM25.4373 1.93404C25.4373 1.1715 25.4089 0.415569 25.353 -0.332339L15.3808 0.412906C15.4182 0.91289 15.4373 1.42023 15.4373 1.93404L25.4373 1.93404ZM2.24616 28.306C15.7795 28.306 25.4373 15.713 25.4373 1.93404L15.4373 1.93404C15.4373 11.7619 8.80619 18.306 2.24616 18.306L2.24616 28.306ZM-0.486801 28.125C0.411331 28.2447 1.3235 28.306 2.24616 28.306L2.24616 18.306C1.76718 18.306 1.29622 18.2742 0.833969 18.2126L-0.486801 28.125ZM5.17358 116.506L5.17358 23.1688H-4.82642L-4.82642 116.506H5.17358ZM0.833956 121.462C1.29622 121.401 1.76719 121.369 2.24616 121.369L2.24616 111.369C1.32349 111.369 0.411327 111.43 -0.486788 111.55L0.833956 121.462ZM2.24616 121.369C8.80619 121.369 15.4373 127.913 15.4373 137.741H25.4373C25.4373 123.962 15.7795 111.369 2.24616 111.369L2.24616 121.369ZM15.4373 137.741C15.4373 138.255 15.4182 138.762 15.3808 139.262L25.353 140.007C25.4089 139.259 25.4373 138.503 25.4373 137.741H15.4373ZM214.854 134.635L20.3669 134.635L20.3669 144.635L214.854 144.635V134.635ZM209.783 137.741C209.783 138.503 209.812 139.259 209.867 140.007L219.84 139.262C219.802 138.762 219.783 138.255 219.783 137.741H209.783ZM232.974 111.369C219.441 111.369 209.783 123.962 209.783 137.741H219.783C219.783 127.913 226.414 121.369 232.974 121.369V111.369ZM236.315 111.64C235.222 111.461 234.106 111.369 232.974 111.369V121.369C233.562 121.369 234.137 121.417 234.7 121.509L236.315 111.64ZM230.507 23.1005L230.507 116.575H240.507L240.507 23.1005L230.507 23.1005Z" fill="black" mask="url(#path-3-inside-2_587_4293)"/>
<path d="M8.03076 31.4396C23.1846 27.944 27.6865 14.3922 27.985 7.89734H207.268C207.375 9.27696 207.898 11.1312 208.752 13.1614C209.719 15.4627 211.13 18.0386 212.914 20.4877C216.38 25.247 221.321 29.6187 227.217 30.4363V109.415C220.644 110.098 215.949 114.041 212.805 118.657C209.723 123.181 208.097 128.394 207.62 131.967H27.721C27.5757 124.698 24.2696 119.345 20.1773 115.61C16.159 111.944 11.3728 109.826 8.03076 108.955V31.4396Z" stroke="black"/>
<path d="M244.508 31.4396C259.661 27.944 264.163 14.3922 264.462 7.89734H443.745C443.852 9.27696 444.375 11.1312 445.229 13.1614C446.196 15.4627 447.607 18.0386 449.391 20.4877C452.857 25.247 457.798 29.6187 463.694 30.4363V109.415C457.121 110.098 452.426 114.041 449.281 118.657C446.2 123.181 444.574 128.394 444.096 131.967H264.198C264.052 124.698 260.746 119.345 256.654 115.61C252.636 111.944 247.85 109.826 244.508 108.955V31.4396Z" stroke="black"/>
<path d="M77.4834 79.5844L79.189 84.8337L84.7085 84.8337L80.2431 88.078L81.9488 93.3273L77.4834 90.083L73.018 93.3273L74.7237 88.078L70.2583 84.8337L75.7778 84.8337L77.4834 79.5844Z" fill="black"/>
<path d="M56.927 79.5844L58.6326 84.8337L64.1521 84.8337L59.6867 88.078L61.3924 93.3273L56.927 90.083L52.4616 93.3273L54.1673 88.078L49.7019 84.8337L55.2214 84.8337L56.927 79.5844Z" fill="black"/>
<path d="M98.0398 79.5844L99.7454 84.8337L105.265 84.8337L100.8 88.078L102.505 93.3273L98.0398 90.083L93.5744 93.3273L95.28 88.078L90.8147 84.8337L96.3342 84.8337L98.0398 79.5844Z" fill="black"/>
<path d="M118.596 79.5844L120.302 84.8337L125.821 84.8337L121.356 88.078L123.062 93.3273L118.596 90.083L114.131 93.3273L115.836 88.078L111.371 84.8337L116.891 84.8337L118.596 79.5844Z" fill="black"/>
<path d="M159.709 79.5846L161.414 84.8339L166.934 84.8339L162.468 88.0782L164.174 93.3276L159.709 90.0833L155.243 93.3276L156.949 88.0782L152.484 84.8339L158.003 84.8339L159.709 79.5846Z" fill="black"/>
<path d="M140.769 79.9169L142.475 85.1662L147.994 85.1662L143.529 88.4105L145.234 93.6598L140.769 90.4156L136.304 93.6598L138.009 88.4105L133.544 85.1662L139.063 85.1662L140.769 79.9169Z" fill="black"/>
<path d="M180.265 79.5844L181.971 84.8337L187.49 84.8337L183.025 88.078L184.73 93.3273L180.265 90.083L175.8 93.3273L177.505 88.078L173.04 84.8337L178.56 84.8337L180.265 79.5844Z" fill="black"/>
<path d="M313.435 79.5844L315.141 84.8337L320.66 84.8337L316.195 88.078L317.9 93.3273L313.435 90.083L308.97 93.3273L310.675 88.078L306.21 84.8337L311.729 84.8337L313.435 79.5844Z" fill="black"/>
<path d="M292.879 79.5844L294.584 84.8337L300.104 84.8337L295.638 88.078L297.344 93.3273L292.879 90.083L288.413 93.3273L290.119 88.078L285.654 84.8337L291.173 84.8337L292.879 79.5844Z" fill="black"/>
<path d="M333.991 79.5844L335.697 84.8337L341.217 84.8337L336.751 88.078L338.457 93.3273L333.991 90.083L329.526 93.3273L331.232 88.078L326.766 84.8337L332.286 84.8337L333.991 79.5844Z" fill="black"/>
<path d="M354.548 79.5844L356.253 84.8337L361.773 84.8337L357.308 88.078L359.013 93.3273L354.548 90.083L350.082 93.3273L351.788 88.078L347.323 84.8337L352.842 84.8337L354.548 79.5844Z" fill="black"/>
<path d="M375.104 79.5844L376.81 84.8337L382.329 84.8337L377.864 88.078L379.57 93.3273L375.104 90.083L370.639 93.3273L372.345 88.078L367.879 84.8337L373.399 84.8337L375.104 79.5844Z" fill="black"/>
<path d="M395.661 79.5844L397.366 84.8337L402.886 84.8337L398.42 88.078L400.126 93.3273L395.661 90.083L391.195 93.3273L392.901 88.078L388.436 84.8337L393.955 84.8337L395.661 79.5844Z" fill="black"/>
<path d="M416.217 79.5844L417.922 84.8337L423.442 84.8337L418.977 88.078L420.682 93.3273L416.217 90.083L411.751 93.3273L413.457 88.078L408.992 84.8337L414.511 84.8337L416.217 79.5844Z" fill="black"/>
</svg>
