<svg width="328" height="498" viewBox="0 0 328 498" fill="none" xmlns="http://www.w3.org/2000/svg">
<mask id="path-1-inside-1_587_4296" fill="white">
<path fill-rule="evenodd" clip-rule="evenodd" d="M205.483 489.095C242.405 493.471 277.406 454.239 283.659 401.469C289.912 348.699 265.05 302.373 228.128 297.998C191.206 293.623 156.205 332.854 149.952 385.624C143.699 438.395 168.561 484.72 205.483 489.095ZM219.028 377.404C234.876 379.282 249.245 367.957 251.123 352.109C253.001 336.261 241.676 321.892 225.829 320.014C209.981 318.136 195.611 329.46 193.733 345.308C191.855 361.156 203.18 375.526 219.028 377.404Z"/>
</mask>
<path fill-rule="evenodd" clip-rule="evenodd" d="M205.483 489.095C242.405 493.471 277.406 454.239 283.659 401.469C289.912 348.699 265.05 302.373 228.128 297.998C191.206 293.623 156.205 332.854 149.952 385.624C143.699 438.395 168.561 484.72 205.483 489.095ZM219.028 377.404C234.876 379.282 249.245 367.957 251.123 352.109C253.001 336.261 241.676 321.892 225.829 320.014C209.981 318.136 195.611 329.46 193.733 345.308C191.855 361.156 203.18 375.526 219.028 377.404Z" fill="white"/>
<path d="M282.666 401.351C279.56 427.557 269.32 450.359 255.325 466.046C241.328 481.735 223.648 490.241 205.6 488.102L205.365 490.088C224.239 492.325 242.521 483.402 256.818 467.377C271.117 451.349 281.504 428.15 284.652 401.586L282.666 401.351ZM228.01 298.991C246.058 301.13 261.26 313.532 271.203 332.058C281.144 350.581 285.771 375.145 282.666 401.351L284.652 401.586C287.8 375.023 283.123 350.039 272.965 331.113C262.81 312.19 247.12 299.242 228.246 297.005L228.01 298.991ZM150.945 385.742C154.05 359.536 164.291 336.734 178.285 321.048C192.283 305.358 209.962 296.852 228.01 298.991L228.246 297.005C209.371 294.768 191.09 303.691 176.793 319.716C162.493 335.744 152.107 358.943 148.959 385.507L150.945 385.742ZM205.6 488.102C187.553 485.963 172.35 473.561 162.408 455.035C152.467 436.512 147.839 411.949 150.945 385.742L148.959 385.507C145.811 412.07 150.488 437.055 160.645 455.981C170.801 474.904 186.491 487.852 205.365 490.088L205.6 488.102ZM250.13 351.991C248.317 367.291 234.445 378.224 219.145 376.411L218.91 378.397C235.306 380.34 250.173 368.623 252.116 352.227L250.13 351.991ZM225.711 321.007C241.01 322.82 251.943 336.692 250.13 351.991L252.116 352.227C254.059 335.83 242.343 320.963 225.946 319.021L225.711 321.007ZM194.726 345.426C196.539 330.127 210.411 319.194 225.711 321.007L225.946 319.021C209.55 317.078 194.683 328.794 192.74 345.191L194.726 345.426ZM219.145 376.411C203.846 374.598 192.913 360.725 194.726 345.426L192.74 345.191C190.797 361.587 202.514 376.454 218.91 378.397L219.145 376.411Z" fill="black" mask="url(#path-1-inside-1_587_4296)"/>
<mask id="path-3-inside-2_587_4296" fill="white">
<path fill-rule="evenodd" clip-rule="evenodd" d="M205.699 485.83C240.899 490.001 274.313 452.21 280.331 401.421C286.35 350.633 262.693 306.079 227.493 301.908C192.293 297.736 158.879 335.527 152.861 386.316C146.842 437.105 170.499 481.658 205.699 485.83ZM218.61 380.374C236.068 382.443 251.908 369.876 253.99 352.306C256.072 334.735 243.608 318.815 226.15 316.746C208.692 314.677 192.852 327.244 190.77 344.814C188.688 362.385 201.152 378.305 218.61 380.374Z"/>
</mask>
<path d="M279.338 401.304C276.35 426.521 266.564 448.469 253.209 463.573C239.851 478.681 222.999 486.873 205.816 484.837L205.581 486.823C223.598 488.958 241.053 480.34 254.707 464.898C268.364 449.452 278.294 427.11 281.324 401.539L279.338 401.304ZM227.376 302.901C244.558 304.937 259.029 316.841 268.486 334.652C277.941 352.459 282.326 376.086 279.338 401.304L281.324 401.539C284.354 375.968 279.921 351.924 270.252 333.714C260.586 315.508 245.629 303.05 227.611 300.915L227.376 302.901ZM153.854 386.434C156.842 361.216 166.628 339.268 179.983 324.164C193.341 309.057 210.193 300.865 227.376 302.901L227.611 300.915C209.594 298.779 192.139 307.397 178.485 322.839C164.828 338.285 154.898 360.627 151.868 386.198L153.854 386.434ZM205.816 484.837C188.634 482.8 174.163 470.897 164.706 453.085C155.251 435.278 150.866 411.651 153.854 386.434L151.868 386.198C148.838 411.769 153.271 435.814 162.94 454.023C172.606 472.229 187.563 484.688 205.581 486.823L205.816 484.837ZM252.997 352.188C250.979 369.216 235.631 381.384 218.728 379.381L218.492 381.367C236.505 383.502 252.837 370.536 254.983 352.423L252.997 352.188ZM226.032 317.739C242.936 319.742 255.015 335.16 252.997 352.188L254.983 352.423C257.13 334.311 244.28 317.887 226.268 315.753L226.032 317.739ZM191.763 344.932C193.781 327.904 209.129 315.736 226.032 317.739L226.268 315.753C208.256 313.618 191.923 326.584 189.777 344.696L191.763 344.932ZM218.728 379.381C201.824 377.378 189.745 361.96 191.763 344.932L189.777 344.696C187.631 362.809 200.48 379.233 218.492 381.367L218.728 379.381Z" fill="black" mask="url(#path-3-inside-2_587_4296)"/>
<mask id="path-5-inside-3_587_4296" fill="white">
<path fill-rule="evenodd" clip-rule="evenodd" d="M168.326 306.816C203.14 293.764 216.239 242.846 197.584 193.089C178.928 143.332 135.583 113.578 100.769 126.631C65.9547 139.684 52.8557 190.601 71.5112 240.358C90.1667 290.115 133.512 319.869 168.326 306.816ZM129.116 201.36C144.058 195.758 151.63 179.102 146.028 164.159C140.425 149.216 123.77 141.645 108.827 147.247C93.8837 152.85 86.3118 169.505 91.9145 184.448C97.5171 199.391 114.173 206.963 129.116 201.36Z"/>
</mask>
<path fill-rule="evenodd" clip-rule="evenodd" d="M168.326 306.816C203.14 293.764 216.239 242.846 197.584 193.089C178.928 143.332 135.583 113.578 100.769 126.631C65.9547 139.684 52.8557 190.601 71.5112 240.358C90.1667 290.115 133.512 319.869 168.326 306.816ZM129.116 201.36C144.058 195.758 151.63 179.102 146.028 164.159C140.425 149.216 123.77 141.645 108.827 147.247C93.8837 152.85 86.3118 169.505 91.9145 184.448C97.5171 199.391 114.173 206.963 129.116 201.36Z" fill="white"/>
<path d="M196.647 193.44C205.912 218.15 207.275 243.109 202.037 263.468C196.799 283.83 184.992 299.5 167.975 305.88L168.677 307.753C186.474 301.08 198.624 284.765 203.974 263.966C209.326 243.164 207.911 217.785 198.52 192.738L196.647 193.44ZM101.12 127.567C118.137 121.187 137.335 125.232 154.67 137.131C172.001 149.028 187.383 168.73 196.647 193.44L198.52 192.738C189.129 167.691 173.51 147.638 155.801 135.482C138.096 123.328 118.214 119.022 100.418 125.694L101.12 127.567ZM72.4475 240.007C63.1829 215.297 61.8198 190.338 67.0573 169.98C72.2958 149.617 84.1023 133.948 101.12 127.567L100.418 125.694C82.621 132.367 70.471 148.683 65.1204 169.481C59.7688 190.284 61.1839 215.662 70.5748 240.709L72.4475 240.007ZM167.975 305.88C150.958 312.261 131.76 308.216 114.425 296.316C97.0939 284.419 81.7121 264.717 72.4475 240.007L70.5748 240.709C79.9657 265.756 95.5845 285.809 113.293 297.965C130.999 310.119 150.881 314.425 168.677 307.753L167.975 305.88ZM145.091 164.51C150.5 178.936 143.19 195.015 128.764 200.424L129.467 202.297C144.927 196.5 152.761 179.268 146.964 163.808L145.091 164.51ZM109.178 148.183C123.604 142.775 139.683 150.085 145.091 164.51L146.964 163.808C141.168 148.348 123.936 140.514 108.476 146.311L109.178 148.183ZM92.8508 184.097C87.4421 169.671 94.7519 153.592 109.178 148.183L108.476 146.311C93.0155 152.107 85.1816 169.339 90.9781 184.799L92.8508 184.097ZM128.764 200.424C114.339 205.833 98.2595 198.523 92.8508 184.097L90.9781 184.799C96.7746 200.259 114.006 208.093 129.467 202.297L128.764 200.424Z" fill="black" mask="url(#path-5-inside-3_587_4296)"/>
<mask id="path-7-inside-4_587_4296" fill="white">
<path fill-rule="evenodd" clip-rule="evenodd" d="M167.11 303.952C200.3 291.51 212.653 242.601 194.7 194.712C176.748 146.822 135.288 118.087 102.097 130.529C68.9063 142.972 56.5536 191.88 74.5064 239.77C92.4592 287.659 133.919 316.395 167.11 303.952ZM130.202 204.326C146.663 198.155 154.973 179.722 148.762 163.154C142.551 146.587 124.172 138.159 107.711 144.33C91.2495 150.501 82.9399 168.934 89.1507 185.502C95.3615 202.069 113.741 210.497 130.202 204.326Z"/>
</mask>
<path d="M193.764 195.063C202.678 218.841 204.051 242.832 199.114 262.38C194.176 281.932 182.96 296.942 166.759 303.016L167.461 304.889C184.45 298.52 196.006 282.855 201.053 262.869C206.102 242.88 204.676 218.472 195.637 194.361L193.764 195.063ZM102.448 131.465C118.65 125.392 136.969 129.33 153.543 140.818C170.114 152.303 184.85 171.284 193.764 195.063L195.637 194.361C186.598 170.249 171.628 150.918 154.682 139.174C137.741 127.432 118.735 123.224 101.746 129.593L102.448 131.465ZM75.4428 239.419C66.5288 215.641 65.1553 191.65 70.0925 172.102C75.0307 152.549 86.2463 137.539 102.448 131.465L101.746 129.593C84.757 135.962 73.2009 151.627 68.1534 171.612C63.1047 191.602 64.5312 216.01 73.5701 240.121L75.4428 239.419ZM166.759 303.016C150.557 309.09 132.238 305.151 115.664 293.664C99.0929 282.179 84.3567 263.197 75.4428 239.419L73.5701 240.121C82.6089 264.232 97.5791 283.563 114.524 295.307C131.466 307.049 150.472 311.258 167.461 304.889L166.759 303.016ZM147.826 163.505C153.845 179.561 145.789 197.415 129.851 203.39L130.553 205.262C147.537 198.895 156.101 179.882 149.698 162.803L147.826 163.505ZM108.062 145.266C124 139.291 141.807 147.449 147.826 163.505L149.698 162.803C143.296 145.724 124.344 137.027 107.36 143.394L108.062 145.266ZM90.0871 185.151C84.068 169.094 92.1233 151.241 108.062 145.266L107.36 143.394C90.3757 149.76 81.8118 168.774 88.2143 185.853L90.0871 185.151ZM129.851 203.39C113.913 209.365 96.1061 201.207 90.0871 185.151L88.2143 185.853C94.6169 202.932 113.569 211.629 130.553 205.262L129.851 203.39Z" fill="black" mask="url(#path-7-inside-4_587_4296)"/>
<mask id="path-9-inside-5_587_4296" fill="white">
<path fill-rule="evenodd" clip-rule="evenodd" d="M210.728 212.734C247.645 217.154 282.693 177.966 289.011 125.203C295.329 72.4409 270.524 26.0851 233.607 21.6647C196.69 17.2442 161.642 56.4331 155.324 109.195C149.006 161.958 173.811 208.314 210.728 212.734ZM224.41 101.059C240.255 102.956 254.639 91.6491 256.536 75.8036C258.434 59.958 247.126 45.5745 231.281 43.6772C215.435 41.7798 201.052 53.0871 199.154 68.9326C197.257 84.7782 208.564 99.1616 224.41 101.059Z"/>
</mask>
<path fill-rule="evenodd" clip-rule="evenodd" d="M210.728 212.734C247.645 217.154 282.693 177.966 289.011 125.203C295.329 72.4409 270.524 26.0851 233.607 21.6647C196.69 17.2442 161.642 56.4331 155.324 109.195C149.006 161.958 173.811 208.314 210.728 212.734ZM224.41 101.059C240.255 102.956 254.639 91.6491 256.536 75.8036C258.434 59.958 247.126 45.5745 231.281 43.6772C215.435 41.7798 201.052 53.0871 199.154 68.9326C197.257 84.7782 208.564 99.1616 224.41 101.059Z" fill="white"/>
<path d="M288.018 125.084C284.881 151.287 274.613 174.076 260.599 189.746C246.582 205.418 228.892 213.902 210.847 211.741L210.609 213.727C229.481 215.987 247.773 207.086 262.09 191.079C276.409 175.068 286.824 151.882 290.004 125.322L288.018 125.084ZM233.488 22.6576C251.533 24.8183 266.72 37.2392 276.64 55.7776C286.559 74.3125 291.156 98.8818 288.018 125.084L290.004 125.322C293.184 98.7623 288.538 73.7726 278.404 54.834C268.271 35.8988 252.597 22.9315 233.726 20.6718L233.488 22.6576ZM156.317 109.314C159.454 83.1118 169.722 60.3225 183.736 44.6531C197.753 28.9809 215.443 20.4968 233.488 22.6576L233.726 20.6718C214.854 18.4121 196.562 27.3122 182.245 43.3199C167.926 59.3305 157.511 82.5167 154.331 109.077L156.317 109.314ZM210.847 211.741C192.802 209.58 177.615 197.159 167.695 178.621C157.776 160.086 153.179 135.517 156.317 109.314L154.331 109.077C151.151 135.636 155.797 160.626 165.931 179.565C176.064 198.5 191.738 211.467 210.609 213.727L210.847 211.741ZM255.543 75.6847C253.712 90.9819 239.826 101.898 224.529 100.066L224.291 102.052C240.685 104.015 255.566 92.3164 257.529 75.9225L255.543 75.6847ZM231.162 44.6701C246.459 46.5018 257.375 60.3875 255.543 75.6847L257.529 75.9225C259.492 59.5285 247.794 44.6473 231.4 42.6843L231.162 44.6701ZM200.147 69.0515C201.979 53.7543 215.865 42.8384 231.162 44.6701L231.4 42.6843C215.006 40.7213 200.124 52.4198 198.161 68.8137L200.147 69.0515ZM224.529 100.066C209.231 98.2344 198.316 84.3487 200.147 69.0515L198.161 68.8137C196.198 85.2077 207.897 100.089 224.291 102.052L224.529 100.066Z" fill="black" mask="url(#path-9-inside-5_587_4296)"/>
<mask id="path-11-inside-6_587_4296" fill="white">
<path fill-rule="evenodd" clip-rule="evenodd" d="M210.725 209.527C245.92 213.742 279.382 175.994 285.464 125.213C291.546 74.4315 267.946 29.8481 232.751 25.6327C197.557 21.4173 164.095 59.1662 158.013 109.947C151.931 160.728 175.531 205.312 210.725 209.527ZM223.769 104.088C241.225 106.179 257.081 93.6318 259.185 76.064C261.289 58.4962 248.844 42.5598 231.389 40.4691C213.934 38.3785 198.078 50.9252 195.974 68.493C193.87 86.0608 206.314 101.997 223.769 104.088Z"/>
</mask>
<path d="M284.471 125.094C281.451 150.307 271.637 172.243 258.264 187.33C244.887 202.421 228.024 210.592 210.844 208.534L210.607 210.52C228.621 212.678 246.087 204.082 259.76 188.657C273.436 173.228 283.395 150.899 286.457 125.331L284.471 125.094ZM232.632 26.6256C249.812 28.6833 264.268 40.6051 273.703 58.4283C283.135 76.2474 287.491 99.8797 284.471 125.094L286.457 125.331C289.519 99.7643 285.116 75.7144 275.47 57.4926C265.827 39.275 250.885 26.7975 232.87 24.6398L232.632 26.6256ZM159.006 110.066C162.026 84.8522 171.839 62.917 185.213 47.8296C198.59 32.7387 215.452 24.5679 232.632 26.6256L232.87 24.6398C214.855 22.4821 197.39 31.078 183.717 46.5029C170.04 61.9314 160.082 84.2611 157.02 109.828L159.006 110.066ZM210.844 208.534C193.664 206.476 179.209 194.555 169.774 176.731C160.342 158.912 155.986 135.28 159.006 110.066L157.02 109.828C153.958 135.395 158.361 159.445 168.006 177.667C177.65 195.885 192.592 208.362 210.607 210.52L210.844 208.534ZM258.192 75.9451C256.153 92.9706 240.789 105.119 223.888 103.095L223.65 105.081C241.66 107.238 258.008 94.2931 260.178 76.1829L258.192 75.9451ZM231.27 41.462C248.171 43.4863 260.231 58.9196 258.192 75.9451L260.178 76.1829C262.347 58.0728 249.518 41.6333 231.508 39.4762L231.27 41.462ZM196.967 68.6119C199.006 51.5864 214.37 39.4378 231.27 41.462L231.508 39.4762C213.499 37.3192 197.15 50.2639 194.981 68.3741L196.967 68.6119ZM223.888 103.095C206.988 101.071 194.928 85.6374 196.967 68.6119L194.981 68.3741C192.812 86.4842 205.641 102.924 223.65 105.081L223.888 103.095Z" fill="black" mask="url(#path-11-inside-6_587_4296)"/>
</svg>
