<svg width="359" height="165" viewBox="0 0 359 165" fill="none" xmlns="http://www.w3.org/2000/svg">
<path d="M213.968 114.303C213.042 111.814 214.887 107.351 218.056 106.446C220.614 105.079 228.622 102.962 229.543 103.162C230.1 103.283 230.758 104.181 229.206 105.343C227.219 106.831 227.219 106.853 225.456 108.709C223.693 110.564 223.636 114.372 220.871 115.906C218.24 117.367 214.782 116.492 213.968 114.303Z" fill="white"/>
<path d="M226.316 105.411C241.715 101.552 273.079 100.592 275.336 127.629C277.593 154.666 249.437 162.532 234.625 162.532C215.581 161.281 182.444 145.153 187.522 113.86C192.601 82.5673 221.143 63.6873 234.78 58.1589C242.656 53.8822 263.275 45.3289 282.742 45.3289C288.821 45.3289 295.427 46.4614 302.139 48.3752M302.139 48.3752C322.086 56.1366 343.398 66.9181 353.98 77.2475C368.087 91.0164 330.352 31.2471 290.853 12.7843C259.255 -1.98591 200.064 8.71611 177.295 17.7912C150.845 28.3335 105.038 63.3264 90.1868 73.4923C70.2829 87.1165 39.403 89.7645 22.1224 81.6284C4.8418 73.4923 -17.0234 33.1245 31.997 8.71611C71.2134 -10.8106 116.989 16.8522 134.975 33.1245C143.204 40.6347 159.873 61.4756 160.72 84.7576C161.778 113.86 160.366 119.024 150.845 125.125C140.816 131.552 113.463 123.874 121.574 105.411C129.685 86.9481 142.932 64.2727 175.179 49.0838C204.203 35.4131 264.602 36.4221 272.867 37.8184C277.951 38.6772 290.346 41.7419 302.139 48.3752Z" stroke="white" stroke-width="4" stroke-linecap="round" stroke-linejoin="round"/>
</svg>
